<?xml version="1.0" encoding="UTF-8"?>
<svg version="1.1" xmlns="http://www.w3.org/2000/svg" viewBox="0 0 2000 1671">
<path d="M0 0 C0.94939453 0.04108887 1.89878906 0.08217773 2.87695312 0.12451172 C33.76259046 1.62843277 66.68823779 6.46837072 89 30 C100.47446864 43.42804745 104.18655901 60.69130587 103 78 C98.60186038 120.74409446 74.31049479 160.77028728 48.46777344 194.08789062 C46.95635564 196.05685673 45.47836332 198.04723204 44.0078125 200.046875 C37.82975618 208.43660534 31.37501463 216.47637763 24.47875977 224.28759766 C22.28434184 226.82873143 20.14942147 229.42069423 18 232 C25.92 232.33 33.84 232.66 42 233 C42.36536434 242.75522789 42.65713621 252.50572648 42.82899475 262.26631927 C42.91159334 266.8016031 43.0230252 271.33186556 43.20703125 275.86425781 C44.11803289 298.90489391 43.7125657 314.81921406 27.85746765 332.85716248 C25.41800288 335.67141157 23.41449428 338.63689734 21.375 341.75 C18.89936729 345.30199475 16.40639574 348.84137398 13.91015625 352.37890625 C6.67466842 362.65043712 -0.37931246 373.02326827 -7.31860352 383.49731445 C-11.52399126 389.83017573 -15.84854684 396.03448349 -20.3125 402.1875 C-24.01095468 407.36533655 -27.4858559 412.69636554 -31 418 C-35.96611204 425.4949809 -41.01301244 432.88335105 -46.29296875 440.16015625 C-50.8275126 446.50851764 -55.07744274 453.05853242 -59.38085938 459.56445312 C-60.03505859 460.55251953 -60.68925781 461.54058594 -61.36328125 462.55859375 C-61.94376221 463.43829834 -62.52424316 464.31800293 -63.12231445 465.22436523 C-65.35474743 468.52439521 -67.68422312 471.75791236 -70 475 C-44.26 475.33 -18.52 475.66 8 476 C8 487.55 8 499.1 8 511 C19.88 511 31.76 511 44 511 C44.02254762 526.10724975 44.04097952 541.21449093 44.05181217 556.3217535 C44.05697498 563.33584634 44.06401739 570.349928 44.07543945 577.36401367 C44.08644688 584.12668068 44.09227619 590.88933364 44.09487724 597.65200996 C44.09673203 600.2385228 44.10035367 602.82503497 44.10573006 605.41154289 C44.11293651 609.02038855 44.11399111 612.62918547 44.11352539 616.23803711 C44.11712067 617.3191275 44.12071594 618.4002179 44.12442017 619.5140686 C44.12235817 620.98019341 44.12235817 620.98019341 44.12025452 622.47593689 C44.12117631 623.33043899 44.1220981 624.18494108 44.12304783 625.06533718 C44 627 44 627 43 628 C41.30062478 628.09727893 39.59716808 628.12371508 37.89501095 628.12304783 C36.22521959 628.1260344 36.22521959 628.1260344 34.52169508 628.12908131 C33.28339541 628.12616847 32.04509575 628.12325563 30.76927185 628.12025452 C29.46576422 628.12110894 28.16225659 628.12196337 26.81924874 628.12284368 C23.18439507 628.12509111 19.5495706 628.121064 15.91472065 628.11606562 C12.00127289 628.11176483 8.0878269 628.11320728 4.17437744 628.1139679 C-2.61149552 628.11449337 -9.3973589 628.11134415 -16.18322945 628.10573006 C-25.99457367 628.09761819 -35.80591324 628.09500016 -45.61726045 628.09374207 C-61.53382405 628.09155105 -77.45038254 628.08488963 -93.36694336 628.07543945 C-108.83243789 628.06626661 -124.29793103 628.05918515 -139.76342773 628.05493164 C-140.7160166 628.05466892 -141.66860547 628.05440619 -142.65006066 628.05413551 C-147.42870875 628.05283051 -152.20735685 628.0515668 -156.98600495 628.05032361 C-196.65734039 628.03994946 -236.32866946 628.02205544 -276 628 C-276 616.12 -276 604.24 -276 592 C-287.55 592 -299.1 592 -311 592 C-311 565.93 -311 539.86 -311 513 C-318.92 518.28 -326.84 523.56 -335 529 C-337.6100293 530.39605469 -340.22005859 531.79210937 -342.90917969 533.23046875 C-346.62608953 535.85221077 -348.22908014 537.79925184 -349.10021973 542.18994141 C-349.74855874 547.56735894 -349.59428382 552.90909726 -349.453125 558.3125 C-349.44877225 560.29263897 -349.45030802 562.27279884 -349.4574585 564.25292969 C-349.4611479 569.44245774 -349.38818709 574.62807751 -349.2979126 579.81671143 C-349.21815311 585.11589092 -349.20636068 590.41514976 -349.19140625 595.71484375 C-349.17307529 601.65972144 -349.14816301 607.60369087 -349.06768799 613.5480957 C-349.05665543 614.4470607 -349.04562286 615.3460257 -349.03425598 616.27223206 C-349.01257926 617.95738093 -348.98687342 619.64248433 -348.95652771 621.32749939 C-348.93345012 623.21824762 -348.96110699 625.10951097 -349 627 C-350 628 -350 628 -352.2626276 628.12304783 C-353.27199092 628.12212604 -354.28135424 628.12120424 -355.32130432 628.12025452 C-356.47541809 628.12162918 -357.62953186 628.12300385 -358.81861877 628.12442017 C-360.09607468 628.12082489 -361.37353058 628.11722961 -362.68969727 628.11352539 C-364.03958128 628.11324352 -365.38946544 628.11340125 -366.73934937 628.1139679 C-370.41480608 628.11425587 -374.09023043 628.10835916 -377.7656796 628.10139394 C-381.60273149 628.09516038 -385.43978404 628.0945566 -389.27684021 628.09336853 C-396.54771218 628.09025522 -403.81856919 628.08204183 -411.08943456 628.07201904 C-419.36499352 628.0608579 -427.64055318 628.05534745 -435.91611779 628.05032361 C-452.94408719 628.03985922 -469.97204202 628.02225978 -487 628 C-487 627.01 -487 626.02 -487 625 C-487.67764404 625.39155273 -488.35528809 625.78310547 -489.0534668 626.18652344 C-504.01395449 634.82907142 -518.98265998 643.45647673 -534 652 C-534.88123535 652.50176758 -535.7624707 653.00353516 -536.67041016 653.52050781 C-564.18922235 669.17648736 -591.96925674 684.28374413 -620 699 C-621.05880371 699.5563916 -622.11760742 700.1127832 -623.20849609 700.68603516 C-628.77568131 703.6089716 -634.35152486 706.51474083 -639.93408203 709.40820312 C-642.70089354 710.84470663 -645.46455321 712.28712608 -648.22756958 713.73091125 C-681.37994607 731.03834999 -714.95557253 747.62719419 -749.00756836 763.09362793 C-751.23219254 764.10562612 -753.45505101 765.12144169 -755.67773438 766.13769531 C-838.92691025 804.18692868 -924.14496588 839.09722856 -1196 899 C-1196.72687012 899.02336426 -1197.45374023 899.04672852 -1198.20263672 899.07080078 C-1232.52632058 900.00397839 -1271.2336483 896.80142533 -1298.375 873.625 C-1311.13378505 861.50725602 -1316.8285444 845.90223694 -1317.3125 828.5 C-1316.59710333 793.78443537 -1300.34036483 761.68998165 -1282 733 C-1281.57509277 732.33355469 -1281.15018555 731.66710938 -1280.71240234 730.98046875 C-1268.34106308 711.71981849 -1254.48232148 693.47124779 -1239.61328125 676.08203125 C-1237.20918687 673.26364971 -1234.88232006 670.38828047 -1232.5625 667.5 C-1228.69609833 662.7450895 -1224.61471132 658.23338355 -1220.42407227 653.765625 C-1217.75237957 650.91581946 -1215.13759983 648.03000893 -1212.57421875 645.08203125 C-1209.10874632 641.10204902 -1205.54482472 637.22632405 -1201.9375 633.375 C-1201.29989746 632.68188721 -1200.66229492 631.98877441 -1200.00537109 631.2746582 C-1196.79479536 627.81817779 -1193.5643372 624.55419653 -1189.94921875 621.51953125 C-1183.54930334 616.02495408 -1179.50977135 612.18162837 -1178.67382812 603.48413086 C-1178.60843612 599.6551019 -1178.83365336 595.82597277 -1179 592 C-1190.55 592 -1202.1 592 -1214 592 C-1214 461.98 -1214 331.96 -1214 198 C-974.67100977 198 -974.67100977 198 -931 239 C-926.42912475 243.57087525 -922.42985618 248.16540898 -919.0625 253.6875 C-916.27996221 258.06443962 -912.95092385 260.39325195 -908.64453125 263.1953125 C-904.02956801 266.34466703 -900.04818219 270.16522038 -896 274 C-895.21367188 274.73347656 -894.42734375 275.46695312 -893.6171875 276.22265625 C-888.26851658 281.36281966 -883.9648944 286.73777305 -880 293 C-879.35160156 293.99257813 -878.70320313 294.98515625 -878.03515625 296.0078125 C-866.77770461 314.28766679 -861.95005718 335.73837542 -861 357 C-859.23586822 356.19701588 -857.48908247 355.35588352 -855.75 354.5 C-854.77546875 354.0359375 -853.8009375 353.571875 -852.796875 353.09375 C-846.60673307 348.459789 -844.49780016 339.264402 -841.97265625 332.19140625 C-841.59145126 331.13679703 -841.21024628 330.08218781 -840.81748962 328.99562073 C-839.99319483 326.71391382 -839.17104841 324.43142986 -838.35083008 322.14825439 C-836.36078707 316.60945219 -834.35763347 311.07539535 -832.35486984 305.54118347 C-831.65487252 303.60649026 -830.95543375 301.67159568 -830.25601196 299.73669434 C-824.81905378 284.70385512 -819.28039966 269.70870267 -813.73953247 254.71389771 C-806.76255628 235.83181725 -799.87944369 216.91847014 -793 198 C-754.72 198 -716.44 198 -677 198 C-668.94763514 218.70608108 -668.94763514 218.70608108 -666.5625 225.125 C-666.30791016 225.80691406 -666.05332031 226.48882813 -665.79101562 227.19140625 C-665.1929157 228.79386267 -664.59626348 230.39685935 -664 232 C-653.17580652 233.85754168 -645.77177583 228.5470201 -637 223 C-638.66086912 217.43335076 -641.11071736 212.34213647 -643.625 207.125 C-644.04523437 206.24585938 -644.46546875 205.36671875 -644.8984375 204.4609375 C-645.9291692 202.30577122 -646.96309426 200.15220078 -648 198 C-647.31857941 198.01633987 -646.63715881 198.03267975 -645.93508911 198.04951477 C-639.37947057 198.19449696 -632.82646405 198.27234971 -626.26918221 198.28240681 C-622.89994647 198.2897398 -619.53765532 198.32667254 -616.16894531 198.40795898 C-596.53432098 198.86021719 -582.62418075 195.71462553 -565.71243286 185.60592651 C-561.68355755 183.22058538 -557.53286895 181.0867114 -553.375 178.9375 C-551.85601931 178.13423202 -550.33770079 177.32970951 -548.8203125 176.5234375 C-532.89774754 168.13999098 -516.67880301 160.32154104 -500.41748047 152.62109375 C-497.96446679 151.45749818 -495.51293361 150.29111084 -493.06298828 149.12109375 C-472.05396548 139.08833978 -450.92821111 129.37351884 -429.60693359 120.02246094 C-426.51399547 118.66588462 -423.42327032 117.30445396 -420.33447266 115.93847656 C-331.4653883 76.64147847 -239.82685926 41.65004686 0 0 Z M-271.93786621 83.29156494 C-273.92832183 83.97537535 -275.91967264 84.65652414 -277.91113281 85.33740234 C-334.89977496 104.86975561 -390.29852869 128.85200815 -445 154 C-445.62374512 154.28641357 -446.24749023 154.57282715 -446.89013672 154.86791992 C-476.1993932 168.33004473 -505.21988978 182.44153072 -534 197 C-534 197.33 -534 197.66 -534 198 C-517.3478427 200.15520177 -507.23024629 195.35393065 -493.13623047 186.85107422 C-488.03163956 183.83822911 -482.77323156 181.14083278 -477.5 178.4375 C-475.85656616 177.58925659 -475.85656616 177.58925659 -474.17993164 176.72387695 C-470.45762976 174.80730745 -466.7302594 172.90102094 -463 171 C-462.26422729 170.6249231 -461.52845459 170.24984619 -460.77038574 169.86340332 C-438.06446583 158.29999478 -415.23499859 147.13287142 -391.92016602 136.84777832 C-390.0230779 136.01018919 -388.12757847 135.16909748 -386.23242188 134.32714844 C-317.61172836 103.88027815 -246.3124888 78.44652791 -173 62 C-172.34100708 61.85195923 -171.68201416 61.70391846 -171.00305176 61.5513916 C-114.86160778 49.01152221 -37.86283302 34.32390165 14 67 C16.74032445 68.91429363 19.4001337 70.89924843 22 73 C21.671875 74.890625 21.671875 74.890625 21 77 C17.36859315 79.31089527 14.28840992 80.94135828 10 80 C8.4263176 78.63158052 6.85843005 77.25593271 5.3203125 75.84765625 C-13.38175758 60.95526711 -40.75918333 56.58999866 -64 56 C-65.20317871 55.9693042 -65.20317871 55.9693042 -66.43066406 55.93798828 C-134.71379287 54.46205784 -202.56108228 72.18379097 -266.94903564 93.32873535 C-270.04458811 94.34188555 -273.14575111 95.33755876 -276.24609375 96.3359375 C-336.0494365 115.7524945 -394.32698474 141.36398034 -450.39453125 169.68359375 C-453.62924895 171.31639907 -456.87310878 172.9300911 -460.12077332 174.5369873 C-474.60052833 181.70179326 -488.99362863 188.93400023 -503 197 C-503 197.33 -503 197.66 -503 198 C-502.24750977 198.01482422 -501.49501953 198.02964844 -500.71972656 198.04492188 C-498 199 -498 199 -496.16308594 202.12695312 C-495.58369344 203.50354279 -495.02537322 204.88912368 -494.484375 206.28125 C-494.18307678 207.00993286 -493.88177856 207.73861572 -493.5713501 208.48937988 C-492.61237722 210.8191782 -491.68072089 213.15879032 -490.75 215.5 C-489.79924227 217.83851864 -488.84313392 220.17478575 -487.88580322 222.51062012 C-487.29194469 223.96533024 -486.70306848 225.42208579 -486.11956787 226.88098145 C-484.96547404 230.18600153 -484.96547404 230.18600153 -483 233 C-481.43827255 233.08685603 -479.87270656 233.10702219 -478.30859375 233.09765625 C-477.36435547 233.09443359 -476.42011719 233.09121094 -475.44726562 233.08789062 C-474.45404297 233.07951172 -473.46082031 233.07113281 -472.4375 233.0625 C-471.44041016 233.05798828 -470.44332031 233.05347656 -469.41601562 233.04882812 C-466.94394862 233.03700005 -464.47201335 233.01967958 -462 233 C-461.73613243 233.82722313 -461.73613243 233.82722313 -461.4669342 234.67115784 C-459.71637257 240.05383934 -457.73023335 245.26612403 -455.49609375 250.46484375 C-455.17214127 251.22422745 -454.84818878 251.98361115 -454.51441956 252.76600647 C-453.83637744 254.35234892 -453.15650489 255.93791018 -452.47485352 257.52270508 C-451.43073074 259.95325776 -450.39575996 262.38757525 -449.36132812 264.82226562 C-448.69846245 266.37002553 -448.03507008 267.91755998 -447.37109375 269.46484375 C-447.06272079 270.19186996 -446.75434784 270.91889618 -446.43663025 271.66795349 C-445.19695738 274.53383339 -444.22901401 276.77098599 -442 279 C-439.72768793 273.71512894 -437.45736453 268.4294084 -435.18847656 263.14306641 C-434.42528145 261.36551788 -433.66164734 259.58815774 -432.89746094 257.81103516 C-427.0873779 244.29830852 -421.36013515 230.75165431 -415.65625 217.19384766 C-414.91050941 215.4218888 -414.16474137 213.64994149 -413.41894531 211.87800598 C-411.61231423 207.58547022 -409.8060528 203.2927791 -408 199 C-406.73757922 199.00195227 -406.73757922 199.00195227 -405.449655 199.00394398 C-355.58864507 199.07991085 -305.72779525 199.10910412 -255.86673146 199.07740569 C-249.88226451 199.07364169 -243.89779739 199.0702692 -237.91333008 199.06713867 C-236.72191096 199.06650885 -235.53049184 199.06587903 -234.30296911 199.06523012 C-215.00181869 199.05596099 -195.70082863 199.07842088 -176.39971178 199.11256976 C-156.60066237 199.14689474 -136.80182399 199.14720803 -117.00276858 199.11582941 C-104.78173449 199.09753642 -92.56131156 199.10589519 -80.34033436 199.14815276 C-71.96432468 199.17457601 -63.58874904 199.1680157 -55.21276294 199.13534261 C-50.37717646 199.1174595 -45.54273912 199.11428726 -40.70722771 199.15022469 C-36.28053862 199.18280312 -31.85593792 199.17399232 -27.42934448 199.13215785 C-25.82761497 199.12434389 -24.22572409 199.13176428 -22.62415742 199.15590347 C-14.08664589 199.49489892 -14.08664589 199.49489892 -6.57250893 196.08564651 C-4.75671189 193.79949208 -3.37211067 191.57174268 -2 189 C-0.97463462 187.43883777 0.05938326 185.88329229 1.10546875 184.3359375 C19.17678247 155.57018431 41.13830018 119.39970879 33.91699219 83.89355469 C30.92781013 70.92013928 23.95802163 60.38573181 12.90625 52.90625 C4.71553832 47.82869142 -3.70961583 44.58394974 -13 42 C-14.04929687 41.70351563 -15.09859375 41.40703125 -16.1796875 41.1015625 C-91.40370016 22.52546157 -183.38883399 53.79467423 -271.93786621 83.29156494 Z M-625 246 C-627.25324159 246.99417008 -627.25324159 246.99417008 -629.625 248.4375 C-630.44226563 248.91058594 -631.25953125 249.38367188 -632.1015625 249.87109375 C-633.04128906 250.42990234 -633.04128906 250.42990234 -634 251 C-632.62136827 257.98360478 -630.53848785 264.42131001 -628.02734375 271.07421875 C-627.63259857 272.13465897 -627.23785339 273.19509918 -626.83114624 274.28767395 C-625.53864899 277.75631902 -624.23803466 281.22186143 -622.9375 284.6875 C-622.02890608 287.12215897 -621.12095534 289.55705807 -620.21362305 291.9921875 C-618.3651504 296.95189308 -616.51409313 301.91062173 -614.66113281 306.86865234 C-611.19934544 316.137665 -607.7701635 325.41863895 -604.34524536 334.70132446 C-602.61315541 339.39518024 -600.8786449 344.08814158 -599.14453125 348.78125 C-598.45522817 350.64713072 -597.7659378 352.51301613 -597.07666016 354.37890625 C-593.90711269 362.95855947 -590.73625461 371.53772835 -587.56552124 380.11694336 C-585.7936296 384.91127664 -584.02181881 389.7056398 -582.25 394.5 C-581.54166706 396.41666681 -580.83333372 398.33333348 -580.125 400.25 C-558.87499998 457.75000005 -558.87499998 457.75000005 -557.81269836 460.62446594 C-557.10370615 462.54291366 -556.3947116 464.46136052 -555.68571472 466.37980652 C-553.92494317 471.144216 -552.16421102 475.90864003 -550.40356445 480.6730957 C-547.09619843 489.62297341 -543.78842789 498.57270104 -540.4793396 507.52194214 C-538.92309036 511.73080068 -537.36705473 515.93973819 -535.81103516 520.14868164 C-535.07204671 522.14741897 -534.33295459 524.14611798 -533.59375 526.14477539 C-526.24375901 546.01778642 -526.24375901 546.01778642 -523 555 C-522.67 555 -522.34 555 -522 555 C-517.3861224 499.45487967 -515.37723784 449.50298725 -542.875 399.5 C-543.36884312 398.6018734 -543.86268623 397.7037468 -544.37149429 396.77840424 C-549.32910899 387.82886074 -554.50106765 379.03220118 -559.91748047 370.35351562 C-569.31752597 355.25343342 -576.9863098 339.1600574 -584.88557434 323.24288559 C-586.44694139 320.09772012 -588.01175368 316.95428998 -589.57751465 313.81130981 C-594.02028712 304.89251153 -598.45931271 295.97186165 -602.890625 287.04736328 C-605.62028488 281.55053376 -608.35569836 276.05660117 -611.09489441 270.56451797 C-612.13376008 268.47872293 -613.17040132 266.39181846 -614.20478821 264.30379868 C-615.63955899 261.40796188 -617.08158473 258.51585179 -618.52539062 255.62451172 C-618.95132507 254.76028595 -619.37725952 253.89606018 -619.81610107 253.00564575 C-620.40436676 251.83313263 -620.40436676 251.83313263 -621.0045166 250.63693237 C-621.34365334 249.95459471 -621.68279007 249.27225704 -622.03220367 248.56924248 C-622.92078923 246.8202158 -622.92078923 246.8202158 -625 246 Z M-278 343 C-278.83112808 344.66558708 -278.83112808 344.66558708 -279.67904663 346.36482239 C-284.94215781 356.91145818 -290.20746752 367.45699389 -295.47484398 378.00150013 C-298.18173546 383.42046616 -300.88789373 388.83979556 -303.59228516 394.26000977 C-306.21000291 399.50643888 -308.82976565 404.75184243 -311.45085526 409.99658775 C-312.44251642 411.98173504 -313.43348259 413.96722969 -314.42368698 415.95310402 C-321.80856178 430.76193083 -329.29358072 445.51646176 -337.29620457 460.0032568 C-348.44699451 480.2433234 -348.44699451 480.2433234 -349 503 C-339.75613632 497.40074336 -331.08141894 491.0835535 -322.35839844 484.71728516 C-319.34247941 482.52122155 -316.31454144 480.34212033 -313.28613281 478.16333008 C-299.31734566 468.10696893 -285.45778147 457.90974093 -271.75 447.5 C-270.88076904 446.84153076 -270.01153809 446.18306152 -269.1159668 445.50463867 C-266.73063565 443.6861925 -264.36127097 441.84954525 -262 440 C-261.35538818 439.50363037 -260.71077637 439.00726074 -260.04663086 438.49584961 C-255.41214702 434.76404734 -252.29573399 430.52676255 -249.0625 425.5625 C-247.92561253 423.85991974 -246.7875386 422.15813129 -245.6484375 420.45703125 C-245.05514648 419.56580566 -244.46185547 418.67458008 -243.85058594 417.75634766 C-240.6885184 413.0466191 -237.43560535 408.4006153 -234.1875 403.75 C-232.8318856 401.80478899 -231.47641817 399.85947556 -230.12109375 397.9140625 C-229.44288574 396.94114258 -228.76467773 395.96822266 -228.06591797 394.96582031 C-225.99073869 391.98670452 -223.91868217 389.00544187 -221.84765625 386.0234375 C-220.48181535 384.05726074 -219.11593048 382.09111453 -217.75 380.125 C-217.09153076 379.17705566 -216.43306152 378.22911133 -215.75463867 377.25244141 C-212.63005741 372.75980866 -209.4942942 368.27594285 -206.328125 363.8125 C-205.76383789 363.0169873 -205.19955078 362.22147461 -204.61816406 361.40185547 C-203.56508254 359.92010558 -202.50985425 358.43987829 -201.45214844 356.96142578 C-199.08449494 354.21754072 -199.08449494 354.21754072 -198 351 C-224.07 351 -250.14 351 -277 351 C-277 348.36 -277 345.72 -277 343 C-277.33 343 -277.66 343 -278 343 Z M-1042 351 C-1042 351.66 -1042 352.32 -1042 353 C-1040.68 352.34 -1039.36 351.68 -1038 351 C-1039.32 351 -1040.64 351 -1042 351 Z M-882 438 C-883.17348475 439.58405122 -884.31231983 441.19378004 -885.4375 442.8125 C-893.07510554 453.38034141 -901.35389971 461.59163124 -912 469 C-910.44347945 474.3537465 -908.0182491 479.00150947 -905.375 483.875 C-904.95476562 484.65875 -904.53453125 485.4425 -904.1015625 486.25 C-903.0718978 488.16892057 -902.03652433 490.08477603 -901 492 C-898.81469029 489.81469029 -898.26723427 488.41413198 -897.22827148 485.5378418 C-896.89129745 484.61315598 -896.55432343 483.68847015 -896.20713806 482.73576355 C-895.84874344 481.73370377 -895.49034882 480.73164398 -895.12109375 479.69921875 C-894.74896255 478.6706929 -894.37683136 477.64216705 -893.99342346 476.58247375 C-893.20653771 474.40369372 -892.42242841 472.22390927 -891.64086914 470.04321289 C-890.44527972 466.70919452 -889.23996371 463.37881705 -888.03320312 460.04882812 C-887.27025034 457.93250175 -886.50786195 455.8159718 -885.74609375 453.69921875 C-885.3856749 452.70323166 -885.02525604 451.70724457 -884.65391541 450.68107605 C-884.32009354 449.74693375 -883.98627167 448.81279144 -883.64233398 447.8503418 C-883.34858383 447.03252731 -883.05483368 446.21471283 -882.75218201 445.37211609 C-881.97841664 442.9319337 -881.4553271 440.51736909 -881 438 C-881.33 438 -881.66 438 -882 438 Z M-1042 544 C-1042.33 571.39 -1042.66 598.78 -1043 627 C-1050.22390625 626.92136719 -1057.4478125 626.84273437 -1064.890625 626.76171875 C-1069.48459554 626.74088286 -1074.07794081 626.72390173 -1078.671875 626.72070312 C-1085.95399764 626.71526875 -1093.23415625 626.6960655 -1100.515625 626.59204102 C-1106.39084569 626.50900238 -1112.26318607 626.4900794 -1118.13890839 626.51441383 C-1120.37315981 626.51263059 -1122.60751788 626.48827445 -1124.84125519 626.44031334 C-1137.65802048 625.76391632 -1137.65802048 625.76391632 -1148.93859863 630.79629517 C-1151.57610227 633.42521157 -1153.75663954 636.26876058 -1155.83492279 639.35161781 C-1157.71459757 642.01103162 -1159.93999061 644.27126232 -1162.1875 646.625 C-1166.1650062 651.00785715 -1169.94035155 655.51937938 -1173.65625 660.125 C-1175.75023509 662.6936217 -1177.88184393 665.22049919 -1180.03686523 667.73754883 C-1185.94023089 674.63904324 -1191.57202419 681.71847386 -1197 689 C-1197.48694336 689.65033203 -1197.97388672 690.30066406 -1198.47558594 690.97070312 C-1222.78783295 723.58132593 -1253.54875842 766.90403109 -1249 810 C-1246.68059344 823.60078048 -1240.94781153 835.3270584 -1230 844 C-1220.89863834 850.15950739 -1211.59820042 854.04917268 -1201 857 C-1199.96230469 857.29648438 -1198.92460938 857.59296875 -1197.85546875 857.8984375 C-1114.74865273 878.59828563 -1010.21564145 840.1293716 -757.66845703 739.72900391 C-753.83814103 737.91966818 -749.99544295 736.13744604 -746.15234375 734.35546875 C-729.66305737 726.69457506 -713.32492869 718.75673181 -697.0625 710.625 C-696.14877625 710.16859131 -695.23505249 709.71218262 -694.29364014 709.24194336 C-682.45624031 703.32257601 -670.70541911 697.25598797 -659.00979614 691.06158447 C-656.30877771 689.63489289 -653.5988686 688.22570989 -650.88671875 686.8203125 C-638.86031051 680.58805835 -626.92297603 674.21240628 -615.05664062 667.68066406 C-612.31463779 666.17300053 -609.57001643 664.67021181 -606.82443237 663.16908264 C-593.44978339 655.85331595 -580.16623197 648.41940369 -567.02587891 640.6875 C-560.10294075 636.61924665 -553.12589947 632.70212746 -546 629 C-546 628.67 -546 628.34 -546 628 C-578.01 627.67 -610.02 627.34 -643 627 C-648.445 609.675 -648.445 609.675 -654 592 C-662.25 592 -670.5 592 -679 592 C-679.33 589.69 -679.66 587.38 -680 585 C-680.41467371 583.38658201 -680.86955626 581.78263682 -681.375 580.1953125 C-681.63796875 579.36515625 -681.9009375 578.535 -682.171875 577.6796875 C-682.44515625 576.83664062 -682.7184375 575.99359375 -683 575.125 C-683.27328125 574.25875 -683.5465625 573.3925 -683.828125 572.5 C-684.85848667 568.44007069 -684.85848667 568.44007069 -687 565 C-688.5348297 564.90680551 -690.07392082 564.882542 -691.61157227 564.88647461 C-692.59251358 564.88655014 -693.5734549 564.88662567 -694.5841217 564.88670349 C-695.6507756 564.89186478 -696.7174295 564.89702606 -697.81640625 564.90234375 C-698.9025975 564.9037587 -699.98878876 564.90517365 -701.1078949 564.90663147 C-704.59279075 564.91224952 -708.07762342 564.92480508 -711.5625 564.9375 C-713.91861887 564.94251267 -716.27473874 564.94707598 -718.63085938 564.95117188 C-724.42059464 564.96222481 -730.21029281 564.97898049 -736 565 C-736.23581284 565.76199203 -736.47162567 566.52398407 -736.71458435 567.30906677 C-738.9332869 574.47649162 -741.15497793 581.64297981 -743.38006496 588.80842495 C-744.52400206 592.49261989 -745.66676424 596.17717084 -746.80688477 599.86254883 C-747.90641135 603.41655838 -749.00896723 606.96961479 -750.11366463 610.52202034 C-750.53540007 611.88010958 -750.95602733 613.23854344 -751.37554741 614.59731865 C-751.96157532 616.49473258 -752.55184764 618.39083406 -753.14233398 620.28686523 C-753.47764633 621.36830307 -753.81295868 622.44974091 -754.15843201 623.56394958 C-755 626 -755 626 -756 627 C-758.90780605 627.09795811 -761.79186546 627.12991996 -764.7000885 627.12025452 C-766.08569439 627.12153615 -766.08569439 627.12153615 -767.49929231 627.12284368 C-770.61942049 627.12450132 -773.73949585 627.1189725 -776.85961914 627.11352539 C-779.0863393 627.11324355 -781.31305956 627.11340118 -783.53977966 627.1139679 C-789.60565077 627.11425601 -795.67150229 627.10835709 -801.73736882 627.10139394 C-808.06884364 627.09516266 -814.40031885 627.09455678 -820.73179626 627.09336853 C-831.3655536 627.09060883 -841.99930315 627.08435331 -852.63305664 627.07543945 C-863.58780888 627.06626604 -874.54255915 627.05918486 -885.49731445 627.05493164 C-886.50951187 627.05453756 -886.50951187 627.05453756 -887.54215772 627.05413551 C-890.92728717 627.05283051 -894.31241664 627.05156679 -897.69754612 627.05032361 C-925.79836911 627.03995014 -953.89918411 627.02225696 -982 627 C-982.50974365 625.97527588 -983.0194873 624.95055176 -983.54467773 623.89477539 C-985.43052128 620.10503292 -987.31898288 616.31660023 -989.20825195 612.52856445 C-990.02667959 610.8866702 -990.84438997 609.24441822 -991.66137695 607.60180664 C-992.83357854 605.24531891 -994.00832579 602.89011585 -995.18359375 600.53515625 C-995.55028671 599.79660904 -995.91697968 599.05806183 -996.29478455 598.2971344 C-997.81816122 594.92680076 -997.81816122 594.92680076 -1000 592 C-1001.34267413 591.91368126 -1002.68974322 591.89293527 -1004.03515625 591.90234375 C-1004.84404297 591.90556641 -1005.65292969 591.90878906 -1006.48632812 591.91210938 C-1007.7615332 591.92467773 -1007.7615332 591.92467773 -1009.0625 591.9375 C-1009.91650391 591.94201172 -1010.77050781 591.94652344 -1011.65039062 591.95117188 C-1013.76695663 591.96299627 -1015.88348685 591.98093231 -1018 592 C-1018.34683838 590.81736572 -1018.34683838 590.81736572 -1018.70068359 589.61083984 C-1020.37675446 584.9529879 -1022.55693337 580.63950687 -1024.7890625 576.2265625 C-1025.25234955 575.3028183 -1025.7156366 574.3790741 -1026.19296265 573.42733765 C-1027.66654837 570.4913182 -1029.14568698 567.55813723 -1030.625 564.625 C-1031.62797246 562.62909128 -1032.63058072 560.6329995 -1033.6328125 558.63671875 C-1036.08432696 553.75568416 -1038.54040069 548.87696511 -1041 544 C-1041.33 544 -1041.66 544 -1042 544 Z M-509 592 C-507.68 595.63 -506.36 599.26 -505 603 C-500.59964093 601.6961899 -497.03959815 599.98726447 -493.1875 597.5 C-492.23230469 596.8915625 -491.27710938 596.283125 -490.29296875 595.65625 C-487.90872123 594.2034417 -487.90872123 594.2034417 -487 592 C-494.26 592 -501.52 592 -509 592 Z " fill="#FEF778" transform="translate(1607,386)"/>
<path d="M0 0 C239.32899023 0 239.32899023 0 283 41 C287.57087525 45.57087525 291.57014382 50.16540898 294.9375 55.6875 C297.72003779 60.06443962 301.04907615 62.39325195 305.35546875 65.1953125 C309.97043199 68.34466703 313.95181781 72.16522038 318 76 C318.78632812 76.73347656 319.57265625 77.46695313 320.3828125 78.22265625 C325.73148342 83.36281966 330.0351056 88.73777305 334 95 C334.64839844 95.99257813 335.29679687 96.98515625 335.96484375 98.0078125 C347.22229539 116.28766679 352.04994282 137.73837542 353 159 C354.76413178 158.19701588 356.51091753 157.35588352 358.25 156.5 C359.22453125 156.0359375 360.1990625 155.571875 361.203125 155.09375 C367.39326693 150.459789 369.50219984 141.264402 372.02734375 134.19140625 C372.40854874 133.13679703 372.78975372 132.08218781 373.18251038 130.99562073 C374.00680517 128.71391382 374.82895159 126.43142986 375.64916992 124.14825439 C377.63921293 118.60945219 379.64236653 113.07539535 381.64513016 107.54118347 C382.34512748 105.60649026 383.04456625 103.67159568 383.74398804 101.73669434 C389.18094622 86.70385512 394.71960034 71.70870267 400.26046753 56.71389771 C407.23744372 37.83181725 414.12055631 18.91847014 421 0 C459.28 0 497.56 0 537 0 C540.99202228 10.26520014 544.96116749 20.47638783 548.62597656 30.85302734 C554.66918162 47.92237427 560.9090793 64.91418891 567.25 81.875 C573.52783117 98.66993403 579.76712393 115.47777288 585.9375 132.3125 C592.28117941 149.61584284 598.6571278 166.90689577 605.0625 184.1875 C605.48229126 185.32007233 605.90208252 186.45264465 606.33459473 187.61953735 C608.01095718 192.14214117 609.68735818 196.66473068 611.3638916 201.18727112 C615.47883909 212.28889948 619.58436754 223.39400032 623.6875 234.5 C624.03289825 235.43484222 624.37829651 236.36968445 624.73416138 237.33285522 C626.46400406 242.01482919 628.19371319 246.69685247 629.92333984 251.37890625 C632.0278781 257.07568428 634.13300104 262.77224613 636.23828125 268.46875 C636.76539703 269.89503975 636.76539703 269.89503975 637.30316162 271.35014343 C639.07654586 276.1485766 640.85000685 280.9469814 642.62353516 285.74536133 C645.82115161 294.39692119 649.01830662 303.04864996 652.21290588 311.70132446 C653.64144738 315.57046806 655.07034518 319.43948002 656.4992981 323.30847168 C657.20393214 325.21653954 657.908422 327.12466065 658.61276245 329.03283691 C662.59578748 339.8227888 666.59534683 350.60627359 670.625 361.37890625 C671.37688895 363.39102547 672.12876097 365.40315102 672.88061523 367.4152832 C674.30874405 371.23682262 675.74119191 375.05670606 677.17602539 378.87573242 C677.81672046 380.58897332 678.45727231 382.30226778 679.09765625 384.015625 C679.54159729 385.19174095 679.54159729 385.19174095 679.99450684 386.39161682 C682 391.77274776 682 391.77274776 682 394 C633.49 394 584.98 394 535 394 C531.04 381.13 531.04 381.13 527 368 C502.745 367.505 502.745 367.505 478 367 C477.34 369.97 476.68 372.94 476 376 C475.47116721 377.9284198 474.91919108 379.85076407 474.3359375 381.76342773 C473.86534912 383.31434364 473.86534912 383.31434364 473.38525391 384.89659119 C472.88517822 386.52365746 472.88517822 386.52365746 472.375 388.18359375 C472.02743652 389.32031021 471.67987305 390.45702667 471.32177734 391.62818909 C470.59068652 394.01464706 469.85774556 396.40053895 469.12304688 398.78588867 C467.99671023 402.44819676 466.8809361 406.1136182 465.765625 409.77929688 C465.05272341 412.10175907 464.33920366 414.42403163 463.625 416.74609375 C463.12492432 418.39441444 463.12492432 418.39441444 462.61474609 420.07603455 C462.30102051 421.08791336 461.98729492 422.09979218 461.6640625 423.14233398 C461.39029785 424.03452133 461.1165332 424.92670868 460.83447266 425.84593201 C460 428 460 428 458 430 C455.02902106 430.19364892 452.1515508 430.260329 449.17965698 430.24050903 C448.2550653 430.24221788 447.33047362 430.24392673 446.377864 430.24568737 C443.26078382 430.24899763 440.14391602 430.23795335 437.02685547 430.22705078 C434.79998784 430.226487 432.57311985 430.22680258 430.34625244 430.22793579 C424.28454843 430.22851159 418.22292294 430.21672057 412.16123724 430.20278788 C405.83244057 430.19031831 399.50364227 430.18911301 393.17483521 430.18673706 C382.54704259 430.18121933 371.91928112 430.16871155 361.29150391 430.15087891 C350.34358871 430.13252816 339.39568137 430.11836772 328.44775391 430.10986328 C327.77321835 430.10933783 327.0986828 430.10881239 326.40370677 430.10827102 C323.01984799 430.10566099 319.63598915 430.10313356 316.25213027 430.10064721 C288.16806672 430.079905 260.08403515 430.0445226 232 430 C230.4282537 427.02549497 228.85850109 424.04994196 227.2890625 421.07421875 C226.85086182 420.24498901 226.41266113 419.41575928 225.96118164 418.56140137 C221.85199895 410.76609588 217.91183697 402.89611537 214 395 C208.06 394.67 202.12 394.34 196 394 C192.7977187 387.61840928 189.59735649 381.23586384 186.39999676 374.85180569 C184.91383951 371.8846187 183.42674189 368.91791262 181.93823242 365.9519043 C175.52126225 353.16416832 169.17138289 340.35292664 163.0289917 327.43086243 C158.41765648 317.7420473 153.67139142 308.12217943 148.88061523 298.52099609 C147.40108728 295.55192815 145.93013867 292.57869307 144.45898438 289.60546875 C143.51354013 287.70807448 142.56759715 285.81092863 141.62109375 283.9140625 C140.96650429 282.58636337 140.96650429 282.58636337 140.2986908 281.23184204 C139.69148949 280.02194107 139.69148949 280.02194107 139.07202148 278.78759766 C138.71881332 278.07753571 138.36560516 277.36747375 138.00169373 276.63589478 C137.09133736 274.82514712 137.09133736 274.82514712 135 274 C135 313.6 135 353.2 135 394 C90.45 394 45.9 394 0 394 C0 263.98 0 133.96 0 0 Z M172 153 C172 153.66 172 154.32 172 155 C173.32 154.34 174.64 153.68 176 153 C174.68 153 173.36 153 172 153 Z M332 240 C330.82651525 241.58405122 329.68768017 243.19378004 328.5625 244.8125 C320.92489446 255.38034141 312.64610029 263.59163124 302 271 C303.55652055 276.3537465 305.9817509 281.00150947 308.625 285.875 C309.04523438 286.65875 309.46546875 287.4425 309.8984375 288.25 C310.9281022 290.16892057 311.96347567 292.08477603 313 294 C315.18530971 291.81469029 315.73276573 290.41413198 316.77172852 287.5378418 C317.10870255 286.61315598 317.44567657 285.68847015 317.79286194 284.73576355 C318.15125656 283.73370377 318.50965118 282.73164398 318.87890625 281.69921875 C319.25103745 280.6706929 319.62316864 279.64216705 320.00657654 278.58247375 C320.79346229 276.40369372 321.57757159 274.22390927 322.35913086 272.04321289 C323.55472028 268.70919452 324.76003629 265.37881705 325.96679688 262.04882812 C326.72974966 259.93250175 327.49213805 257.8159718 328.25390625 255.69921875 C328.6143251 254.70323166 328.97474396 253.70724457 329.34608459 252.68107605 C329.67990646 251.74693375 330.01372833 250.81279144 330.35766602 249.8503418 C330.65141617 249.03252731 330.94516632 248.21471283 331.24781799 247.37211609 C332.02158336 244.9319337 332.5446729 242.51736909 333 240 C332.67 240 332.34 240 332 240 Z " fill="#FEF778" transform="translate(393,584)"/>
<path d="M0 0 C3.67480397 1.22493466 3.82485211 2.00892145 5.515625 5.3671875 C6.18464844 6.69556641 6.18464844 6.69556641 6.8671875 8.05078125 C7.32351563 8.98277344 7.77984375 9.91476562 8.25 10.875 C8.95769531 12.26138672 8.95769531 12.26138672 9.6796875 13.67578125 C10.12054687 14.56394531 10.56140625 15.45210937 11.015625 16.3671875 C11.42071289 17.18300293 11.82580078 17.99881836 12.24316406 18.83935547 C13 21 13 21 12 24 C9.33916031 25.99396257 6.38757675 28 3 28 C11.6830723 52.17352511 20.44480699 76.31473573 29.4375 100.375 C35.65243025 117.00341084 41.82805056 133.64502681 47.9375 150.3125 C54.2812724 167.61580895 60.65712766 184.90689539 67.0625 202.1875 C67.48229126 203.32007233 67.90208252 204.45264465 68.33459473 205.61953735 C70.01095718 210.14214117 71.68735818 214.66473068 73.3638916 219.18727112 C77.47883905 230.28889938 81.5844332 241.39397613 85.6875 252.5 C86.02857788 253.42321045 86.36965576 254.3464209 86.72106934 255.29760742 C88.09095036 259.00560743 89.46080543 262.71361702 90.83056641 266.42166138 C93.45085878 273.51465755 96.07287264 280.60701631 98.6953125 287.69921875 C99.85887621 290.84634677 101.02241455 293.99348417 102.1859436 297.140625 C102.92622249 299.14277709 103.6665964 301.14489404 104.40707397 303.14697266 C106.34435216 308.38501939 108.27897997 313.62402792 110.21051025 318.86419678 C110.91255696 320.76344073 111.62064548 322.6604489 112.32958984 324.55712891 C112.68875488 325.52440918 113.04791992 326.49168945 113.41796875 327.48828125 C113.70824951 328.26341064 113.99853027 329.03854004 114.29760742 329.8371582 C115.90186475 334.77706634 116.11832683 339.29996585 116.09765625 344.48828125 C116.0962413 345.19147995 116.09482635 345.89467865 116.09336853 346.6191864 C116.08780109 348.85033544 116.07525475 351.08138164 116.0625 353.3125 C116.05748079 354.83137875 116.05291862 356.35025909 116.04882812 357.86914062 C116.03784236 361.57946012 116.02060034 365.28972001 116 369 C119.96 369 123.92 369 128 369 C132 377.75 132 377.75 132 380 C134.62731026 378.54570298 137.25186001 377.08678399 139.875 375.625 C140.62136719 375.2125 141.36773438 374.8 142.13671875 374.375 C142.85214844 373.97539063 143.56757812 373.57578125 144.3046875 373.1640625 C144.96452637 372.79748535 145.62436523 372.4309082 146.30419922 372.05322266 C148.16519428 370.98654727 148.16519428 370.98654727 150 369 C151.83906746 368.75390434 151.83906746 368.75390434 154.11282349 368.75949097 C154.97381653 368.75674164 155.83480957 368.75399231 156.72189331 368.75115967 C157.66847809 368.75835022 158.61506287 368.76554077 159.59033203 368.77294922 C160.58548828 368.77265717 161.58064453 368.77236511 162.60595703 368.77206421 C165.90666316 368.7734614 169.20714563 368.78904096 172.5078125 368.8046875 C174.791818 368.80841624 177.0758251 368.81126387 179.35983276 368.81326294 C185.3801513 368.8209103 191.40037379 368.84056826 197.4206543 368.8626709 C203.5603709 368.8831056 209.70010297 368.89225957 215.83984375 368.90234375 C227.89327143 368.92381311 239.94662774 368.95796233 252 369 C251.9345527 368.39391088 251.8691054 367.78782177 251.80167484 367.16336632 C249.65756831 346.93279481 248.33140565 326.70043735 247.5625 306.375 C247.53179696 305.58596377 247.50109392 304.79692755 247.46946049 303.98398113 C245.20879802 244.16433172 259.15041108 198.56040996 287.375 146.125 C287.79720526 145.33836188 288.21941052 144.55172377 288.65440989 143.74124813 C297.51014583 127.25602347 306.64485788 110.9373425 316.25537109 94.87939453 C316.91206063 93.77952902 317.56875017 92.67966351 318.24533939 91.54646873 C318.845516 90.5572574 319.44569262 89.56804607 320.0640564 88.54885864 C320.58579123 87.68835466 321.10752605 86.82785069 321.64507103 85.94127083 C323 84 323 84 325 83 C325 85.97 325 88.94 325 92 C370.87 92 416.74 92 464 92 C458.39575646 102.08763838 458.39575646 102.08763838 455.3125 106.1875 C451.5771329 111.21067938 447.93322065 116.28988282 444.32543945 121.4050293 C442.65445103 123.75867965 441.04522713 125.95477287 439 128 C436.47023465 128.1878075 434.05092595 128.25191906 431.52099609 128.22705078 C430.75017197 128.22734283 429.97934784 128.22763489 429.18516541 128.22793579 C426.63114255 128.22653974 424.07740954 128.21096579 421.5234375 128.1953125 C419.75509806 128.19158334 417.98675655 128.18873591 416.21841431 128.18673706 C411.55930905 128.17909293 406.90032806 128.15943778 402.24127197 128.1373291 C397.48899008 128.11688744 392.73668816 128.10773894 387.984375 128.09765625 C378.65619534 128.07619259 369.32810799 128.04204728 360 128 C359.67 126.02 359.34 124.04 359 122 C358.45844269 123.08533524 357.91688538 124.17067047 357.35891724 125.28889465 C352.21353703 135.60007295 347.06595557 145.91014978 341.91630745 156.21919727 C339.26994968 161.5170948 336.62432473 166.81535543 333.98046875 172.11450195 C331.4211073 177.24422249 328.859698 182.37291595 326.29696274 187.50095177 C325.32762998 189.44144153 324.35899192 191.3822785 323.3911171 193.32349586 C316.06429041 208.01682751 308.61246134 222.64006888 300.70331478 237.03023529 C289.64056798 256.7961965 289.64056798 256.7961965 289 279 C289.45624756 278.6690332 289.91249512 278.33806641 290.38256836 277.99707031 C298.72225898 271.9511327 307.07414112 265.92544176 315.5 260 C329.84068657 249.89863475 343.96835628 239.56942227 357.89453125 228.90234375 C364.88843949 223.54657661 371.94209486 218.27096735 379 213 C379 216.72630712 377.98347776 217.8142245 375.8515625 220.83203125 C375.18060547 221.78972412 374.50964844 222.74741699 373.81835938 223.73413086 C373.09455078 224.74999268 372.37074219 225.76585449 371.625 226.8125 C370.14826301 228.89310533 368.67170023 230.97383432 367.1953125 233.0546875 C366.47375977 234.06885742 365.75220703 235.08302734 365.00878906 236.12792969 C363.28027844 238.59927133 361.61806689 241.09344113 359.9921875 243.6328125 C359.34709229 244.61544067 359.34709229 244.61544067 358.68896484 245.61791992 C357.57875165 247.31697925 356.49157854 249.03103168 355.40625 250.74609375 C352.72888063 253.25395434 352.20331655 253.3300497 348.71875 253.34765625 C347.4915625 253.23292969 346.264375 253.11820313 345 253 C345.11311523 254.11991333 345.11311523 254.11991333 345.22851562 255.26245117 C345.72629673 263.92507313 343.71322077 268.52999338 338.5 275.3125 C337.59894531 276.57416992 337.59894531 276.57416992 336.6796875 277.86132812 C330.07272006 286.86507843 322.1083255 292.84194769 312.8125 298.875 C310.20982786 300.57878086 307.61320805 302.28328027 305.04872131 304.04415894 C302 306 302 306 298.66221619 307.61550903 C292.17452579 311.05021932 292.17452579 311.05021932 288.26291847 317.00579453 C287.08493458 323.04948618 287.38688141 329.18812333 287.546875 335.3125 C287.55122775 337.29263897 287.54969198 339.27279884 287.5425415 341.25292969 C287.5388521 346.44245774 287.61181291 351.62807751 287.7020874 356.81671143 C287.78184689 362.11589092 287.79363932 367.41514976 287.80859375 372.71484375 C287.82692471 378.65972144 287.85183699 384.60369087 287.93231201 390.5480957 C287.94334457 391.4470607 287.95437714 392.3460257 287.96574402 393.27223206 C287.98742074 394.95738093 288.01312658 396.64248433 288.04347229 398.32749939 C288.06654988 400.21824762 288.03889301 402.10951097 288 404 C287 405 287 405 284.7373724 405.12304783 C283.22332742 405.12166514 283.22332742 405.12166514 281.67869568 405.12025452 C280.52458191 405.12162918 279.37046814 405.12300385 278.18138123 405.12442017 C276.90392532 405.12082489 275.62646942 405.11722961 274.31030273 405.11352539 C272.96041872 405.11324352 271.61053456 405.11340125 270.26065063 405.1139679 C266.58519392 405.11425587 262.90976957 405.10835916 259.2343204 405.10139394 C255.39726851 405.09516038 251.56021596 405.0945566 247.72315979 405.09336853 C240.45228782 405.09025522 233.18143081 405.08204183 225.91056544 405.07201904 C217.63500648 405.0608579 209.35944682 405.05534745 201.08388221 405.05032361 C184.05591281 405.03985922 167.02795798 405.02225978 150 405 C150 404.01 150 403.02 150 402 C149.32235596 402.39155273 148.64471191 402.78310547 147.9465332 403.18652344 C132.98604551 411.82907142 118.01734002 420.45647673 103 429 C101.67814697 429.75265137 101.67814697 429.75265137 100.32958984 430.52050781 C72.81077765 446.17648736 45.03074326 461.28374413 17 476 C15.94119629 476.5563916 14.88239258 477.1127832 13.79150391 477.68603516 C8.22431869 480.6089716 2.64847514 483.51474083 -2.93408203 486.40820312 C-5.70089354 487.84470663 -8.46455321 489.28712608 -11.22756958 490.73091125 C-44.37994607 508.03834999 -77.95557253 524.62719419 -112.00756836 540.09362793 C-114.23219254 541.10562612 -116.45505101 542.12144169 -118.67773438 543.13769531 C-201.92691025 581.18692868 -287.14496588 616.09722856 -559 676 C-559.72687012 676.02336426 -560.45374023 676.04672852 -561.20263672 676.07080078 C-595.52632058 677.00397839 -634.2336483 673.80142533 -661.375 650.625 C-674.13378505 638.50725602 -679.8285444 622.90223694 -680.3125 605.5 C-679.59710333 570.78443537 -663.34036483 538.68998165 -645 510 C-644.57509277 509.33355469 -644.15018555 508.66710938 -643.71240234 507.98046875 C-631.34106308 488.71981849 -617.48232148 470.47124779 -602.61328125 453.08203125 C-600.20918687 450.26364971 -597.88232006 447.38828047 -595.5625 444.5 C-591.69609833 439.7450895 -587.61471132 435.23338355 -583.42407227 430.765625 C-580.75237957 427.91581946 -578.13759983 425.03000893 -575.57421875 422.08203125 C-572.10874632 418.10204902 -568.54482472 414.22632405 -564.9375 410.375 C-563.98109619 409.33533081 -563.98109619 409.33533081 -563.00537109 408.2746582 C-559.26327087 404.24594273 -555.45274973 400.5340833 -551.16674805 397.08520508 C-540.24066217 386.92994195 -542.9199491 386.47903296 -542 369 C-509 369 -476 369 -442 369 C-442 329.4 -442 289.8 -442 249 C-439 250 -439 250 -437.43785095 252.51629639 C-436.60417747 254.19577362 -436.60417747 254.19577362 -435.75366211 255.90917969 C-435.44432236 256.52552277 -435.1349826 257.14186584 -434.81626892 257.77688599 C-433.79362655 259.82055282 -432.78544555 261.87100163 -431.77734375 263.921875 C-431.06979094 265.34376985 -430.36141046 266.76525312 -429.65223694 268.18634033 C-427.78468731 271.93487354 -425.92956813 275.68943338 -424.07659912 279.44519043 C-422.5656884 282.50230937 -421.04593237 285.5549862 -419.52567196 288.60746384 C-417.71062168 292.25239232 -415.89972687 295.89937854 -414.08984375 299.546875 C-413.74538649 300.2407003 -413.40092922 300.9345256 -413.04603386 301.64937592 C-412.06744743 303.62290823 -411.09169925 305.59781563 -410.11694336 307.57324219 C-409.28446327 309.25749298 -409.28446327 309.25749298 -408.43516541 310.97576904 C-407.96156082 311.97376526 -407.48795624 312.97176147 -407 314 C-406.61072327 314.78524048 -406.22144653 315.57048096 -405.82037354 316.3795166 C-404.67741856 320.03040783 -404.72963644 323.56837641 -404.75708008 327.35449219 C-404.75518173 328.18266953 -404.75328339 329.01084686 -404.75132751 329.86412048 C-404.7476332 332.59180268 -404.75830183 335.31921662 -404.76953125 338.046875 C-404.77072356 339.94305388 -404.77117611 341.83923336 -404.7709198 343.7354126 C-404.77248215 347.7030407 -404.78075534 351.67057826 -404.79418945 355.63818359 C-404.8112253 360.73516638 -404.81500235 365.83205014 -404.81424427 370.92905807 C-404.81451548 374.84083001 -404.81998808 378.7525801 -404.82724571 382.66434479 C-404.83043665 384.54470911 -404.83240078 386.42507592 -404.83313942 388.30544281 C-404.83529587 390.92470061 -404.84402355 393.54385103 -404.85473633 396.16308594 C-404.85405655 397.33812935 -404.85405655 397.33812935 -404.85336304 398.53691101 C-404.8855216 403.8855216 -404.8855216 403.8855216 -406 405 C-409.10839087 405.06145223 -412.19467534 405.05852014 -415.30224609 405.01489258 C-417.32904628 404.9954489 -419.3558512 404.97649557 -421.38265991 404.95796204 C-422.46401592 404.9468017 -423.54537193 404.93564137 -424.65949631 404.92414284 C-431.57603002 404.86325903 -438.49288316 404.86284068 -445.40964317 404.85153675 C-451.48911614 404.83812607 -457.56702116 404.80344601 -463.64599609 404.72241211 C-469.52222421 404.64526485 -475.39605841 404.62712559 -481.27272415 404.6482296 C-483.50779243 404.64578091 -485.74294593 404.62220042 -487.97755051 404.57660866 C-500.55628775 403.84451795 -500.55628775 403.84451795 -511.70928955 408.56698608 C-514.5704562 411.41803038 -516.75772843 414.64531935 -519 418 C-520.6477594 419.92096589 -522.37569551 421.73056333 -524.125 423.5625 C-528.12492525 427.96556733 -531.92151872 432.49603729 -535.65625 437.125 C-537.75023509 439.6936217 -539.88184393 442.22049919 -542.03686523 444.73754883 C-547.94023089 451.63904324 -553.57202419 458.71847386 -559 466 C-559.48694336 466.65033203 -559.97388672 467.30066406 -560.47558594 467.97070312 C-584.78783295 500.58132593 -615.54875842 543.90403109 -611 587 C-608.80709973 599.85895957 -603.55255286 611.86377409 -593 620 C-583.86295837 626.11887046 -574.61106788 630.04559003 -564 633 C-562.96230469 633.29648438 -561.92460938 633.59296875 -560.85546875 633.8984375 C-477.74865273 654.59828563 -373.21564145 616.1293716 -120.66845703 515.72900391 C-116.83814103 513.91966818 -112.99544295 512.13744604 -109.15234375 510.35546875 C-92.66305737 502.69457506 -76.32492869 494.75673181 -60.0625 486.625 C-59.14877625 486.16859131 -58.23505249 485.71218262 -57.29364014 485.24194336 C-45.45624031 479.32257601 -33.70541911 473.25598797 -22.00979614 467.06158447 C-19.30877771 465.63489289 -16.5988686 464.22570989 -13.88671875 462.8203125 C-1.86031051 456.58805835 10.07702397 450.21240628 21.94335938 443.68066406 C24.68535224 442.173006 27.42996396 440.67022331 30.17553711 439.1690979 C43.5484233 431.85430604 56.84864969 424.44570771 69.97412109 416.69189453 C76.25506378 412.98509021 82.58772132 409.49760655 89 406 C57.65 405.67 26.3 405.34 -6 405 C-8.58792062 398.09887835 -10.93935577 391.20024648 -13.1875 384.1875 C-13.73954102 382.49077148 -13.73954102 382.49077148 -14.30273438 380.75976562 C-14.82383789 379.13651367 -14.82383789 379.13651367 -15.35546875 377.48046875 C-15.67153076 376.49973389 -15.98759277 375.51899902 -16.31323242 374.50854492 C-17 372 -17 372 -17 369 C23.26 369 63.52 369 105 369 C101.37 359.43 97.74 349.86 94 340 C91.28104604 332.69122897 88.56955408 325.38022425 85.875 318.0625 C85.15053099 316.09825552 84.4259175 314.13406431 83.70117188 312.16992188 C82.20745934 308.12145852 80.714345 304.07277535 79.22167969 300.02392578 C76.00494851 291.30005937 72.78052184 282.57903794 69.55645752 273.85787964 C67.78730248 269.07204388 66.01867891 264.28601173 64.25 259.5 C63.5416692 257.5833324 62.83333586 255.66666573 62.125 253.75 C43.70833333 203.91666667 25.29166667 154.08333333 6.875 104.25 C6.3491758 102.82718468 6.3491758 102.82718468 5.81272888 101.37562561 C5.10362716 99.45687559 4.3945309 97.53812355 3.68544006 95.61936951 C1.92640753 90.85956171 0.16728352 86.09978776 -1.59204102 81.34008789 C-4.92043046 72.33511467 -8.24782639 63.32977744 -11.57223511 54.32333374 C-13.14742718 50.05600683 -14.72310817 45.78886053 -16.29882812 41.52172852 C-17.05184023 39.48210547 -17.80461117 37.44239338 -18.55712891 35.40258789 C-19.59867867 32.579366 -20.6410492 29.75644841 -21.68359375 26.93359375 C-21.99111069 26.09936386 -22.29862762 25.26513397 -22.61546326 24.40562439 C-23.04448692 23.24469017 -23.04448692 23.24469017 -23.48217773 22.06030273 C-23.74481415 21.34905243 -24.00745056 20.63780212 -24.27804565 19.90499878 C-24.88649712 18.29949656 -25.54171253 16.7118306 -26.20727539 15.12915039 C-27 13 -27 13 -27 10 C-26.3915625 10.03222656 -25.783125 10.06445312 -25.15625 10.09765625 C-17.24449622 9.99294186 -11.94654522 7.14892996 -5.39648438 3.06274414 C-3.63577029 1.97741682 -1.82071524 0.98134881 0 0 Z " fill="#1C3456" transform="translate(970,609)"/>
<path d="M0 0 C172.52154735 0 172.52154735 0 193.625 7.75 C194.60388184 8.09506592 195.58276367 8.44013184 196.59130859 8.7956543 C223.78089935 18.63707971 243.73070094 34.89639299 256.25 61.5625 C266.92721445 88.13884525 266.73126799 121.82094751 255.66015625 148.28515625 C245.25431675 171.96381286 228.03089316 187.89518175 205 199 C205.5827414 204.11136572 207.99385252 208.10666651 210.4140625 212.546875 C211.33078952 214.25790839 212.24644564 215.9695159 213.16113281 217.68164062 C213.63264771 218.56150635 214.1041626 219.44137207 214.58996582 220.34790039 C216.82241829 224.54686691 218.98730499 228.77962323 221.1484375 233.015625 C221.57346558 233.84727173 221.99849365 234.67891846 222.43640137 235.5357666 C223.30536367 237.23653514 224.17393199 238.93750502 225.04211426 240.63867188 C231.50983472 253.30993079 237.99229837 265.97200273 244.59838867 278.57177734 C247.48161386 284.07597665 250.34070062 289.5920802 253.18359375 295.1171875 C253.55181747 295.83278336 253.9200412 296.54837921 254.29942322 297.28565979 C256.16707039 300.91636752 258.03295665 304.547972 259.8972168 308.18041992 C262.91731913 314.0593369 265.94050797 319.932874 269.0859375 325.74609375 C269.51559814 326.54096191 269.94525879 327.33583008 270.38793945 328.15478516 C271.13923996 329.53495432 271.89754365 330.91134879 272.66479492 332.28271484 C274.45954279 335.57407065 275 337.12519907 275 341 C245.63 341 216.26 341 186 341 C166.2 301.4 146.4 261.8 126 221 C104.22 220.505 104.22 220.505 82 220 C82 259.93 82 299.86 82 341 C54.94 341 27.88 341 0 341 C0 228.47 0 115.94 0 0 Z M145 126 C145 126.66 145 127.32 145 128 C146.32 127.34 147.64 126.68 149 126 C147.68 126 146.36 126 145 126 Z " fill="#E83B3B" transform="translate(420,611)"/>
<path d="M0 0 C26.07 0 52.14 0 79 0 C81.2275 6.14625 83.455 12.2925 85.75 18.625 C94.16912832 41.80777501 102.73153296 64.93659427 111.31285095 88.0597229 C115.44777664 99.20277421 119.56903332 110.35085698 123.6875 121.5 C124.38402253 123.38525785 125.08055571 125.27051176 125.77709961 127.15576172 C127.15926192 130.89677952 128.54132953 134.63783229 129.92333984 138.37890625 C133.09288731 146.95855947 136.26374539 155.53772835 139.43447876 164.11694336 C141.2063704 168.91127664 142.97818119 173.7056398 144.75 178.5 C145.45833294 180.41666681 146.16666628 182.33333348 146.875 184.25 C168.12499992 241.74999979 168.12499992 241.74999979 169.18730164 244.62446594 C169.89629385 246.54291366 170.6052884 248.46136052 171.31428528 250.37980652 C173.07505683 255.144216 174.83578898 259.90864003 176.59643555 264.6730957 C179.90380157 273.62297341 183.21157211 282.57270104 186.5206604 291.52194214 C188.07690964 295.73080068 189.63294527 299.93973819 191.18896484 304.14868164 C191.92795329 306.14741897 192.66704541 308.14611798 193.40625 310.14477539 C195.34219523 315.37921186 197.27581385 320.61449301 199.20611572 325.85101318 C199.9222287 327.78947876 200.64319298 329.72615048 201.36474609 331.66259766 C201.73293457 332.65694824 202.10112305 333.65129883 202.48046875 334.67578125 C202.78235107 335.48571533 203.0842334 336.29564941 203.39526367 337.13012695 C204 339 204 339 204 341 C174.63 341 145.26 341 115 341 C111.04 327.8 107.08 314.6 103 301 C101.35 295.72 99.7 290.44 98 285 C97.34 282.36 96.68 279.72 96 277 C58.71 277 21.42 277 -17 277 C-18.32 282.28 -19.64 287.56 -21 293 C-22.22548541 296.86091075 -23.47313688 300.68104203 -24.8125 304.5 C-29.02688717 316.54619759 -32.4153267 328.70969153 -36 341 C-65.37 341 -94.74 341 -125 341 C-121.62518141 329.75060471 -121.62518141 329.75060471 -120.01733398 325.40991211 C-119.65451324 324.42570786 -119.2916925 323.4415036 -118.9178772 322.42747498 C-118.53118866 321.38793167 -118.14450012 320.34838837 -117.74609375 319.27734375 C-117.3333017 318.15993301 -116.92050964 317.04252228 -116.49520874 315.89125061 C-115.37787937 312.86808088 -114.25793846 309.84589455 -113.13690567 306.82409668 C-111.95242672 303.62904959 -110.77157876 300.43266149 -109.59057617 297.23632812 C-108.13893559 293.30800106 -106.68711579 289.37974125 -105.23390198 285.45199585 C-101.10876331 274.3020728 -97.00390008 263.14476321 -92.90774536 251.98416138 C-91.80592317 248.98208044 -90.70368363 245.98015304 -89.60131836 242.97827148 C-88.13463319 238.98426085 -86.66808651 234.99019942 -85.20166016 230.99609375 C-81.84495222 221.85381767 -78.48639981 212.71221912 -75.12802124 203.57055664 C-73.25194191 198.46373097 -71.37597661 193.35686341 -69.5 188.25 C-68.75000055 186.20833313 -68.00000055 184.16666647 -67.25 182.125 C-66.87875 181.114375 -66.5075 180.10375 -66.125 179.0625 C-44.75 120.875 -44.75 120.875 -43.62510681 117.81280518 C-42.87473834 115.77012583 -42.12438231 113.7274419 -41.3740387 111.68475342 C-39.50477816 106.59604334 -37.63530485 101.50741164 -35.76538086 96.41894531 C-32.3220574 87.04824923 -28.88057348 77.67689303 -25.44668579 68.30273438 C-23.86559324 63.98692008 -22.28329814 59.67154708 -20.70092773 55.35620117 C-19.96400735 53.34551319 -19.22764265 51.33462142 -18.49194336 49.32348633 C-12.45832382 32.83046064 -6.22928225 16.42265322 0 0 Z " fill="#E83B3B" transform="translate(833,611)"/>
<path d="M0 0 C87.12 0 174.24 0 264 0 C264 48.57956529 264 48.57956529 253.73632812 59.10986328 C250.566406 62.5605856 248.13389982 66.53363688 245.5625 70.4375 C244.47359334 72.0323715 243.38114082 73.62482782 242.28515625 75.21484375 C239.01781375 79.97272325 235.75825709 84.7358958 232.5 89.5 C231.41670168 91.08335729 230.33336834 92.66669062 229.25 94.25 C228.71375 95.03375 228.1775 95.8175 227.625 96.625 C131.75 236.74999999 131.75 236.74999999 130.12280273 239.12817383 C129.04674688 240.70089575 127.97073725 242.27364931 126.89477539 243.84643555 C124.07548804 247.96739295 121.25523996 252.08768854 118.43359375 256.20703125 C117.84835937 257.06167969 117.263125 257.91632813 116.66015625 258.796875 C115.5445695 260.42598581 114.42870216 262.05490453 113.3125 263.68359375 C112.80589844 264.42351562 112.29929687 265.1634375 111.77734375 265.92578125 C111.33640381 266.56942627 110.89546387 267.21307129 110.44116211 267.8762207 C108.61108845 270.5731224 106.8078843 273.28817355 105 276 C185.19 276.495 185.19 276.495 267 277 C267 298.12 267 319.24 267 341 C178.89 341 90.78 341 0 341 C0 297 0 297 11 282 C13.08428891 279.01065898 15.15174507 276.02109268 17.1875 273 C18.28825614 271.37966025 19.389858 269.75989479 20.4921875 268.140625 C21.0603418 267.30595703 21.62849609 266.47128906 22.21386719 265.61132812 C25.38684218 260.97243522 28.59983633 256.36145658 31.8125 251.75 C32.48369873 250.78642578 33.15489746 249.82285156 33.84643555 248.83007812 C35.21464897 246.86640073 36.58305799 244.9028596 37.95166016 242.93945312 C41.30418349 238.12844228 44.65188001 233.31407577 48 228.5 C49.33330948 226.58331674 50.66664283 224.66665009 52 222.75 C52.66 221.80125 53.32 220.8525 54 219.875 C60 211.25 60 211.25 62.0012207 208.37329102 C63.33054229 206.4623608 64.65980689 204.55139093 65.98901367 202.64038086 C69.38325348 197.76061498 72.7785719 192.88160534 76.17578125 188.00390625 C84.86763055 175.52252704 84.86763055 175.52252704 93.5 163 C99.92600068 153.62986421 106.42589496 144.3111888 112.91943359 134.98779297 C116.94757685 129.2031864 120.97213221 123.41608281 124.99658203 117.62890625 C128.33966854 112.82204585 131.68504192 108.01680932 135.03515625 103.21484375 C135.70998047 102.24675781 136.38480469 101.27867187 137.08007812 100.28125 C138.32135162 98.50066457 139.56341302 96.72062784 140.80664062 94.94140625 C147.95454743 84.68334152 154.95549552 74.3319399 162 64 C108.54 63.67 55.08 63.34 0 63 C0 42.21 0 21.42 0 0 Z " fill="#E83C3B" transform="translate(1322,611)"/>
<path d="M0 0 C0.94939453 0.04108887 1.89878906 0.08217773 2.87695312 0.12451172 C33.76259046 1.62843277 66.68823779 6.46837072 89 30 C100.47446864 43.42804745 104.18655901 60.69130587 103 78 C98.60186038 120.74409446 74.31049479 160.77028728 48.46777344 194.08789062 C46.95635564 196.05685673 45.47836332 198.04723204 44.0078125 200.046875 C37.82975618 208.43660534 31.37501463 216.47637763 24.47875977 224.28759766 C22.28434184 226.82873143 20.14942147 229.42069423 18 232 C25.92 232.33 33.84 232.66 42 233 C42.36536434 242.75522789 42.65713621 252.50572648 42.82899475 262.26631927 C42.91159334 266.8016031 43.0230252 271.33186556 43.20703125 275.86425781 C44.11803289 298.90489391 43.7125657 314.81921406 27.85746765 332.85716248 C25.41800288 335.67141157 23.41449428 338.63689734 21.375 341.75 C18.89936729 345.30199475 16.40639574 348.84137398 13.91015625 352.37890625 C6.67466842 362.65043712 -0.37931246 373.02326827 -7.31860352 383.49731445 C-11.52399126 389.83017573 -15.84854684 396.03448349 -20.3125 402.1875 C-24.01095468 407.36533655 -27.4858559 412.69636554 -31 418 C-35.9671283 425.49651466 -41.01420353 432.88691302 -46.296875 440.1640625 C-50.80688786 446.47737471 -55.02567579 452.99811009 -59.29296875 459.4765625 C-60.26943359 460.95382812 -60.26943359 460.95382812 -61.265625 462.4609375 C-61.84086914 463.33540527 -62.41611328 464.20987305 -63.00878906 465.11083984 C-63.66588867 466.0642627 -64.32298828 467.01768555 -65 468 C-65.35845001 468.69228699 -65.71690002 469.38457397 -66.08621216 470.09783936 C-67.53170396 472.56200304 -68.76181836 474.21004775 -71 476 C-75.5769814 477.11332907 -80.02443412 476.93225526 -84.7109375 476.78125 C-86.04754234 476.76631194 -87.38419125 476.75493229 -88.72085571 476.74694824 C-92.22372318 476.71653292 -95.72389805 476.6380761 -99.22570801 476.54931641 C-102.80504937 476.46718692 -106.38482991 476.43087991 -109.96484375 476.390625 C-116.97766238 476.30506058 -123.98870164 476.16869117 -131 476 C-130.22209247 474.57695516 -129.44133969 473.15546548 -128.65942383 471.73461914 C-128.22495438 470.94285782 -127.79048492 470.1510965 -127.34284973 469.33534241 C-125.34850113 465.86698198 -123.04245822 462.66696026 -120.6875 459.4375 C-115.58668489 452.33412465 -110.70121848 445.10485997 -105.875 437.8125 C-100.94482666 430.37032707 -95.92951091 423.03797449 -90.6875 415.8125 C-86.98904532 410.63466345 -83.5141441 405.30363446 -80 400 C-75.02766636 392.4956293 -69.97360246 385.09874934 -64.6875 377.8125 C-60.98904532 372.63466345 -57.5141441 367.30363446 -54 362 C-49.02766636 354.4956293 -43.97360246 347.09874934 -38.6875 339.8125 C-34.98904247 334.63465946 -31.51423791 329.30357714 -28 324 C-23.73133072 317.55979367 -19.45932013 311.14062722 -14.9375 304.875 C-14.23375244 303.85744629 -13.53000488 302.83989258 -12.80493164 301.79150391 C-10.80604844 298.97885703 -8.62319445 296.47284646 -6.28710938 293.93554688 C8.25903983 277.02748746 7.0087047 259.50087871 6.49353027 238.33154297 C6.39914238 233.77213452 6.3921864 229.21258186 6.37695312 224.65234375 C6.33483918 215.76552119 6.1907678 206.88487496 6 198 C1.05 198 -3.9 198 -9 198 C-7.5459375 195.710625 -7.5459375 195.710625 -6.0625 193.375 C-5.42183594 192.36566406 -4.78117187 191.35632813 -4.12109375 190.31640625 C-2.70871412 188.10809997 -1.28422039 185.90749427 0.15234375 183.71484375 C18.60437303 155.54820743 40.09752069 118.90689297 32.91894531 83.88452148 C31.07033017 75.92853936 28.09912565 69.47196718 23 63 C22.49984375 62.35804688 21.9996875 61.71609375 21.484375 61.0546875 C12.77976077 51.25100581 -0.73878326 46.41023226 -13 43 C-14.57394531 42.55527344 -14.57394531 42.55527344 -16.1796875 42.1015625 C-94.28154311 22.8147962 -190.60397507 56.35770148 -264.02490234 81.63720703 C-267.68202578 82.89504236 -271.34933302 84.12063227 -275.01953125 85.33984375 C-310.59711281 97.24591863 -345.53548718 111.20041298 -380 126 C-380.6794165 126.29156982 -381.35883301 126.58313965 -382.05883789 126.88354492 C-403.17409592 135.95522949 -424.1199763 145.40079447 -445 155 C-445.62374512 155.28641357 -446.24749023 155.57282715 -446.89013672 155.86791992 C-463.06572529 163.2975793 -479.12308013 170.95432138 -495.125 178.75 C-495.92222473 179.13828979 -496.71944946 179.52657959 -497.54083252 179.92663574 C-499.10763593 180.69044582 -500.67375429 181.4556628 -502.23916626 182.22232056 C-503.79860912 182.98296414 -505.36130106 183.73698096 -506.92709351 184.48446655 C-510.94590577 186.419231 -514.811048 188.45276684 -518.6171875 190.78076172 C-533.08361593 199.34511656 -546.2610848 199.19506687 -562.75 198.625 C-565.3085053 198.57470598 -567.86710728 198.52910247 -570.42578125 198.48828125 C-576.61934065 198.3794471 -582.80920098 198.21325905 -589 198 C-586.23887971 195.88866674 -583.59004985 194.18120529 -580.46484375 192.65234375 C-579.58328613 192.21736572 -578.70172852 191.7823877 -577.79345703 191.33422852 C-576.85099121 190.87330811 -575.90852539 190.4123877 -574.9375 189.9375 C-567.78286922 186.40237408 -560.6694066 182.81251884 -553.625 179.0625 C-536.12431605 169.77944795 -518.31990742 161.09867574 -500.41748047 152.62109375 C-497.96446679 151.45749818 -495.51293361 150.29111084 -493.06298828 149.12109375 C-472.05396548 139.08833978 -450.92821111 129.37351884 -429.60693359 120.02246094 C-426.51399547 118.66588462 -423.42327032 117.30445396 -420.33447266 115.93847656 C-331.4653883 76.64147847 -239.82685926 41.65004686 0 0 Z " fill="#1C3456" transform="translate(1607,386)"/>
<path d="M0 0 C29.37 0 58.74 0 89 0 C93.29 10.23 97.58 20.46 102 31 C104.38244138 36.622217 106.76504765 42.24404166 109.15982056 47.86096191 C116.15344039 64.26601672 123.09873238 80.69126096 130.0241394 97.12521362 C133.94442856 106.42737637 137.86861316 115.72725661 141.8671875 124.99609375 C142.15706039 125.66861176 142.44693329 126.34112976 142.74559021 127.0340271 C144.05852557 130.07812524 145.37600527 133.12005526 146.70043945 136.15917969 C147.14347412 137.18301758 147.58650879 138.20685547 148.04296875 139.26171875 C148.61567505 140.57595825 148.61567505 140.57595825 149.19995117 141.91674805 C150 144 150 144 150 146 C150.66 146 151.32 146 152 146 C152.56460937 144.20175781 152.56460937 144.20175781 153.140625 142.3671875 C155.32984988 135.81227057 158.05592038 129.48446909 160.75 123.125 C161.32885682 121.75202148 161.90754729 120.37897282 162.48608398 119.00585938 C167.24810705 107.71871379 172.07381576 96.45879335 176.90795898 85.20239258 C181.96280948 73.43106872 186.99483832 61.65012439 192.01339722 49.86328125 C192.86047116 47.8740335 193.70788719 45.88493137 194.55569458 43.89599609 C200.77926572 29.29441458 206.89487283 14.6523052 213 0 C242.37 0 271.74 0 302 0 C296.74671544 11.0902674 291.61160907 21.90050917 285.60857105 32.55112267 C282.68978183 37.74699915 279.79811719 42.95759825 276.91325378 48.17237854 C276.39434576 49.11013107 275.87543774 50.0478836 275.34080523 51.01405287 C264.29524964 71.01233678 253.59875551 91.19959378 243 111.4375 C242.4183041 112.54715402 241.83660819 113.65680803 241.23728514 114.80008793 C200.4345323 192.74632422 178.749181 252.90092491 193 341 C165.28 341 137.56 341 109 341 C109.61230469 333.41773438 110.22460938 325.83546875 110.85546875 318.0234375 C111.48462299 307.47831663 111.90277132 296.93417342 112.1875 286.375 C112.20651289 285.68737029 112.22552577 284.99974057 112.2451148 284.29127359 C113.5709941 234.08773322 102.89356496 195.47064017 79.0625 151.4375 C78.72011779 150.80352767 78.37773559 150.16955534 78.02497816 149.51637173 C70.2809285 135.19708927 62.19252579 121.10667736 53.81111336 107.14995956 C48.51078021 98.28066376 43.67642194 89.21065774 39 80 C38.61230249 79.23920954 38.22460499 78.47841908 37.82515907 77.69457436 C35.0243279 72.19205202 32.25442196 66.67431971 29.4921875 61.15234375 C28.63214489 59.4354839 27.77204646 57.71865201 26.91189575 56.00184631 C25.1342019 52.45236796 23.35809839 48.90209926 21.58300781 45.35131836 C19.30507242 40.79534448 17.0215727 36.2421829 14.73678398 31.68964291 C12.97034732 28.16784001 11.20751049 24.64424473 9.44571304 21.12011909 C8.60410986 19.43809316 7.76120863 17.75671606 6.91698837 16.07600212 C5.74800523 13.74776783 4.58405419 11.41708645 3.42138672 9.08569336 C3.07241837 8.39337616 2.72345001 7.70105896 2.36390686 6.98776245 C0 2.22834093 0 2.22834093 0 0 Z " fill="#E83B3B" transform="translate(1003,611)"/>
<path d="M0 0 C11.88 0 23.76 0 36 0 C36.02254762 15.10724975 36.04097952 30.21449093 36.05181217 45.3217535 C36.05697498 52.33584634 36.06401739 59.349928 36.07543945 66.36401367 C36.08644688 73.12668068 36.09227619 79.88933364 36.09487724 86.65200996 C36.09673203 89.2385228 36.10035367 91.82503497 36.10573006 94.41154289 C36.11293651 98.02038855 36.11399111 101.62918547 36.11352539 105.23803711 C36.11712067 106.3191275 36.12071594 107.4002179 36.12442017 108.5140686 C36.1230455 109.49148514 36.12167084 110.46890167 36.12025452 111.47593689 C36.12163721 112.75769003 36.12163721 112.75769003 36.12304783 114.06533718 C36 116 36 116 35 117 C33.30062478 117.09727893 31.59716808 117.12371508 29.89501095 117.12304783 C28.22521959 117.1260344 28.22521959 117.1260344 26.52169508 117.12908131 C25.28339541 117.12616847 24.04509575 117.12325563 22.76927185 117.12025452 C21.46576422 117.12110894 20.16225659 117.12196337 18.81924874 117.12284368 C15.18439507 117.12509111 11.5495706 117.121064 7.91472065 117.11606562 C4.00127289 117.11176483 0.0878269 117.11320728 -3.82562256 117.1139679 C-10.61149552 117.11449337 -17.3973589 117.11134415 -24.18322945 117.10573006 C-33.99457367 117.09761819 -43.80591324 117.09500016 -53.61726045 117.09374207 C-69.53382405 117.09155105 -85.45038254 117.08488963 -101.36694336 117.07543945 C-116.83243789 117.06626661 -132.29793103 117.05918515 -147.76342773 117.05493164 C-148.7160166 117.05466892 -149.66860547 117.05440619 -150.65006066 117.05413551 C-155.42870875 117.05283051 -160.20735685 117.0515668 -164.98600495 117.05032361 C-204.65734039 117.03994946 -244.32866946 117.02205544 -284 117 C-284 105.12 -284 93.24 -284 81 C-190.28 81 -96.56 81 0 81 C0 54.27 0 27.54 0 0 Z " fill="#1B3356" transform="translate(1615,897)"/>
<path d="M0 0 C1.29461655 0.00222061 2.58923309 0.00444122 3.92308044 0.00672913 C4.99131546 0.00651009 4.99131546 0.00651009 6.08113098 0.00628662 C8.4457143 0.00698581 10.81021979 0.01477846 13.17478943 0.02259827 C14.81003781 0.02446243 16.44528675 0.02588634 18.08053589 0.02688599 C22.39273103 0.03071134 26.7048927 0.04054177 31.01707458 0.05158997 C35.41404263 0.06180371 39.81101607 0.06638353 44.20799255 0.07142639 C52.84147149 0.08216402 61.47492317 0.09924065 70.10838318 0.12025452 C74.39813717 10.62490396 74.39813717 10.62490396 75.77635193 15.47962952 C76.02965271 16.36779358 76.28295349 17.25595764 76.54393005 18.17103577 C76.79207458 19.06177795 77.04021912 19.95252014 77.29588318 20.87025452 C77.55562927 21.77646545 77.81537537 22.68267639 78.08299255 23.61634827 C79.36412016 28.15160619 80.32838503 32.44026559 81.10838318 37.12025452 C64.93838318 37.12025452 48.76838318 37.12025452 32.10838318 37.12025452 C31.44838318 40.09025452 30.78838318 43.06025452 30.10838318 46.12025452 C29.57955039 48.04867431 29.02757426 49.97101859 28.44432068 51.88368225 C28.13059509 52.91762619 27.81686951 53.95157013 27.49363708 55.0168457 C27.1602533 56.10155655 26.82686951 57.1862674 26.48338318 58.30384827 C26.1358197 59.44056473 25.78825623 60.57728119 25.43016052 61.7484436 C24.6990697 64.13490158 23.96612874 66.52079347 23.23143005 68.90614319 C22.10509341 72.56845127 20.98931927 76.23387272 19.87400818 79.89955139 C19.16110659 82.22201359 18.44758684 84.54428615 17.73338318 86.86634827 C17.39999939 87.96522873 17.0666156 89.06410919 16.72312927 90.19628906 C16.25254089 91.71410728 16.25254089 91.71410728 15.77244568 93.2625885 C15.49868103 94.15477585 15.22491638 95.0469632 14.94285583 95.96618652 C14.10838318 98.12025452 14.10838318 98.12025452 12.10838318 100.12025452 C9.13740424 100.31390344 6.25993398 100.38058352 3.28804016 100.36076355 C2.36344848 100.3624724 1.43885679 100.36418125 0.48624718 100.36594188 C-2.630833 100.36925215 -5.7477008 100.35820786 -8.86476135 100.3473053 C-11.09162898 100.34674152 -13.31849697 100.3470571 -15.54536438 100.34819031 C-21.60706839 100.34876611 -27.66869388 100.33697508 -33.73037958 100.32304239 C-40.05917625 100.31057283 -46.38797456 100.30936752 -52.71678162 100.30699158 C-63.34457424 100.30147384 -73.9723357 100.28896607 -84.60011292 100.27113342 C-95.54802811 100.25278268 -106.49593545 100.23862224 -117.44386292 100.2301178 C-118.11839847 100.22959235 -118.79293402 100.2290669 -119.48791005 100.22852553 C-122.87176883 100.22591551 -126.25562767 100.22338808 -129.63948655 100.22090173 C-157.72355011 100.20015952 -185.80758167 100.16477712 -213.89161682 100.12025452 C-215.39858248 97.31143798 -216.89568814 94.49746242 -218.39161682 91.68275452 C-218.8015387 90.91898499 -219.21146057 90.15521545 -219.63380432 89.36830139 C-224.03351664 81.06884407 -227.87409035 72.65749827 -231.89161682 64.12025452 C-162.92161682 64.12025452 -93.95161682 64.12025452 -22.89161682 64.12025452 C-21.90161682 60.16025452 -20.91161682 56.20025452 -19.89161682 52.12025452 C-19.14887976 49.5910004 -18.38122204 47.06881245 -17.57911682 44.55775452 C-17.36964417 43.89775452 -17.16017151 43.23775452 -16.9443512 42.55775452 C-16.49642171 41.14697366 -16.04701454 39.73666121 -15.59620667 38.32679749 C-14.60783888 35.23155562 -13.63072008 32.13279741 -12.65333557 29.03407288 C-12.14769616 27.43174697 -11.64119311 25.82969334 -11.13380432 24.22792053 C-9.88619719 20.2875344 -8.64911448 16.34441046 -7.43458557 12.39369202 C-7.20577698 11.65183655 -6.97696838 10.90998108 -6.7412262 10.14564514 C-6.30889029 8.74150994 -5.87908767 7.33659153 -5.4521637 5.93080139 C-3.67011083 0.15262998 -3.67011083 0.15262998 0 0 Z " fill="#1C3456" transform="translate(838.8916168212891,913.8797454833984)"/>
<path d="M0 0 C7.01797998 4.32266883 13.02608898 9.33654419 19 15 C19.78761719 15.73476563 20.57523438 16.46953125 21.38671875 17.2265625 C26.73412949 22.36516094 31.03619788 27.73949822 35 34 C35.64839844 34.99257813 36.29679688 35.98515625 36.96484375 37.0078125 C48.22229539 55.28766679 53.04994282 76.73837542 54 98 C55.15628906 97.36771484 55.15628906 97.36771484 56.3359375 96.72265625 C57.33882812 96.17480469 58.34171875 95.62695312 59.375 95.0625 C60.37273437 94.51722656 61.37046875 93.97195313 62.3984375 93.41015625 C63.92070346 92.5850241 65.45128783 91.77435609 67 91 C64.52565345 99.87342647 61.35730731 108.48381684 58.1875 117.125 C57.67358335 118.5337649 57.15991029 119.94261868 56.64648438 121.3515625 C53.85712281 128.9945647 51.02713212 136.62150185 48.15881348 144.23521423 C46.58821473 148.40997099 45.05586202 152.59684832 43.54296875 156.79296875 C39.24110269 168.57857045 35.24952983 179.37332013 27 189 C26.53835449 189.54398438 26.07670898 190.08796875 25.60107422 190.6484375 C19.4594357 197.81334473 12.92466832 204.77477049 5 210 C4.34 210 3.68 210 3 210 C3.33845947 210.62455078 3.67691895 211.24910156 4.02563477 211.89257812 C5.55923619 214.75085786 7.06088332 217.62479729 8.5625 220.5 C9.09552734 221.48226562 9.62855469 222.46453125 10.17773438 223.4765625 C13.35572317 229.62750855 14.81792603 233.23958756 13 240 C12.2241764 242.36053869 11.37270761 244.69795051 10.4375 247 C9.98246094 248.134375 9.52742187 249.26875 9.05859375 250.4375 C8.70925781 251.283125 8.35992188 252.12875 8 253 C7.34 253 6.68 253 6 253 C5.52804199 252.08114014 5.05608398 251.16228027 4.56982422 250.21557617 C-3.49826134 234.50960859 -11.56834826 218.80464624 -19.6875 203.125 C-20.49501709 201.5630188 -20.49501709 201.5630188 -21.31884766 199.96948242 C-21.83624512 198.97150635 -22.35364258 197.97353027 -22.88671875 196.9453125 C-23.63381104 195.49946777 -23.63381104 195.49946777 -24.39599609 194.02441406 C-25.56184436 191.82616012 -26.751678 189.6598829 -27.98291016 187.49902344 C-28.31176712 186.91385956 -28.64062408 186.32869568 -28.97944641 185.72579956 C-29.90670252 184.08143857 -30.84715002 182.44453666 -31.78833008 180.80810547 C-33 178 -33 178 -32.82470703 175.75097656 C-31.53442715 173.0115191 -29.45369544 171.69271098 -27.0625 169.875 C-8.98821929 155.51365293 2.80773374 137.77983245 10.3125 116.0625 C10.54291992 115.40862305 10.77333984 114.75474609 11.01074219 114.08105469 C15.45136477 100.42010855 16.51662553 86.50941403 16.44604492 72.24414062 C16.43752712 69.63331213 16.466455 67.0246777 16.49804688 64.4140625 C16.58462905 43.72820851 11.83651767 24.2604793 1.98046875 6.015625 C1.00859352 4.01766636 0.45428024 2.16882181 0 0 Z " fill="#1C3555" transform="translate(692,645)"/>
<path d="M0 0 C9.44625 -0.061875 18.8925 -0.12375 28.625 -0.1875 C33.05413818 -0.22846802 33.05413818 -0.22846802 37.57275391 -0.27026367 C39.95735263 -0.2790393 42.34195592 -0.28668067 44.7265625 -0.29296875 C45.92885498 -0.30831665 47.13114746 -0.32366455 48.36987305 -0.33947754 C60.29149518 -0.34309088 72.02753371 1.04525397 82 8 C82.61230469 8.40734375 83.22460938 8.8146875 83.85546875 9.234375 C92.19130923 15.49085571 96.63790686 25.50987407 98.56640625 35.51171875 C100.57345699 51.65853238 98.53457654 67.55370345 88.3125 80.75 C80.46590622 89.2806558 69.26592802 93.06356333 58 94 C53.50993161 94.13249967 49.0229374 94.11662553 44.53125 94.09765625 C43.39913086 94.09664917 42.26701172 94.09564209 41.10058594 94.09460449 C36.90038022 94.08940065 32.70018901 94.07543951 28.5 94.0625 C19.095 94.041875 9.69 94.02125 0 94 C0 62.98 0 31.96 0 0 Z M63 63 C63 63.66 63 64.32 63 65 C64.32 64.34 65.64 63.68 67 63 C65.68 63 64.36 63 63 63 Z " fill="#FDF678" transform="translate(502,674)"/>
<path d="M0 0 C-0.33376871 2.90378779 -0.59440924 4.5688468 -2.62695312 6.72949219 C-3.33787109 7.24672852 -4.04878906 7.76396484 -4.78125 8.296875 C-5.59722656 8.89306641 -6.41320313 9.48925781 -7.25390625 10.10351562 C-12.27998177 13.57458201 -17.36869298 16.93673635 -22.5 20.25 C-23.66606349 21.00667421 -24.8319139 21.76367689 -25.99755859 22.52099609 C-28.29480113 24.01262635 -30.59349116 25.50198138 -32.89355469 26.98925781 C-35.47714408 28.66156544 -38.05662345 30.33976804 -40.6328125 32.0234375 C-70.79711301 51.70824083 -101.63023042 70.31031461 -133 88 C-134.05783691 88.5990918 -135.11567383 89.19818359 -136.20556641 89.81542969 C-162.85496665 104.90690638 -189.92187684 119.16901648 -217.20050049 133.08203125 C-218.8501265 133.92354586 -220.49907211 134.76639393 -222.14794922 135.609375 C-237.57571724 143.48063124 -253.241609 150.81842316 -269 158 C-269.69929626 158.31924438 -270.39859253 158.63848877 -271.11907959 158.96740723 C-309.49802547 176.48166417 -348.341711 192.60608428 -388 207 C-389.16665192 207.4241217 -389.16665192 207.4241217 -390.35687256 207.85681152 C-473.15324828 237.91919988 -559.74147756 262.15854324 -670 269 C-671.23073242 269.03504639 -671.23073242 269.03504639 -672.48632812 269.07080078 C-717.90919011 270.15446569 -775.93154693 266.60011609 -813 237 C-812.70985788 233.51829452 -812.27243676 232.25771045 -809.6875 229.8125 C-805.15680599 226.75691567 -802.58624606 225.49577827 -797 226 C-794.62742515 227.25146805 -792.52362061 228.51358545 -790.3125 230 C-769.84291165 242.92479014 -745.71608112 249.20254824 -722 253 C-721.07155273 253.15098145 -720.14310547 253.30196289 -719.18652344 253.45751953 C-683.42051972 258.95587533 -645.82846863 257.27192407 -610 253 C-609.29260681 252.9175 -608.58521362 252.835 -607.85638428 252.75 C-513.66650306 241.73580728 -421.29300943 212.39766443 -276.328125 151.52587891 C-273.06741859 150.03091008 -269.79960973 148.55236397 -266.53125 147.07421875 C-249.62287711 139.36059425 -232.98555956 131.09857086 -216.35800552 122.80171585 C-214.53213691 121.8910289 -212.70563274 120.98162798 -210.8789978 120.07247925 C-196.25664561 112.78621271 -181.78627523 105.29142179 -167.495224 97.37446594 C-163.85583276 95.3697484 -160.19815837 93.39933589 -156.54083252 91.42758179 C-144.96290165 85.18492972 -133.60150322 78.59542441 -122.26904297 71.91992188 C-118.81161843 69.88936276 -115.34615736 67.87308228 -111.87890625 65.859375 C-96.39929829 56.85956393 -81.11530919 47.60331666 -66 38 C-65.01676758 37.37834961 -64.03353516 36.75669922 -63.02050781 36.11621094 C-52.93745912 29.7395406 -42.90323851 23.30093352 -33 16.6484375 C-31.98512009 15.96750282 -31.98512009 15.96750282 -30.94973755 15.27281189 C-27.63089705 13.04451129 -24.31721058 10.80910421 -21.01123047 8.56176758 C-19.79665879 7.74283916 -18.58198277 6.92406546 -17.3671875 6.10546875 C-16.30612793 5.38512451 -15.24506836 4.66478027 -14.15185547 3.92260742 C-4.48566623 -1.97369314 -4.48566623 -1.97369314 0 0 Z " fill="#A8DADC" transform="translate(1083,1042)"/>
<path d="M0 0 C2.71183573 2.71183573 3.36941311 5.81288638 4.4609375 9.39453125 C4.6927774 10.13773117 4.92461731 10.88093109 5.16348267 11.64665222 C5.90652344 14.03349179 6.64085366 16.42291148 7.375 18.8125 C7.86141082 20.3797338 8.34838413 21.94679314 8.8359375 23.51367188 C10.23202408 28.00664288 11.61754 32.50282014 13 37 C13.35803711 38.1638623 13.71607422 39.32772461 14.08496094 40.52685547 C14.73206282 42.63073825 15.37903945 44.73465956 16.02587891 46.83862305 C17.84082254 52.72877471 19.67120105 58.61413852 21.5 64.5 C24.03177971 72.64835585 26.55736751 80.79848603 29.0625 88.95507812 C29.93683128 91.79483327 30.81935217 94.63192259 31.703125 97.46875 C32.219116 99.14572076 32.73474796 100.82280204 33.25 102.5 C33.6521875 103.78003906 33.6521875 103.78003906 34.0625 105.0859375 C34.31515625 105.91351562 34.5678125 106.74109375 34.828125 107.59375 C35.0540332 108.32271484 35.27994141 109.05167969 35.51269531 109.80273438 C36 112 36 112 36 117 C12.24 117 -11.52 117 -36 117 C-34.15726253 109.62905012 -32.30027965 102.39939353 -30.0390625 95.16796875 C-29.76661713 94.28828934 -29.49417175 93.40860992 -29.21347046 92.50227356 C-28.64191296 90.65915532 -28.06879092 88.81652155 -27.49414062 86.97436523 C-26.63038212 84.20475754 -25.77181193 81.43358325 -24.9140625 78.66210938 C-22.43708547 70.67892485 -19.93285745 62.7096375 -17.26171875 54.7890625 C-15.41131438 49.29137038 -13.7263451 43.77927765 -12.1875 38.1875 C-9.79687945 29.67428376 -7.27705508 21.20480157 -4.6875 12.75 C-4.33776123 11.60039795 -3.98802246 10.4507959 -3.62768555 9.26635742 C-3.3006665 8.20392822 -2.97364746 7.14149902 -2.63671875 6.046875 C-2.34498779 5.09651367 -2.05325684 4.14615234 -1.75268555 3.16699219 C-1 1 -1 1 0 0 Z " fill="#FEF678" transform="translate(872,707)"/>
<path d="M0 0 C-0.296875 1.859375 -0.296875 1.859375 -1 4 C-4.20365645 6.217916 -6.74476094 7.68619024 -10.5 8.625 C-13.68144825 7.82963794 -15.30525681 6.02164799 -17.6796875 3.84765625 C-36.38175758 -11.04473289 -63.75918333 -15.41000134 -87 -16 C-88.20317871 -16.0306958 -88.20317871 -16.0306958 -89.43066406 -16.06201172 C-157.71379287 -17.53794216 -225.56108228 0.18379097 -289.94903564 21.32873535 C-293.04458811 22.34188555 -296.14575111 23.33755876 -299.24609375 24.3359375 C-359.0494365 43.7524945 -417.32698474 69.36398034 -473.39453125 97.68359375 C-476.62929388 99.31642175 -479.8731723 100.93018779 -483.12094116 102.5369873 C-485.70753697 103.81698839 -488.29262665 105.10001261 -490.87744141 106.38360596 C-492.20562912 107.04278932 -493.5342407 107.70111935 -494.86328125 108.35858154 C-502.80517748 112.29151724 -510.56049187 116.41742028 -518.1875 120.9375 C-524.44714026 124.61270028 -529.60354007 126.46625858 -537 125 C-532.32037285 120.79829222 -526.93488553 118.20669702 -521.375 115.375 C-519.48667333 114.40424052 -517.59866481 113.43286197 -515.7109375 112.4609375 C-514.67146973 111.92734619 -513.63200195 111.39375488 -512.56103516 110.84399414 C-509.17208225 109.09607218 -505.8016995 107.31382594 -502.43127441 105.53050232 C-491.315128 99.65181482 -480.12050376 93.93945784 -468.875 88.3125 C-467.92389343 87.83644318 -466.97278687 87.36038635 -465.99285889 86.86990356 C-449.13561533 78.44725368 -432.13896861 70.42286801 -414.89160156 62.83349609 C-413.00960732 62.00423327 -411.12956131 61.17069828 -409.25 60.3359375 C-340.62219009 29.88704949 -269.31994431 4.44820043 -196 -12 C-195.34100708 -12.14804077 -194.68201416 -12.29608154 -194.00305176 -12.4486084 C-135.53902677 -25.5072543 -50.37606507 -42.04224689 0 0 Z " fill="#A8DADD" transform="translate(1630,459)"/>
<path d="M0 0 C5.65125 -0.0825 11.3025 -0.165 17.125 -0.25 C18.89762207 -0.28641602 20.67024414 -0.32283203 22.49658203 -0.36035156 C23.9169799 -0.37204468 25.33739128 -0.38223503 26.7578125 -0.390625 C27.48282959 -0.41108887 28.20784668 -0.43155273 28.95483398 -0.45263672 C34.13815324 -0.45616639 36.99486135 0.76186686 41 4 C45.40993115 8.86613093 45.20655661 14.05398695 45.25 20.375 C45.270625 21.1175 45.29125 21.86 45.3125 22.625 C45.34700226 27.50706918 44.61692415 30.73097728 42 35 C41 36 41 36 38.4375 36.0625 C37.633125 36.041875 36.82875 36.02125 36 36 C36 36.99 36 37.98 36 39 C32.93386053 40.53306974 29.72919216 40.12141666 26.3671875 40.09765625 C25.36764038 40.09614563 25.36764038 40.09614563 24.34790039 40.09460449 C21.85691611 40.08936955 19.36595634 40.07540829 16.875 40.0625 C8.521875 40.0315625 8.521875 40.0315625 0 40 C0 26.8 0 13.6 0 0 Z " fill="#1C3555" transform="translate(529,701)"/>
<path d="M0 0 C5.14722931 5.00811501 6.93656345 10.41544715 7.625 17.4375 C7.07067251 24.20029533 5.02505073 30.15093723 -0.125 34.75 C-6.0488735 39.17415869 -11.36054219 40.13370942 -18.6875 39.25 C-25.6971831 37.18541962 -29.98920993 32.46780496 -33.83203125 26.4609375 C-35.02337207 23.38194708 -34.98937754 20.66796105 -35 17.375 C-35.01675781 16.18132812 -35.03351563 14.98765625 -35.05078125 13.7578125 C-34.4416654 7.87624225 -31.63733274 3.54834739 -27.6875 -0.75 C-18.68498587 -7.05175989 -8.95494597 -5.83112761 0 0 Z " fill="#A8DADD" transform="translate(1664.6875,330.75)"/>
<path d="M0 0 C6.93 0 13.86 0 21 0 C22.74181429 4.01599318 24.48343516 8.03206925 26.22460938 12.04833984 C26.81402201 13.40776063 27.40353628 14.76713736 27.99316406 16.12646484 C28.27643555 16.77953613 28.55970703 17.43260742 28.8515625 18.10546875 C29.13545837 18.75940613 29.41935425 19.41334351 29.71185303 20.08709717 C30.28587136 21.41319582 30.85735089 22.7403962 31.42633057 24.06866455 C32.83448037 27.35059852 34.27480394 30.60731446 35.80371094 33.83496094 C39.45276065 41.6446569 41.11896943 46.09154444 38.14404297 54.38671875 C37.14369388 56.95974861 36.0591738 59.47768689 34.9375 62 C34.56044922 62.87011719 34.18339844 63.74023438 33.79492188 64.63671875 C32.87240722 66.76200567 31.94069645 68.8827138 31 71 C30.34 71 29.68 71 29 71 C23.03569928 56.89340326 17.07803718 42.78401725 11.12701416 28.67181396 C10.12488583 26.29606701 9.12197121 23.9206545 8.11865234 21.54541016 C6.67892854 18.13625783 5.24487573 14.72474705 3.8125 11.3125 C3.4098291 10.36052734 3.0071582 9.40855469 2.59228516 8.42773438 C2.23827637 7.58146484 1.88426758 6.73519531 1.51953125 5.86328125 C1.22151611 5.15469971 0.92350098 4.44611816 0.61645508 3.71606445 C0 2 0 2 0 0 Z " fill="#1C3454" transform="translate(1124,619)"/>
<path d="M0 0 C3.85432136 1.78950635 5.49773376 3.26334285 7.875 6.75 C9.46868181 11.35396968 9.97077465 15.37995229 8.2734375 19.9609375 C6.20185551 23.95252231 4.22411365 26.47212911 0 28 C-4.62594422 28.70285664 -8.97150736 29.08090194 -13.19921875 26.828125 C-16.56738811 24.08839814 -19.1885895 21.36133145 -20 17 C-19.97113523 11.73698992 -19.43737302 7.17395295 -16 3 C-11.48235483 -1.09411593 -5.75100984 -0.7516004 0 0 Z " fill="#A9DADC" transform="translate(1598,334)"/>
<path d="M0 0 C2.73155155 1.04441677 5.17757092 2.10736847 7.6875 3.625 C12.19499768 5.49603677 16.1799608 5.61815438 21 5 C24.3850877 3.56000293 24.3850877 3.56000293 27 2 C27.66 2.33 28.32 2.66 29 3 C28.57847656 3.6290625 28.15695312 4.258125 27.72265625 4.90625 C23.00561227 12.27593754 21.06397059 17.2340704 22.9375 26 C23.27846663 27.33676982 23.62791274 28.67155622 24 30 C23.29875 29.6390625 22.5975 29.278125 21.875 28.90625 C15.92639783 25.99660763 11.62925473 24.101118 5 25 C1.69898869 26.39924945 1.69898869 26.39924945 -1 28 C-1.66 28 -2.32 28 -3 28 C-1.97058944 24.75339747 -0.87798944 21.75128617 0.625 18.6875 C3.04976114 12.18473148 2.63594088 6.42510589 0 0 Z " fill="#A8DADC" transform="translate(398,1160)"/>
<path d="M0 0 C0.62648438 0.42152344 1.25296875 0.84304688 1.8984375 1.27734375 C2.71570313 1.82519531 3.53296875 2.37304688 4.375 2.9375 C5.18710937 3.48277344 5.99921875 4.02804687 6.8359375 4.58984375 C11.68196804 7.74763621 16.4436063 7.42606562 22 6.5 C22.66 6.335 23.32 6.17 24 6 C24 6.66 24 7.32 24 8 C23.34 8 22.68 8 22 8 C21.731875 8.556875 21.46375 9.11375 21.1875 9.6875 C20 12 20 12 18.4375 14.3125 C15.65979372 19.50560304 15.7607057 24.35432595 17 30 C14.4842729 28.83889519 12.43784718 27.5877546 10.1875 25.9375 C6.03295262 23.41218689 2.62496352 22.53405744 -2.22265625 23.39453125 C-4.16392954 23.87043423 -6.08461657 24.42874529 -8 25 C-7.38511719 24.12988281 -7.38511719 24.12988281 -6.7578125 23.2421875 C-1.26382516 15.27722021 0.34269061 9.63341388 0 0 Z " fill="#A8DADC" transform="translate(407,1106)"/>
<path d="M0 0 C3.26250137 1.89818262 5.38735287 3.29284844 6.6953125 6.9375 C7.3176423 10.43313973 7.20722094 12.50921357 5.8125 15.8125 C2.64448456 19.63596691 1.20643515 20.84433095 -3.875 21.5 C-7.25632262 21.3483145 -8.32708423 20.80969645 -11.4375 19 C-14.2055301 15.7593794 -14.95307689 14.07513109 -15.171875 9.92578125 C-14.82741841 6.06630171 -12.85585578 3.91925251 -10.3125 1.1875 C-6.87570186 -0.57734229 -3.72071524 -0.74271475 0 0 Z " fill="#A8DADD" transform="translate(1555,344)"/>
<path d="M0 0 C0.66 0 1.32 0 2 0 C1.4740625 1.7015625 1.4740625 1.7015625 0.9375 3.4375 C-0.22415908 8.10902899 -0.1616933 12.32556742 1 17 C2.42675173 19.38028291 2.42675173 19.38028291 4 21 C4 21.66 4 22.32 4 23 C3.175 22.835 2.35 22.67 1.5 22.5 C-7.02621025 21.28196996 -11.09759201 21.85990894 -18 27 C-17.88140625 26.09378906 -17.7628125 25.18757813 -17.640625 24.25390625 C-16.80703713 16.37650087 -16.78634764 10.83588238 -21 4 C-19.7625 4.2475 -19.7625 4.2475 -18.5 4.5 C-11.15985481 5.56476066 -11.15985481 5.56476066 -4.125 3.625 C-1.94080167 2.02891081 -1.94080167 2.02891081 0 0 Z " fill="#A8DBDD" transform="translate(476,1130)"/>
</svg>
