<?xml version="1.0" encoding="UTF-8" standalone="no"?>
<svg
   version="1.1"
   width="1440.2107"
   height="985.44037"
   id="svg23"
   sodipodi:docname="rayz.svg"
   xmlns:inkscape="http://www.inkscape.org/namespaces/inkscape"
   xmlns:sodipodi="http://sodipodi.sourceforge.net/DTD/sodipodi-0.dtd"
   xmlns="http://www.w3.org/2000/svg"
   xmlns:svg="http://www.w3.org/2000/svg">
  <defs
     id="defs23" />
  <sodipodi:namedview
     id="namedview23"
     pagecolor="#ffffff"
     bordercolor="#000000"
     borderopacity="0.25"
     inkscape:showpageshadow="2"
     inkscape:pageopacity="0.0"
     inkscape:pagecheckerboard="0"
     inkscape:deskcolor="#d1d1d1">
    <inkscape:page
       x="0"
       y="0"
       width="1440.2107"
       height="985.44037"
       id="page2"
       margin="0"
       bleed="0" />
  </sodipodi:namedview>
  <path
     d="m 1337,60.204651 c 0.9494,0.04109 1.8988,0.08218 2.877,0.124512 30.8856,1.503921 63.8112,6.343859 86.123,29.875488 11.4745,13.428049 15.1866,30.691309 14,47.999999 -4.3981,42.74409 -28.6895,82.77029 -54.5322,116.08789 -1.5114,1.96897 -2.9894,3.95934 -4.46,5.95898 -6.178,8.38974 -12.6328,16.42951 -19.529,24.24073 -2.1945,2.54113 -4.3294,5.13309 -6.4788,7.7124 7.92,0.33 15.84,0.66 24,1 0.3654,9.75523 0.6571,19.50573 0.829,29.26632 0.083,4.53528 0.194,9.06555 0.378,13.59794 0.911,23.04063 0.5056,38.95495 -15.3495,56.9929 -2.4395,2.81425 -4.443,5.77974 -6.4825,8.89284 -2.4756,3.55199 -4.9686,7.09137 -7.4648,10.62891 -7.2355,10.27153 -14.2895,20.64436 -21.2288,31.1184 -4.2054,6.33287 -8.5299,12.53717 -12.9939,18.69019 -3.6985,5.17784 -7.1734,10.50887 -10.6875,15.8125 -4.9661,7.49498 -10.013,14.88335 -15.293,22.16016 -4.5345,6.34836 -8.7844,12.89837 -13.0879,19.40429 -0.6542,0.98807 -1.3084,1.97614 -1.9824,2.99414 -0.5805,0.87971 -1.1609,1.75941 -1.759,2.66578 -2.2324,3.30003 -4.5619,6.53354 -6.8777,9.77563 25.74,0.33 51.48,0.66 78,1 0,11.55 0,23.1 0,35 11.88,0 23.76,0 36,0 0.023,15.10725 0.041,30.21449 0.052,45.32175 0.01,7.0141 0.012,14.02818 0.024,21.04226 0.011,6.76267 0.017,13.52532 0.02,20.288 0,2.58651 0.01,5.17302 0.011,7.75953 0.01,3.60885 0.01,7.21765 0.01,10.8265 0,1.08109 0.01,2.16218 0.011,3.27603 0,1.46612 0,1.46612 0,2.96187 9e-4,0.8545 0,1.709 0,2.5894 -0.123,1.93466 -0.123,1.93466 -1.123,2.93466 -1.6994,0.0973 -3.4028,0.12372 -5.105,0.12305 -1.6698,0.003 -1.6698,0.003 -3.3733,0.006 -1.2383,-0.003 -2.4766,-0.006 -3.7524,-0.009 -1.3035,8.6e-4 -2.607,0.002 -3.9501,0.003 -3.6348,0.002 -7.2696,-0.002 -10.9045,-0.007 -3.9134,-0.004 -7.8269,-0.003 -11.7403,-0.002 -6.7859,5.2e-4 -13.5718,-0.003 -20.3576,-0.008 -9.8114,-0.008 -19.6227,-0.0107 -29.4341,-0.012 -15.9165,-0.002 -31.8331,-0.009 -47.7496,-0.0183 -15.4655,-0.009 -30.931,-0.0163 -46.3965,-0.0205 -0.9526,-2.6e-4 -1.9052,-5.2e-4 -2.8867,-7.9e-4 -4.7786,-10e-4 -9.5573,-0.003 -14.3359,-0.004 -39.6713,-0.0104 -79.3427,-0.0283 -119.014,-0.0503 0,-11.88 0,-23.76 0,-36 -11.55,0 -23.1,0 -35,0 0,-26.07 0,-52.14 0,-79 -7.92,5.28 -15.84,10.56 -24,16 -2.61003,1.39605 -5.22006,2.79211 -7.90918,4.23047 -3.71691,2.62174 -5.3199,4.56878 -6.19104,8.95947 -0.64834,5.37742 -0.49406,10.71916 -0.3529,16.12256 0.004,1.98014 0.003,3.9603 -0.004,5.94043 -0.004,5.18953 0.0693,10.37515 0.15955,15.56378 0.0798,5.29918 0.0915,10.59844 0.1065,15.89813 0.0183,5.94488 0.0433,11.88885 0.12372,17.83326 0.011,0.89896 0.0221,1.79793 0.0334,2.72413 0.0217,1.68515 0.0474,3.37025 0.0777,5.05527 0.0231,1.89075 -0.005,3.78201 -0.0435,5.6725 -1,1 -1,1 -3.26263,1.12305 -1.00936,-9.2e-4 -2.01872,-0.002 -3.05867,-0.003 -1.15412,0.001 -2.30823,0.003 -3.49732,0.004 -1.27745,-0.004 -2.55491,-0.007 -3.87108,-0.0109 -1.34988,-2.9e-4 -2.69977,-1.3e-4 -4.04965,4.4e-4 -3.67546,2.9e-4 -7.35088,-0.006 -11.02633,-0.0126 -3.83705,-0.006 -7.6741,-0.007 -11.51116,-0.008 -7.27087,-0.003 -14.54173,-0.0113 -21.81259,-0.0214 -8.27556,-0.0112 -16.55112,-0.0167 -24.82669,-0.0217 -17.02797,-0.0105 -34.05592,-0.0281 -51.08388,-0.0503 0,-0.99 0,-1.98 0,-3 -0.67764,0.39155 -1.35529,0.78311 -2.05347,1.18652 -14.96073,8.6428 -29.92944,17.27021 -44.94678,25.81373 -0.88124,0.50177 -1.76247,1.00354 -2.67041,1.52051 -27.51881,15.65598 -55.29885,30.76323 -83.32959,45.47949 -1.0588,0.55639 -2.11761,1.11278 -3.2085,1.68604 -5.56718,2.92293 -11.14302,5.8287 -16.72558,8.72216 -2.76681,1.43651 -5.53047,2.87893 -8.29349,4.32271 -33.15238,17.30744 -66.728,33.89628 -100.78,49.36272 -2.22462,1.012 -4.44748,2.02781 -6.67016,3.04407 C 498.07309,864.39158 412.85503,899.30188 141,959.20465 c -0.7269,0.0234 -1.4537,0.0467 -2.2026,0.0708 -34.3237,0.93318 -73.031,-2.26937 -100.1724,-25.4458 -12.7588,-12.11774 -18.4535,-27.72276 -18.9375,-45.125 0.7154,-34.71556 16.9721,-66.81002 35.3125,-95.5 0.4249,-0.66645 0.8498,-1.33289 1.2876,-2.01953 12.3713,-19.26065 26.2301,-37.50922 41.0991,-54.89844 2.4041,-2.81838 4.731,-5.69375 7.0508,-8.58203 3.8664,-4.75491 7.9478,-9.26662 12.1384,-13.73438 2.6717,-2.8498 5.2865,-5.73561 7.8499,-8.68359 3.4655,-3.97998 7.0294,-7.85571 10.6367,-11.70703 0.6376,-0.69311 1.2752,-1.38623 1.9321,-2.10034 3.2106,-3.45648 6.4411,-6.72046 10.0562,-9.75513 6.3999,-5.49458 10.4394,-9.3379 11.2754,-18.0354 0.065,-3.82903 -0.1599,-7.65816 -0.3262,-11.48413 -11.55,0 -23.1,0 -35,0 0,-130.02 0,-260.04 0,-394 239.32899,0 239.32899,0 283,41 4.57088,4.57088 8.57014,9.16541 11.9375,14.6875 2.78254,4.37694 6.11158,6.70575 10.41797,9.50781 4.61496,3.14936 8.59635,6.96991 12.64453,10.80469 0.78633,0.73348 1.57266,1.46695 2.38281,2.22266 5.34867,5.14016 9.6523,10.51511 13.61719,16.77734 0.6484,0.99258 1.2968,1.98516 1.96484,3.00781 11.25746,18.27986 16.0851,39.73057 17.03516,60.99219 1.76413,-0.80298 3.51092,-1.64412 5.25,-2.5 0.97453,-0.46406 1.94906,-0.92813 2.95313,-1.40625 6.19014,-4.63396 8.29907,-13.82935 10.82421,-20.90234 0.38121,-1.05461 0.76241,-2.10922 1.15517,-3.19579 0.8243,-2.28171 1.64644,-4.56419 2.46666,-6.84737 1.99004,-5.5388 3.9932,-11.07285 5.99596,-16.60707 0.7,-1.93469 1.39944,-3.86958 2.09886,-5.80449 5.43696,-15.03283 10.97561,-30.02799 16.51648,-45.02279 6.97697,-18.88208 13.86009,-37.79543 20.73953,-56.7139 38.28,0 76.56,0 116,0 8.05236,20.70608 8.05236,20.70608 10.4375,27.125 0.25459,0.68191 0.50918,1.36383 0.77148,2.06641 0.5981,1.60245 1.19476,3.20545 1.79102,4.80859 10.82419,1.85754 18.22822,-3.45298 27,-9 -1.66087,-5.56665 -4.11072,-10.65786 -6.625,-15.875 -0.42023,-0.87914 -0.84047,-1.75828 -1.27344,-2.66406 -1.03073,-2.15517 -2.06465,-4.30874 -3.10156,-6.46094 0.68142,0.0163 1.36284,0.0327 2.06491,0.0495 6.55562,0.14499 13.10863,0.22284 19.66591,0.2329 3.36923,0.007 6.73152,0.0443 10.10023,0.12555 19.63463,0.45226 33.54477,-2.69333 50.45652,-12.80203 4.02887,-2.38534 8.17956,-4.51922 12.33743,-6.66843 1.51898,-0.80327 3.0373,-1.60779 4.55469,-2.41406 15.92256,-8.38345 32.14151,-16.2019 48.40283,-23.90235 2.45301,-1.16359 4.90455,-2.32998 7.35449,-3.5 21.00902,-10.03275 42.13478,-19.74757 63.45606,-29.09863 3.09293,-1.35658 6.18366,-2.71801 9.27246,-4.08398 C 1005.5346,136.84613 1097.1731,101.8547 1337,60.204651 Z m -271.9379,83.291569 c -1.9904,0.68381 -3.9818,1.36495 -5.9732,2.04583 -56.9887,19.53236 -112.38743,43.51461 -167.0889,68.6626 -0.62375,0.28641 -1.24749,0.57283 -1.89014,0.86792 -29.30925,13.46212 -58.32975,27.57361 -87.10986,42.13208 0,0.33 0,0.66 0,1 16.65216,2.1552 26.76975,-2.64607 40.86377,-11.14893 5.10459,-3.01284 10.363,-5.71024 15.63623,-8.41357 1.64343,-0.84824 1.64343,-0.84824 3.32007,-1.71362 3.7223,-1.91657 7.44967,-3.82286 11.17993,-5.72388 0.73577,-0.37508 1.47155,-0.75015 2.22961,-1.1366 22.70592,-11.56341 45.53539,-22.73053 68.85022,-33.01562 1.89709,-0.83759 3.79259,-1.67868 5.68775,-2.52063 68.62072,-30.44687 139.91992,-55.88062 213.23242,-72.32715 0.659,-0.14804 1.318,-0.29608 1.997,-0.44861 56.1414,-12.53987 133.1402,-27.227487 185.003,5.44861 2.7403,1.91429 5.4001,3.89925 8,6 -0.3281,1.89063 -0.3281,1.89063 -1,4 -3.6314,2.3109 -6.7116,3.94136 -11,3 -1.5737,-1.36842 -3.1416,-2.74407 -4.6797,-4.15234 -18.7021,-14.89239 -46.0795,-19.25766 -69.3203,-19.84766 -1.2032,-0.0307 -1.2032,-0.0307 -2.4307,-0.062 -68.2831,-1.47593 -136.1304,16.2458 -200.5183,37.39075 -3.0956,1.01315 -6.1967,2.00882 -9.2971,3.0072 -59.8033,19.41655 -118.08088,45.02804 -174.14843,73.34765 -3.23472,1.63281 -6.47858,3.2465 -9.72624,4.8534 -14.47976,7.1648 -28.87286,14.39701 -42.87923,22.46301 0,0.33 0,0.66 0,1 0.75249,0.0148 1.50498,0.0297 2.28027,0.0449 2.71973,0.9551 2.71973,0.9551 4.55664,4.08205 0.5794,1.37659 1.13772,2.76217 1.67872,4.1543 0.30129,0.72868 0.60259,1.45737 0.91302,2.20813 0.95897,2.3298 1.89063,4.66941 2.82135,7.01062 0.95076,2.33852 1.90687,4.67479 2.8642,7.01062 0.59386,1.45471 1.18273,2.91147 1.76623,4.37036 1.1541,3.30502 1.1541,3.30502 3.11957,6.11902 1.56173,0.0869 3.12729,0.10702 4.69141,0.0977 0.94423,-0.003 1.88847,-0.006 2.86132,-0.01 0.99323,-0.008 1.98645,-0.0168 3.00977,-0.0254 0.99709,-0.005 1.99418,-0.009 3.02148,-0.0137 2.47207,-0.0118 4.94401,-0.0292 7.41602,-0.0488 0.26387,0.82722 0.26387,0.82722 0.53307,1.67116 1.75056,5.38268 3.7367,10.59496 5.97084,15.79368 0.32395,0.75939 0.6479,1.51877 0.98167,2.30117 0.67804,1.58634 1.35792,3.1719 2.03957,4.7567 1.04412,2.43055 2.07909,4.86487 3.11352,7.29956 0.66287,1.54776 1.32626,3.09529 1.99024,4.64257 0.30837,0.72703 0.61674,1.45406 0.93446,2.20311 1.23967,2.86588 2.20762,5.10304 4.43663,7.33205 2.27231,-5.28487 4.54264,-10.57059 6.81152,-15.85693 0.7632,-1.77755 1.52683,-3.55491 2.29102,-5.33203 5.81008,-13.51273 11.53732,-27.05939 17.24121,-40.61719 0.74574,-1.77196 1.49151,-3.54391 2.2373,-5.31584 1.80664,-4.29254 3.6129,-8.58523 5.41895,-12.87801 1.26242,0.002 1.26242,0.002 2.55035,0.004 49.861,0.076 99.72185,0.10516 149.58295,0.0735 5.9844,-0.004 11.9689,-0.007 17.9534,-0.0103 1.1914,-6.3e-4 2.3828,-10e-4 3.6103,-0.002 19.3012,-0.009 38.6022,0.0132 57.9033,0.0473 19.799,0.0343 39.5979,0.0346 59.3969,0.003 12.2211,-0.0183 24.4415,-0.01 36.6625,0.0323 8.376,0.0264 16.7516,0.0199 25.1275,-0.0128 4.8356,-0.0179 9.6701,-0.0211 14.5056,0.0149 4.4267,0.0326 8.8513,0.0238 13.2779,-0.0181 1.6017,-0.008 3.2036,-4e-4 4.8051,0.0237 8.5376,0.339 8.5376,0.339 16.0517,-3.07025 1.8158,-2.28556 3.2004,-4.51331 4.5725,-7.08505 1.0254,-1.56116 2.0594,-3.11671 3.1055,-4.66406 18.0713,-28.76576 40.0328,-64.93623 32.8115,-100.44238 -2.9892,-12.97342 -9.959,-23.50783 -21.0107,-30.98731 -8.1908,-5.07756 -16.6159,-8.3223 -25.9063,-10.90625 -1.0493,-0.29648 -2.0986,-0.59297 -3.1797,-0.89844 -75.224,-18.576097 -167.2091,12.69311 -255.7582,42.19001 z M 712,306.20465 c -2.25324,0.99417 -2.25324,0.99417 -4.625,2.4375 -0.81727,0.47309 -1.63453,0.94617 -2.47656,1.43359 -0.93973,0.55881 -0.93973,0.55881 -1.89844,1.12891 1.37863,6.9836 3.46151,13.42131 5.97266,20.07422 0.39474,1.06044 0.78949,2.12088 1.19619,3.21345 1.2925,3.46865 2.59312,6.93419 3.89365,10.39983 0.90859,2.43466 1.81654,4.86956 2.72388,7.30469 1.84847,4.9597 3.69953,9.91843 5.55249,14.87646 3.46178,9.26902 6.89097,18.54999 10.31588,27.83267 1.73209,4.69386 3.46661,9.38682 5.20072,14.07993 0.6893,1.86588 1.37859,3.73177 2.06787,5.59766 3.16955,8.57965 6.34041,17.15882 9.51114,25.73803 1.77189,4.79434 3.5437,9.5887 5.31552,14.38306 0.70833,1.91667 1.41667,3.83333 2.125,5.75 21.25,57.5 21.25,57.5 22.3123,60.37447 0.70899,1.91844 1.41799,3.83689 2.12699,5.75534 1.76077,4.76441 3.5215,9.52883 5.28215,14.29329 3.30736,8.94987 6.61513,17.8996 9.92422,26.84884 1.55625,4.20886 3.11229,8.4178 4.6683,12.62674 0.73899,1.99874 1.47809,3.99744 2.21729,5.9961 7.34999,19.87301 7.34999,19.87301 10.59375,28.85522 0.33,0 0.66,0 1,0 4.61388,-55.54512 6.62276,-105.49701 -20.875,-155.5 -0.49384,-0.89813 -0.98769,-1.79625 -1.49649,-2.7216 -4.95762,-8.94954 -10.12958,-17.7462 -15.54599,-26.42488 -9.40005,-15.10009 -17.06883,-31.19346 -24.96809,-47.11063 -1.56137,-3.14517 -3.12618,-6.2886 -4.69194,-9.43158 -4.44278,-8.9188 -8.8818,-17.83945 -13.31311,-26.76395 -2.72966,-5.49683 -5.46508,-10.99076 -8.20427,-16.48284 -1.03887,-2.0858 -2.07551,-4.1727 -3.1099,-6.26072 -1.43477,-2.89584 -2.87679,-5.78795 -4.3206,-8.67929 -0.42594,-0.86422 -0.85187,-1.72845 -1.29071,-2.61886 -0.58827,-1.17252 -0.58827,-1.17252 -1.18842,-2.36872 -0.33913,-0.68234 -0.67827,-1.36467 -1.02768,-2.06769 -0.88859,-1.74902 -0.88859,-1.74902 -2.9678,-2.56924 z m 347,97 c -0.8311,1.66559 -0.8311,1.66559 -1.679,3.36482 -5.2632,10.54664 -10.5285,21.09217 -15.7958,31.63668 -2.7069,5.41897 -5.4131,10.8383 -8.1175,16.25851 -2.6177,5.24643 -5.2375,10.49183 -7.8586,15.73658 -0.9916,1.98515 -1.9826,3.97064 -2.9728,5.95651 -7.3849,14.80883 -14.8699,29.56336 -22.8725,44.05016 -11.15079,20.24006 -11.15079,20.24006 -11.7038,42.99674 9.24386,-5.59926 17.9186,-11.91645 26.6416,-18.28271 3.0159,-2.19607 6.0439,-4.37517 9.0723,-6.55396 13.9688,-10.05636 27.8283,-20.25359 41.5361,-30.66333 0.8692,-0.65847 1.7385,-1.31694 2.634,-1.99536 2.3854,-1.81845 4.7547,-3.65509 7.116,-5.50464 0.6446,-0.49637 1.2892,-0.99274 1.9534,-1.50415 4.6344,-3.7318 7.7509,-7.96909 10.9841,-12.93335 1.1369,-1.70258 2.275,-3.40437 3.4141,-5.10547 0.5933,-0.89122 1.1865,-1.78245 1.7978,-2.70068 3.1621,-4.70973 6.415,-9.35573 9.6631,-14.00635 1.3556,-1.94521 2.7111,-3.89052 4.0664,-5.83594 0.6782,-0.97292 1.3564,-1.94584 2.0552,-2.94824 2.0752,-2.97912 4.1472,-5.96038 6.2182,-8.94238 1.3659,-1.96618 2.7318,-3.93233 4.0977,-5.89844 0.6585,-0.94794 1.3169,-1.89589 1.9954,-2.87256 3.1245,-4.49263 6.2603,-8.9765 9.4265,-13.43994 0.5643,-0.79551 1.1286,-1.59103 1.7099,-2.41064 1.0531,-1.48175 2.1084,-2.96198 3.1661,-4.44043 2.3676,-2.74389 2.3676,-2.74389 3.4521,-5.96143 -26.07,0 -52.14,0 -79,0 0,-2.64 0,-5.28 0,-8 -0.33,0 -0.66,0 -1,0 z m -764,8 c 0,0.66 0,1.32 0,2 1.32,-0.66 2.64,-1.32 4,-2 -1.32,0 -2.64,0 -4,0 z m 160,87 c -1.17348,1.58405 -2.31232,3.19378 -3.4375,4.8125 -7.63761,10.56784 -15.9164,18.77913 -26.5625,26.1875 1.55652,5.35375 3.98175,10.00151 6.625,14.875 0.42023,0.78375 0.84047,1.5675 1.27344,2.375 1.02966,1.91892 2.06504,3.83478 3.10156,5.75 2.18531,-2.18531 2.73277,-3.58587 3.77173,-6.46216 0.33697,-0.92468 0.67395,-1.84937 1.02113,-2.80208 0.3584,-1.00206 0.71679,-2.00412 1.08605,-3.03654 0.37213,-1.02853 0.74426,-2.05705 1.12767,-3.11675 0.78688,-2.17878 1.57099,-4.35856 2.35255,-6.53926 1.19559,-3.33402 2.40091,-6.66439 3.60767,-9.99438 0.76295,-2.11633 1.52534,-4.23286 2.28711,-6.34961 0.36042,-0.99599 0.72083,-1.99198 1.09217,-3.01814 0.33383,-0.93415 0.66765,-1.86829 1.01159,-2.83074 0.29375,-0.81781 0.5875,-1.63563 0.89015,-2.47822 0.77376,-2.44019 1.29685,-4.85475 1.75218,-7.37212 -0.33,0 -0.66,0 -1,0 z m -160,106 c -0.33,27.39 -0.66,54.78 -1,83 -7.2239,-0.0786 -14.4478,-0.15727 -21.8906,-0.23828 -4.594,-0.0208 -9.1873,-0.0378 -13.7813,-0.041 -7.2821,-0.005 -14.5623,-0.0246 -21.8437,-0.12866 -5.8752,-0.083 -11.7476,-0.10196 -17.6233,-0.0776 -2.2343,-0.002 -4.4686,-0.0261 -6.7024,-0.0741 -12.8167,-0.67639 -12.8167,-0.67639 -24.0973,4.35599 -2.6375,2.62891 -4.818,5.47246 -6.8963,8.55532 -1.8797,2.65941 -4.1051,4.91964 -6.3526,7.27338 -3.9775,4.38286 -7.7529,8.89438 -11.4688,13.5 -2.0939,2.56862 -4.2255,5.0955 -6.3806,7.61255 -5.9033,6.90149 -11.5351,13.98092 -16.9631,21.26245 -0.4869,0.65033 -0.9739,1.30066 -1.4756,1.9707 C 114.2122,783.78603 83.4512,827.10873 88,870.2047 c 2.3194,13.60078 8.0522,25.32706 19,34 9.1014,6.15951 18.4018,10.04917 29,13 1.0377,0.29648 2.0754,0.59297 3.1445,0.89844 83.1068,20.69985 187.6399,-17.76907 440.18704,-118.16944 3.83032,-1.80933 7.67302,-3.59155 11.51612,-5.37353 16.48928,-7.66089 32.82741,-15.59874 49.08984,-23.73047 0.91372,-0.45641 1.82745,-0.91282 2.76886,-1.38306 11.8374,-5.91936 23.58822,-11.98595 35.28384,-18.18036 2.70102,-1.42669 5.41093,-2.83587 8.12308,-4.24127 12.02641,-6.23225 23.96374,-12.6079 35.83008,-19.13965 2.742,-1.50766 5.48662,-3.01045 8.23221,-4.51158 13.37465,-7.31576 26.6582,-14.74968 39.79855,-22.48158 6.92294,-4.06825 13.89998,-7.98537 21.02588,-11.6875 0,-0.33 0,-0.66 0,-1 -32.01,-0.33 -64.02,-0.66 -97,-1 -5.445,-17.325 -5.445,-17.325 -11,-35 -8.25,0 -16.5,0 -25,0 -0.33,-2.31 -0.66,-4.62 -1,-7 -0.41467,-1.61342 -0.86956,-3.21736 -1.375,-4.80469 -0.26297,-0.83015 -0.52594,-1.66031 -0.79687,-2.51562 -0.27329,-0.84305 -0.54657,-1.6861 -0.82813,-2.55469 -0.27328,-0.86625 -0.54656,-1.7325 -0.82812,-2.625 -1.03037,-4.05993 -1.03037,-4.05993 -3.17188,-7.5 -1.53483,-0.0932 -3.07392,-0.11746 -4.61157,-0.11353 -0.98094,8e-5 -1.96188,1.6e-4 -2.97255,2.3e-4 -1.06666,0.005 -2.13331,0.0103 -3.23229,0.0156 -1.08619,10e-4 -2.17238,0.003 -3.29148,0.004 -3.4849,0.006 -6.96973,0.0182 -10.45461,0.0309 -2.35612,0.005 -4.71224,0.01 -7.06836,0.0137 -5.78973,0.011 -11.57943,0.0278 -17.36914,0.0488 -0.23581,0.76199 -0.47163,1.52398 -0.71458,2.30907 -2.21871,7.16742 -4.4404,14.33391 -6.66548,21.49935 -1.14394,3.6842 -2.2867,7.36875 -3.42682,11.05413 -1.09953,3.55401 -2.20209,7.10706 -3.30678,10.65947 -0.42174,1.35809 -0.84237,2.71652 -1.26189,4.0753 -0.58603,1.89741 -1.1763,3.79351 -1.76678,5.68955 -0.33532,1.08143 -0.67063,2.16287 -1.0161,3.27708 C 582,686.20465 582,686.20465 581,687.20465 c -2.90781,0.098 -5.79187,0.12992 -8.70009,0.12025 -1.3856,0.001 -1.3856,0.001 -2.7992,0.003 -3.12013,0.002 -6.24021,-0.004 -9.36033,-0.009 -2.22672,-2.9e-4 -4.45344,-1.3e-4 -6.68016,4.4e-4 -6.06587,2.9e-4 -12.13172,-0.006 -18.19759,-0.0126 -6.33147,-0.006 -12.66295,-0.007 -18.99443,-0.008 -10.63375,-0.003 -21.2675,-0.009 -31.90126,-0.0179 -10.95475,-0.009 -21.9095,-0.0163 -32.86425,-0.0205 -1.0122,-3.9e-4 -1.0122,-3.9e-4 -2.04485,-7.9e-4 -3.38513,-10e-4 -6.77026,-0.003 -10.15539,-0.004 -28.10082,-0.0104 -56.20163,-0.0281 -84.30245,-0.0503 -0.50974,-1.02472 -1.01949,-2.04945 -1.54468,-3.10522 -1.88584,-3.78975 -3.7743,-7.57818 -5.66357,-11.36622 -0.81843,-1.64189 -1.63614,-3.28414 -2.45313,-4.92675 -1.1722,-2.35649 -2.34695,-4.71169 -3.52221,-7.06665 -0.3667,-0.73855 -0.73339,-1.4771 -1.11119,-2.23803 -1.52338,-3.37033 -1.52338,-3.37033 -3.70522,-6.29713 -1.3427,-0.0863 -2.6897,-0.10706 -4.0352,-0.0977 -0.8088,0.003 -1.6177,0.006 -2.4511,0.01 -1.2752,0.0126 -1.2752,0.0126 -2.5762,0.0254 -0.854,0.005 -1.708,0.009 -2.5879,0.0137 -2.1166,0.0118 -4.2331,0.0298 -6.3496,0.0488 -0.3468,-1.18263 -0.3468,-1.18263 -0.7007,-2.38916 -1.6761,-4.65785 -3.8562,-8.97133 -6.0884,-13.38428 -0.4632,-0.92374 -0.9265,-1.84749 -1.4039,-2.79922 -1.4735,-2.93602 -2.9527,-5.8692 -4.432,-8.80234 -1.003,-1.99591 -2.0056,-3.992 -3.0078,-5.98828 -2.4515,-4.88104 -4.9076,-9.75975 -7.3672,-14.63672 -0.33,0 -0.66,0 -1,0 z m 533,48 c 1.32,3.63 2.64,7.26 4,11 4.40036,-1.30381 7.9604,-3.01274 11.8125,-5.5 0.9552,-0.60844 1.91039,-1.21687 2.89453,-1.84375 2.38425,-1.45281 2.38425,-1.45281 3.29297,-3.65625 -7.26,0 -14.52,0 -22,0 z"
     fill="#fef778"
     id="path1" />
  <path
     d="m 123,258.20465 c 239.32899,0 239.32899,0 283,41 4.57088,4.57088 8.57014,9.16541 11.9375,14.6875 2.78254,4.37694 6.11158,6.70575 10.41797,9.50781 4.61496,3.14936 8.59635,6.96991 12.64453,10.80469 0.78633,0.73348 1.57266,1.46695 2.38281,2.22266 5.34867,5.14016 9.6523,10.51511 13.61719,16.77734 0.6484,0.99258 1.2968,1.98516 1.96484,3.00781 11.25746,18.27986 16.0851,39.73057 17.03516,60.99219 1.76413,-0.80298 3.51092,-1.64412 5.25,-2.5 0.97453,-0.46406 1.94906,-0.92813 2.95312,-1.40625 6.19015,-4.63396 8.29908,-13.82935 10.82422,-20.90234 0.38121,-1.05461 0.76241,-2.10922 1.15517,-3.19579 0.8243,-2.28171 1.64644,-4.56419 2.46666,-6.84737 1.99004,-5.5388 3.9932,-11.07285 5.99596,-16.60707 0.7,-1.93469 1.39944,-3.86958 2.09886,-5.80449 5.43696,-15.03283 10.97561,-30.02799 16.51648,-45.02279 6.97697,-18.88208 13.86009,-37.79543 20.73953,-56.7139 38.28,0 76.56,0 116,0 3.99202,10.2652 7.96117,20.47639 11.62598,30.85303 6.0432,17.06934 12.2831,34.06116 18.62402,51.02197 6.27783,16.79493 12.51712,33.60277 18.6875,50.4375 6.34368,17.30334 12.71963,34.5944 19.125,51.875 0.41979,1.13257 0.83958,2.26514 1.27209,3.43204 1.67637,4.5226 3.35277,9.04519 5.0293,13.56773 4.11495,11.10163 8.22048,22.20673 12.32361,33.31273 0.3454,0.93484 0.6908,1.86968 1.04666,2.83286 1.72984,4.68197 3.45955,9.36399 5.18918,14.04605 2.10454,5.69677 4.20966,11.39334 6.31494,17.08984 0.52712,1.42629 0.52712,1.42629 1.06488,2.88139 1.77339,4.79844 3.54685,9.59684 5.32038,14.39522 3.19761,8.65156 6.39477,17.30329 9.58937,25.95596 1.42854,3.86915 2.85744,7.73816 4.28639,11.60715 0.70463,1.90807 1.40912,3.81619 2.11346,5.72437 3.98303,10.78995 7.98259,21.57343 12.01224,32.34607 0.75189,2.01212 1.50376,4.02424 2.25562,6.03637 1.42812,3.82154 2.86057,7.64143 4.29541,11.46045 0.64069,1.71324 1.28124,3.42654 1.92163,5.13989 0.44394,1.17612 0.44394,1.17612 0.89685,2.376 C 805,649.9774 805,649.9774 805,652.20465 c -48.51,0 -97.02,0 -147,0 -3.96,-12.87 -3.96,-12.87 -8,-26 -24.255,-0.495 -24.255,-0.495 -49,-1 -0.66,2.97 -1.32,5.94 -2,9 -0.52883,1.92842 -1.08081,3.85076 -1.66406,5.76343 -0.47059,1.55091 -0.47059,1.55091 -0.95069,3.13316 -0.50007,1.62707 -0.50007,1.62707 -1.01025,3.287 -0.34756,1.13672 -0.69513,2.27344 -1.05322,3.4446 -0.73109,2.38646 -1.46403,4.77235 -2.19873,7.1577 -1.12634,3.66231 -2.24211,7.32773 -3.35743,10.99341 -0.7129,2.32246 -1.42642,4.64473 -2.14062,6.96679 -0.50008,1.64832 -0.50008,1.64832 -1.01025,3.32994 -0.31373,1.01188 -0.62746,2.02376 -0.95069,3.0663 -0.27376,0.89219 -0.54753,1.78438 -0.82959,2.7036 C 583,686.20465 583,686.20465 581,688.20465 c -2.97098,0.19365 -5.84845,0.26033 -8.82034,0.24051 -0.92459,0.002 -1.84919,0.003 -2.8018,0.005 -3.11708,0.003 -6.23394,-0.008 -9.351,-0.0186 -2.22687,-5.6e-4 -4.45374,-2.5e-4 -6.68061,8.9e-4 -6.0617,5.7e-4 -12.12333,-0.0112 -18.18501,-0.0251 -6.3288,-0.0125 -12.6576,-0.0137 -18.9864,-0.0161 -10.6278,-0.006 -21.25556,-0.018 -31.88334,-0.0359 -10.94791,-0.0183 -21.89582,-0.0325 -32.84375,-0.041 -0.67453,-5.2e-4 -1.34907,-10e-4 -2.04404,-0.002 -3.38386,-0.003 -6.76772,-0.005 -10.15158,-0.008 -28.08406,-0.0198 -56.16809,-0.0552 -84.25213,-0.0997 -1.57175,-2.97451 -3.1415,-5.95006 -4.71094,-8.92578 -0.4382,-0.82923 -0.8764,-1.65846 -1.32788,-2.51282 -4.10918,-7.7953 -8.04934,-15.66528 -11.96118,-23.5614 -5.94,-0.33 -11.88,-0.66 -18,-1 -3.20228,-6.38159 -6.40264,-12.76414 -9.6,-19.14819 -1.48616,-2.96719 -2.97326,-5.9339 -4.46177,-8.89991 -6.41697,-12.78773 -12.76685,-25.59897 -18.90924,-38.52104 -4.61133,-9.68881 -9.3576,-19.30868 -14.14837,-28.90986 -1.47953,-2.96907 -2.95048,-5.94231 -4.42164,-8.91553 -0.94544,-1.8974 -1.89138,-3.79454 -2.83789,-5.69141 -0.65459,-1.3277 -0.65459,-1.3277 -1.3224,-2.68222 -0.6072,-1.2099 -0.6072,-1.2099 -1.22667,-2.44424 -0.35321,-0.71006 -0.70641,-1.42013 -1.07033,-2.15171 -0.91035,-1.81074 -0.91035,-1.81074 -3.00169,-2.63589 0,39.6 0,79.2 0,120 -44.55,0 -89.1,0 -135,0 0,-130.02 0,-260.04 0,-394 z m 172,153 c 0,0.66 0,1.32 0,2 1.32,-0.66 2.64,-1.32 4,-2 -1.32,0 -2.64,0 -4,0 z m 160,87 c -1.17348,1.58405 -2.31232,3.19378 -3.4375,4.8125 -7.63761,10.56784 -15.9164,18.77913 -26.5625,26.1875 1.55652,5.35375 3.98175,10.00151 6.625,14.875 0.42023,0.78375 0.84047,1.5675 1.27344,2.375 1.02966,1.91892 2.06504,3.83478 3.10156,5.75 2.18531,-2.18531 2.73277,-3.58587 3.77173,-6.46216 0.33697,-0.92468 0.67395,-1.84937 1.02113,-2.80208 0.3584,-1.00206 0.71679,-2.00412 1.08605,-3.03654 0.37213,-1.02853 0.74426,-2.05705 1.12767,-3.11675 0.78688,-2.17878 1.57099,-4.35856 2.35255,-6.53926 1.19559,-3.33402 2.40091,-6.66439 3.60767,-9.99438 0.76295,-2.11633 1.52534,-4.23286 2.28711,-6.34961 0.36042,-0.99599 0.72083,-1.99198 1.09217,-3.01814 0.33383,-0.93415 0.66765,-1.86829 1.01159,-2.83074 0.29375,-0.81781 0.5875,-1.63563 0.89015,-2.47822 0.77376,-2.44019 1.29685,-4.85475 1.75218,-7.37212 -0.33,0 -0.66,0 -1,0 z"
     fill="#fef778"
     id="path2" />
  <path
     d="m 700,283.20465 c 3.6748,1.22494 3.82485,2.00892 5.51562,5.36719 0.66903,1.32838 0.66903,1.32838 1.35157,2.68359 0.45633,0.93199 0.91265,1.86399 1.38281,2.82422 0.7077,1.38639 0.7077,1.38639 1.42969,2.80078 0.44086,0.88817 0.88172,1.77633 1.33593,2.69141 0.40509,0.81581 0.81018,1.63163 1.22754,2.47217 C 713,304.20465 713,304.20465 712,307.20465 c -2.66084,1.99396 -5.61242,4 -9,4 8.68307,24.17353 17.44481,48.31474 26.4375,72.375 6.21493,16.62841 12.39055,33.27003 18.5,49.9375 6.34377,17.30331 12.71963,34.5944 19.125,51.875 0.41979,1.13257 0.83958,2.26514 1.2721,3.43204 1.67636,4.5226 3.35276,9.04519 5.02929,13.56773 4.11495,11.10163 8.22054,22.20671 12.32361,33.31273 0.34108,0.92321 0.68216,1.84642 1.03357,2.79761 1.36988,3.708 2.73973,7.41601 4.1095,11.12405 2.62029,7.093 5.2423,14.18536 7.86474,21.27756 1.16357,3.14713 2.3271,6.29426 3.49063,9.4414 0.74028,2.00216 1.48066,4.00427 2.22113,6.00635 1.93728,5.23805 3.87191,10.47706 5.80344,15.71723 0.70205,1.89924 1.41014,3.79625 2.11908,5.69293 0.35916,0.96728 0.71833,1.93456 1.08838,2.93115 0.29028,0.77513 0.58056,1.55026 0.87964,2.34888 1.60425,4.93991 1.82072,9.46281 1.80005,14.65112 -10e-4,0.7032 -0.003,1.4064 -0.004,2.13091 -0.006,2.23115 -0.0181,4.46219 -0.0309,6.69331 -0.005,1.51888 -0.01,3.03776 -0.0137,4.55664 -0.011,3.71032 -0.0282,7.42058 -0.0488,11.13086 3.96,0 7.92,0 12,0 4,8.75 4,8.75 4,11 2.62731,-1.4543 5.25186,-2.91322 7.875,-4.375 0.74637,-0.4125 1.49273,-0.825 2.26172,-1.25 0.71543,-0.39961 1.43086,-0.79922 2.16797,-1.21094 0.65984,-0.36657 1.31968,-0.73315 1.99951,-1.11084 1.86099,-1.06667 1.86099,-1.06667 3.6958,-3.05322 1.83907,-0.2461 1.83907,-0.2461 4.11282,-0.24051 0.861,-0.003 1.72199,-0.006 2.60907,-0.008 0.94659,0.007 1.89317,0.0144 2.86844,0.0218 0.99516,-2.9e-4 1.99031,-5.8e-4 3.01563,-8.9e-4 3.3007,0.001 6.60119,0.017 9.90185,0.0326 2.28401,0.004 4.56802,0.007 6.85202,0.009 6.02032,0.008 12.04054,0.0273 18.06082,0.0494 6.13972,0.0204 12.27945,0.0296 18.41919,0.0397 12.05343,0.0215 24.10679,0.0556 36.16016,0.0977 -0.0654,-0.60609 -0.13089,-1.21218 -0.19833,-1.83663 -2.1441,-20.23058 -3.47026,-40.46293 -4.23917,-60.78837 -0.0307,-0.78904 -0.0614,-1.57807 -0.093,-2.39102 -2.26066,-59.81965 11.68095,-105.42357 39.90554,-157.85898 0.42221,-0.78664 0.84441,-1.57328 1.27941,-2.38375 8.85574,-16.48523 17.99049,-32.80391 27.60099,-48.86185 0.6567,-1.09987 1.3133,-2.19974 1.9899,-3.33293 0.6002,-0.98921 1.2004,-1.97842 1.8188,-2.99761 0.5217,-0.8605 1.0434,-1.72101 1.581,-2.60759 1.3546,-1.94207 1.3546,-1.94207 3.3546,-2.94207 0,2.97 0,5.94 0,9 45.87,0 91.74,0 139,0 -5.6042,10.08764 -5.6042,10.08764 -8.6875,14.1875 -3.7354,5.02318 -7.3793,10.10238 -10.9871,15.21753 -1.6709,2.35365 -3.2802,4.54974 -5.3254,6.59497 -2.5298,0.18781 -4.9491,0.25192 -7.479,0.22705 -0.7708,2.9e-4 -1.5416,5.8e-4 -2.3358,8.9e-4 -2.5541,-10e-4 -5.1078,-0.017 -7.6618,-0.0326 -1.7683,-0.004 -3.5366,-0.007 -5.305,-0.009 -4.6591,-0.008 -9.3181,-0.0273 -13.9771,-0.0494 -4.7523,-0.0204 -9.5046,-0.0296 -14.2569,-0.0397 -9.3282,-0.0211 -18.6563,-0.0552 -27.9844,-0.0972 -0.33,-1.98 -0.66,-3.96 -1,-6 -0.5416,1.08534 -1.0831,2.17067 -1.6411,3.28889 -5.1454,10.31118 -10.2929,20.62126 -15.4426,30.93031 -2.6464,5.29789 -5.292,10.59616 -7.9358,15.8953 -2.5594,5.12972 -5.1208,10.25842 -7.6835,15.38645 -0.9694,1.94049 -1.938,3.88133 -2.9059,5.82255 -7.3268,14.69333 -14.7786,29.31657 -22.6878,43.70674 -11.06273,19.76596 -11.06273,19.76596 -11.7033,41.96976 0.45625,-0.33097 0.9125,-0.66193 1.38257,-1.00293 8.33969,-6.04594 16.69153,-12.07163 25.11743,-17.99707 14.3407,-10.10137 28.4684,-20.43058 42.3945,-31.09766 6.9939,-5.35576 14.0476,-10.63137 21.1055,-15.90234 0,3.72631 -1.0165,4.81422 -3.1484,7.83203 -0.671,0.95769 -1.3419,1.91539 -2.0332,2.9021 -0.7238,1.01586 -1.4477,2.03172 -2.1934,3.07837 -1.4767,2.08061 -2.9533,4.16133 -4.4297,6.24219 -0.7215,1.01417 -1.4431,2.02834 -2.1865,3.07324 -1.7285,2.47134 -3.3907,4.96551 -5.0166,7.50488 -0.6451,0.98263 -0.6451,0.98263 -1.3032,1.98511 -1.1102,1.69906 -2.1974,3.41311 -3.2827,5.12817 -2.6774,2.50786 -3.203,2.58396 -6.6875,2.60157 -1.2272,-0.11473 -2.4544,-0.22946 -3.7188,-0.34766 0.1131,1.11991 0.1131,1.11991 0.2285,2.26245 0.4978,8.66262 -1.5153,13.26754 -6.7285,20.05005 -0.901,1.26167 -0.901,1.26167 -1.8203,2.54883 -6.607,9.00375 -14.5714,14.98062 -23.8672,21.01367 -2.6027,1.70378 -5.1993,3.40828 -7.7638,5.16916 -3.0487,1.95584 -3.0487,1.95584 -6.38648,3.57135 -6.48769,3.43471 -6.48769,3.43471 -10.3993,9.39028 -1.17799,6.0437 -0.87604,12.18233 -0.71605,18.30671 0.004,1.98014 0.003,3.9603 -0.004,5.94043 -0.004,5.18953 0.0693,10.37515 0.15955,15.56378 0.0798,5.29918 0.0915,10.59844 0.1065,15.89813 0.0183,5.94488 0.0433,11.88885 0.12372,17.83326 0.011,0.89896 0.0221,1.79793 0.0334,2.72413 0.0217,1.68515 0.0474,3.37025 0.0777,5.05527 0.0231,1.89075 -0.005,3.78201 -0.0435,5.6725 -1,1 -1,1 -3.26263,1.12305 -1.51404,-10e-4 -1.51404,-10e-4 -3.05867,-0.003 -1.15412,10e-4 -2.30823,0.003 -3.49732,0.004 -1.27745,-0.004 -2.55491,-0.007 -3.87108,-0.0109 -1.34988,-2.9e-4 -2.69977,-1.3e-4 -4.04965,4.4e-4 -3.67546,2.9e-4 -7.35088,-0.006 -11.02633,-0.0126 -3.83705,-0.006 -7.6741,-0.007 -11.51116,-0.008 -7.27087,-0.003 -14.54173,-0.0113 -21.81259,-0.0213 -8.27556,-0.0112 -16.55112,-0.0167 -24.82669,-0.0217 -17.02821,-0.0101 -34.05616,-0.0277 -51.08412,-0.05 0,-0.99 0,-1.98 0,-3 -0.67764,0.39155 -1.35529,0.78311 -2.05347,1.18652 -14.96048,8.64255 -29.92919,17.26996 -44.94653,25.81348 -1.32185,0.75265 -1.32185,0.75265 -2.67041,1.52051 -27.51881,15.65598 -55.29885,30.76323 -83.32959,45.47949 -1.0588,0.55639 -2.11761,1.11278 -3.2085,1.68604 -5.56718,2.92293 -11.14302,5.8287 -16.72558,8.72216 -2.76681,1.43651 -5.53047,2.87893 -8.29349,4.32271 -33.15238,17.30744 -66.728,33.89628 -100.78,49.36272 -2.22462,1.012 -4.44748,2.02781 -6.67016,3.04407 -83.24918,38.0492 -168.46724,72.9595 -440.32227,132.86227 -0.72687,0.0234 -1.45374,0.0467 -2.20264,0.0708 -34.32368,0.93318 -73.03101,-2.26937 -100.17236,-25.4458 -12.75879,-12.11774 -18.45354,-27.72276 -18.9375,-45.125 0.7154,-34.71556 16.97214,-66.81002 35.3125,-95.5 0.42491,-0.66645 0.84981,-1.33289 1.2876,-2.01953 12.37134,-19.26065 26.23008,-37.50922 41.09912,-54.89844 2.40409,-2.81838 4.73096,-5.69375 7.05078,-8.58203 3.8664,-4.75491 7.94779,-9.26662 12.13843,-13.73438 2.67169,-2.8498 5.28647,-5.73561 7.84985,-8.68359 3.46547,-3.97998 7.0294,-7.85571 10.63672,-11.70703 0.9564,-1.03967 0.9564,-1.03967 1.93213,-2.10034 3.7421,-4.02872 7.55262,-7.74058 11.83862,-11.18945 10.92609,-10.15527 8.2468,-10.60618 9.16675,-28.08521 33,0 66,0 100,0 0,-39.6 0,-79.2 0,-120 3,1 3,1 4.56215,3.5163 0.83367,1.67947 0.83367,1.67947 1.68419,3.39288 0.30934,0.61634 0.61868,1.23269 0.93739,1.86771 1.02264,2.04366 2.03082,4.09411 3.03893,6.14498 0.70755,1.4219 1.41593,2.84338 2.1251,4.26447 1.86755,3.74853 3.72267,7.50309 5.57564,11.25885 1.51091,3.05712 3.03067,6.1098 4.55093,9.16227 1.81505,3.64493 3.62594,7.29192 5.43583,10.93941 0.34445,0.69383 0.68891,1.38766 1.04381,2.10251 0.97858,1.97353 1.95433,3.94844 2.92909,5.92386 0.83248,1.68425 0.83248,1.68425 1.68177,3.40253 0.47361,0.998 0.94721,1.99599 1.43517,3.02423 0.38928,0.78524 0.77855,1.57048 1.17963,2.37952 1.14295,3.65089 1.09073,7.18886 1.06329,10.97497 0.002,0.82818 0.004,1.65636 0.006,2.50963 0.004,2.72768 -0.007,5.4551 -0.0182,8.18275 -0.001,1.89618 -0.002,3.79236 -0.001,5.68854 -0.002,3.96763 -0.01,7.93517 -0.0233,11.90277 -0.017,5.09699 -0.0208,10.19387 -0.02,15.29088 -2.8e-4,3.91177 -0.006,7.82352 -0.013,11.73528 -0.003,1.88037 -0.005,3.76074 -0.006,5.6411 -0.002,2.61926 -0.0109,5.23841 -0.0216,7.85765 6.8e-4,1.17504 6.8e-4,1.17504 10e-4,2.37382 -0.0322,5.34861 -0.0322,5.34861 -1.14664,6.46309 -3.10839,0.0614 -6.19468,0.0585 -9.30225,0.0149 -2.0268,-0.0194 -4.0536,-0.0384 -6.08041,-0.0569 -1.08136,-0.0112 -2.16271,-0.0223 -3.27684,-0.0338 -6.91653,-0.0609 -13.83338,-0.0613 -20.75014,-0.0726 -6.07948,-0.0134 -12.15738,-0.0481 -18.23636,-0.12913 -5.87622,-0.0772 -11.75006,-0.0953 -17.62672,-0.0742 -2.23507,-0.002 -4.47023,-0.026 -6.70483,-0.0716 -12.57874,-0.73209 -12.57874,-0.73209 -23.73174,3.99038 -2.86117,2.85104 -5.04844,6.07833 -7.29071,9.43301 -1.64776,1.92097 -3.3757,3.73056 -5.125,5.5625 -3.99993,4.40307 -7.79652,8.93354 -11.53125,13.5625 -2.09399,2.56862 -4.22559,5.0955 -6.38062,7.61255 -5.90336,6.90149 -11.53515,13.98092 -16.96313,21.26245 -0.48694,0.65033 -0.97389,1.30066 -1.47559,1.9707 C 115.21217,783.78598 84.45124,827.10868 89,870.20465 c 2.1929,12.85896 7.44745,24.86377 18,33 9.13704,6.11887 18.38893,10.04559 29,13 1.0377,0.29648 2.07539,0.59297 3.14453,0.89844 83.10682,20.69985 187.63983,-17.76907 440.18701,-118.16944 3.83032,-1.80933 7.67302,-3.59155 11.51612,-5.37353 16.48928,-7.66089 32.82741,-15.59874 49.08984,-23.73047 0.91372,-0.45641 1.82745,-0.91282 2.76886,-1.38306 11.8374,-5.91936 23.58822,-11.98595 35.28384,-18.18036 2.70102,-1.42669 5.41093,-2.83587 8.12308,-4.24127 12.02641,-6.23225 23.96374,-12.6079 35.83008,-19.13965 2.74199,-1.50765 5.4866,-3.01044 8.23218,-4.51156 13.37288,-7.31479 26.67311,-14.72339 39.79858,-22.47721 6.28094,-3.7068 12.6136,-7.19428 19.02588,-10.69189 -31.35,-0.33 -62.7,-0.66 -95,-1 -2.58792,-6.90112 -4.93936,-13.79975 -7.1875,-20.8125 -0.55204,-1.69673 -0.55204,-1.69673 -1.11523,-3.42773 -0.52111,-1.62326 -0.52111,-1.62326 -1.05274,-3.2793 -0.31606,-0.98074 -0.63212,-1.96147 -0.95776,-2.97193 C 683,655.20465 683,655.20465 683,652.20465 c 40.26,0 80.52,0 122,0 -3.63,-9.57 -7.26,-19.14 -11,-29 -2.71895,-7.30877 -5.43045,-14.61978 -8.125,-21.9375 -0.72447,-1.96424 -1.44908,-3.92844 -2.17383,-5.89258 -1.49371,-4.04846 -2.98683,-8.09714 -4.47949,-12.14599 -3.21673,-8.72387 -6.44116,-17.44489 -9.66522,-26.16605 -1.76916,-4.78584 -3.53778,-9.57187 -5.30646,-14.35788 -0.70833,-1.91667 -1.41666,-3.83333 -2.125,-5.75 -18.41667,-49.83333 -36.83333,-99.66667 -55.25,-149.5 -0.52582,-1.42282 -0.52582,-1.42282 -1.06227,-2.87437 -0.7091,-1.91875 -1.4182,-3.83751 -2.12729,-5.75626 -1.75903,-4.75981 -3.51816,-9.51958 -5.27748,-14.27928 -3.32839,-9.00497 -6.65579,-18.01031 -9.98019,-27.01676 -1.5752,-4.26732 -3.15088,-8.53447 -4.7266,-12.8016 -0.75301,-2.03962 -1.50578,-4.07934 -2.2583,-6.11914 -1.04155,-2.82322 -2.08392,-5.64614 -3.12646,-8.469 -0.30752,-0.83423 -0.61504,-1.66846 -0.93187,-2.52797 -0.42903,-1.16093 -0.42903,-1.16093 -0.86672,-2.34532 -0.26263,-0.71125 -0.52527,-1.4225 -0.79587,-2.1553 -0.60845,-1.6055 -1.26366,-3.19317 -1.92922,-4.77585 C 673,296.20465 673,296.20465 673,293.20465 c 0.60844,0.0322 1.21687,0.0644 1.84375,0.0977 7.91175,-0.10472 13.2097,-2.94873 19.75977,-7.03492 1.76071,-1.08532 3.57576,-2.08139 5.39648,-3.06274 z"
     fill="#1c3456"
     id="path3" />
  <path
     d="m 150,285.20465 c 172.52155,0 172.52155,0 193.625,7.75 0.97888,0.34507 1.95776,0.69013 2.96631,1.04566 27.18959,9.84142 47.13939,26.10073 59.65869,52.76684 10.67721,26.57635 10.48127,60.25845 -0.58984,86.72266 -10.40584,23.67865 -27.62927,39.61002 -50.66016,50.71484 0.58274,5.11137 2.99385,9.10667 5.41406,13.54687 0.91673,1.71104 1.83239,3.42265 2.74707,5.13477 0.47152,0.87987 0.94303,1.75973 1.42884,2.66626 2.23245,4.19897 4.39733,8.43172 6.55847,12.66772 0.42503,0.83165 0.85005,1.6633 1.28796,2.52015 0.86896,1.70077 1.73753,3.40174 2.60571,5.1029 6.46772,12.67126 12.95019,25.33333 19.55628,37.93311 2.88322,5.5042 5.74231,11.0203 8.5852,16.54541 0.36823,0.71559 0.73645,1.43119 1.11583,2.16847 1.86765,3.63071 3.73354,7.26231 5.5978,10.89476 3.0201,5.87892 6.04329,11.75245 9.18872,17.56567 0.42966,0.79487 0.85932,1.58974 1.302,2.4087 0.7513,1.38016 1.5096,2.75656 2.27685,4.12792 1.79475,3.29136 2.33521,4.84249 2.33521,8.71729 -29.37,0 -58.74,0 -89,0 -19.8,-39.6 -39.6,-79.2 -60,-120 -21.78,-0.495 -21.78,-0.495 -44,-1 0,39.93 0,79.86 0,121 -27.06,0 -54.12,0 -82,0 0,-112.53 0,-225.06 0,-341 z m 145,126 c 0,0.66 0,1.32 0,2 1.32,-0.66 2.64,-1.32 4,-2 -1.32,0 -2.64,0 -4,0 z"
     fill="#e83b3b"
     id="path4" />
  <path
     d="m 563,285.20465 c 26.07,0 52.14,0 79,0 2.2275,6.14625 4.455,12.2925 6.75,18.625 8.41913,23.18278 16.98153,46.31159 25.56285,69.43472 4.13493,11.14305 8.25618,22.29114 12.37465,33.44028 0.69652,1.88526 1.39306,3.77051 2.0896,5.65576 1.38216,3.74102 2.76423,7.48207 4.14624,11.22315 3.16955,8.57965 6.34041,17.15882 9.51114,25.73803 1.77189,4.79434 3.5437,9.5887 5.31552,14.38306 0.70833,1.91667 1.41667,3.83333 2.125,5.75 21.25,57.5 21.25,57.5 22.3123,60.37447 0.70899,1.91844 1.41799,3.83689 2.12699,5.75534 1.76077,4.76441 3.5215,9.52883 5.28215,14.29329 3.30736,8.94987 6.61513,17.8996 9.92422,26.84884 1.55625,4.20886 3.11229,8.4178 4.6683,12.62674 0.73899,1.99874 1.47809,3.99744 2.21729,5.9961 1.93595,5.23443 3.86956,10.46971 5.79987,15.70623 0.71611,1.93847 1.43707,3.87514 2.15863,5.81159 0.36818,0.99435 0.73637,1.9887 1.11572,3.01318 0.30188,0.80994 0.60376,1.61987 0.91479,2.45435 C 767,624.20465 767,624.20465 767,626.20465 c -29.37,0 -58.74,0 -89,0 -3.96,-13.2 -7.92,-26.4 -12,-40 -1.65,-5.28 -3.3,-10.56 -5,-16 -0.66,-2.64 -1.32,-5.28 -2,-8 -37.29,0 -74.58,0 -113,0 -1.32,5.28 -2.64,10.56 -4,16 -1.22549,3.86091 -2.47314,7.68104 -3.8125,11.5 -4.21439,12.0462 -7.60283,24.20969 -11.1875,36.5 -29.37,0 -58.74,0 -89,0 3.37482,-11.2494 3.37482,-11.2494 4.98267,-15.59009 0.36282,-0.9842 0.72564,-1.96841 1.09945,-2.98244 0.38669,-1.03954 0.77338,-2.07908 1.17179,-3.15013 0.41279,-1.11741 0.82558,-2.23482 1.25088,-3.38609 1.11733,-3.02317 2.23727,-6.04536 3.3583,-9.06715 1.18448,-3.19505 2.36533,-6.39144 3.54633,-9.58777 1.45164,-3.92833 2.90346,-7.85659 4.35668,-11.78433 4.12514,-11.14993 8.23,-22.30724 12.32616,-33.46784 1.10182,-3.00208 2.20406,-6.00401 3.30642,-9.00589 1.46669,-3.99401 2.93323,-7.98807 4.39966,-11.98218 3.35671,-9.14227 6.71526,-18.28387 10.07364,-27.42553 1.87608,-5.10683 3.75204,-10.2137 5.62802,-15.32056 0.75,-2.04167 1.5,-4.08333 2.25,-6.125 0.37125,-1.01063 0.7425,-2.02125 1.125,-3.0625 21.375,-58.1875 21.375,-58.1875 22.49989,-61.24969 0.75037,-2.04268 1.50073,-4.08537 2.25107,-6.12806 1.86926,-5.08871 3.73873,-10.17734 5.60866,-15.2658 3.44332,-9.3707 6.88481,-18.74206 10.31869,-28.11622 1.5811,-4.31581 3.16339,-8.63118 4.74576,-12.94653 0.73692,-2.01069 1.47329,-4.02158 2.20899,-6.03271 C 550.54168,318.03511 556.77072,301.6273 563,285.20465 Z"
     fill="#e83b3b"
     id="path5" />
  <path
     d="m 1052,285.20465 c 87.12,0 174.24,0 264,0 0,48.57957 0,48.57957 -10.2637,59.10986 -3.1699,3.45073 -5.6024,7.42378 -8.1738,11.32764 -1.0889,1.59487 -2.1814,3.18733 -3.2773,4.77734 -3.2674,4.75788 -6.5269,9.52106 -9.7852,14.28516 -1.0833,1.58336 -2.1666,3.16669 -3.25,4.75 -0.5363,0.78375 -1.0725,1.5675 -1.625,2.375 -95.875,140.125 -95.875,140.125 -97.5022,142.50317 -1.076,1.57273 -2.1521,3.14548 -3.228,4.71827 -2.8193,4.12095 -5.6396,8.24125 -8.4612,12.36059 -0.5852,0.85465 -1.1705,1.7093 -1.7734,2.58984 -1.1156,1.62912 -2.2315,3.25803 -3.3477,4.88672 -0.5066,0.73993 -1.0132,1.47985 -1.5352,2.24219 -0.4409,0.64365 -0.8818,1.28729 -1.3361,1.95044 -1.8301,2.6969 -3.6333,5.41195 -5.4412,8.12378 80.19,0.495 80.19,0.495 162,1 0,21.12 0,42.24 0,64 -88.11,0 -176.22,0 -267,0 0,-44 0,-44 11,-59 2.0843,-2.98934 4.1517,-5.97891 6.1875,-9 1.1008,-1.62034 2.2024,-3.24011 3.3047,-4.85938 0.5681,-0.83466 1.1363,-1.66933 1.7217,-2.52929 3.1729,-4.63889 6.3859,-9.24987 9.5986,-13.86133 0.6712,-0.96357 1.3424,-1.92715 2.0339,-2.91992 1.3682,-1.96368 2.7367,-3.92722 4.1053,-5.89063 3.3525,-4.81101 6.7002,-9.62537 10.0483,-14.43945 1.3333,-1.91668 2.6666,-3.83335 4,-5.75 0.66,-0.94875 1.32,-1.8975 2,-2.875 6,-8.625 6,-8.625 8.0012,-11.50171 1.3293,-1.91093 2.6586,-3.8219 3.9878,-5.73291 3.3943,-4.87977 6.7896,-9.75877 10.1868,-14.63647 8.6918,-12.48138 8.6918,-12.48138 17.3242,-25.00391 6.426,-9.37014 12.9259,-18.68881 19.4194,-28.01221 4.0282,-5.7846 8.0527,-11.57171 12.0772,-17.35888 3.3431,-4.80686 6.6884,-9.6121 10.0386,-14.41407 0.6748,-0.96808 1.3496,-1.93617 2.0449,-2.93359 1.2413,-1.78058 2.4833,-3.56062 3.7265,-5.33984 7.148,-10.25807 14.1489,-20.60947 21.1934,-30.94141 -53.46,-0.33 -106.92,-0.66 -162,-1 0,-20.79 0,-41.58 0,-63 z"
     fill="#e83c3b"
     id="path6" />
  <path
     d="m 1337,60.204651 c 0.9494,0.04109 1.8988,0.08218 2.877,0.124512 30.8856,1.503921 63.8112,6.343859 86.123,29.875488 11.4745,13.428049 15.1866,30.691309 14,47.999999 -4.3981,42.74409 -28.6895,82.77029 -54.5322,116.08789 -1.5114,1.96897 -2.9894,3.95934 -4.46,5.95898 -6.178,8.38974 -12.6328,16.42951 -19.529,24.24073 -2.1945,2.54113 -4.3294,5.13309 -6.4788,7.7124 7.92,0.33 15.84,0.66 24,1 0.3654,9.75523 0.6571,19.50573 0.829,29.26632 0.083,4.53528 0.194,9.06555 0.378,13.59794 0.911,23.04063 0.5056,38.95495 -15.3495,56.9929 -2.4395,2.81425 -4.443,5.77974 -6.4825,8.89284 -2.4756,3.55199 -4.9686,7.09137 -7.4648,10.62891 -7.2355,10.27153 -14.2895,20.64436 -21.2288,31.1184 -4.2054,6.33287 -8.5299,12.53717 -12.9939,18.69019 -3.6985,5.17784 -7.1734,10.50887 -10.6875,15.8125 -4.9671,7.49651 -10.0142,14.88691 -15.2969,22.16406 -4.51,6.31331 -8.7288,12.83405 -12.9961,19.3125 -0.9764,1.47727 -0.9764,1.47727 -1.9726,2.98438 -0.5753,0.87447 -1.1505,1.74893 -1.7432,2.6499 -0.6571,0.95342 -1.3142,1.90685 -1.9912,2.88916 -0.3584,0.69229 -0.7169,1.38457 -1.0862,2.09784 -1.4455,2.46416 -2.6756,4.11221 -4.9138,5.90216 -4.577,1.11333 -9.0244,0.93226 -13.7109,0.78125 -1.3366,-0.0149 -2.6733,-0.0263 -4.01,-0.0343 -3.5028,-0.0304 -7.003,-0.10887 -10.5048,-0.19763 -3.5793,-0.0821 -7.1591,-0.11844 -10.7391,-0.1587 -7.0129,-0.0856 -14.0239,-0.22193 -21.0352,-0.39062 0.7779,-1.42304 1.5587,-2.84453 2.3406,-4.26538 0.4345,-0.79176 0.8689,-1.58352 1.3166,-2.39928 1.9943,-3.46836 4.3003,-6.66838 6.6553,-9.89784 5.1008,-7.10338 9.9863,-14.33264 14.8125,-21.625 4.9302,-7.44217 9.9455,-14.77453 15.1875,-22 3.6985,-5.17784 7.1734,-10.50887 10.6875,-15.8125 4.9723,-7.50437 10.0264,-14.90125 15.3125,-22.1875 3.6985,-5.17784 7.1734,-10.50887 10.6875,-15.8125 4.9723,-7.50437 10.0264,-14.90125 15.3125,-22.1875 3.6985,-5.17784 7.1733,-10.50892 10.6875,-15.8125 4.2687,-6.44021 8.5407,-12.85937 13.0625,-19.125 0.7037,-1.01755 1.4075,-2.03511 2.1326,-3.0835 1.9989,-2.81264 4.1817,-5.31865 6.5178,-7.85595 14.5461,-16.90806 13.2958,-34.43467 12.7806,-55.60401 -0.094,-4.55941 -0.1013,-9.11896 -0.1165,-13.6792 -0.042,-8.88682 -0.1862,-17.76747 -0.377,-26.65234 -4.95,0 -9.9,0 -15,0 1.4541,-2.28938 1.4541,-2.28938 2.9375,-4.625 0.6407,-1.00934 1.2813,-2.01867 1.9414,-3.05859 1.4124,-2.20831 2.8369,-4.40892 4.2734,-6.60157 18.4521,-28.16663 39.9452,-64.80795 32.7666,-99.83032 -1.8486,-7.95598 -4.8198,-14.41255 -9.9189,-20.88452 -0.5002,-0.64195 -1.0003,-1.28391 -1.5156,-1.94531 -8.7046,-9.80368 -22.2232,-14.64446 -34.4844,-18.05469 -1.5739,-0.44473 -1.5739,-0.44473 -3.1797,-0.89844 -78.1018,-19.286763 -174.4243,14.25614 -247.8452,39.53565 -3.6571,1.25783 -7.3244,2.48342 -10.9946,3.70263 -35.5776,11.90608 -70.51599,25.86057 -104.9805,40.66016 -0.67942,0.29157 -1.35883,0.58314 -2.05884,0.88354 -21.11526,9.07169 -42.06114,18.51725 -62.94116,28.11646 -0.62375,0.28641 -1.24749,0.57283 -1.89014,0.86792 -16.17559,7.42966 -32.23294,15.0864 -48.23486,22.88208 -0.79722,0.38829 -1.59445,0.77658 -2.41583,1.17664 -1.56681,0.76381 -3.13292,1.52902 -4.69834,2.29568 -1.55944,0.76064 -3.12213,1.51466 -4.68792,2.26215 -4.01882,1.93476 -7.88396,3.9683 -11.6901,6.29629 -14.46643,8.56436 -27.64389,8.41431 -44.13281,7.84424 -2.55851,-0.0503 -5.11711,-0.0959 -7.67578,-0.13672 -6.19356,-0.10883 -12.38342,-0.27502 -18.57422,-0.48828 2.76112,-2.11133 5.40995,-3.81879 8.53516,-5.34766 0.88155,-0.43497 1.76311,-0.86995 2.67138,-1.31811 0.94247,-0.46092 1.88493,-0.92184 2.85596,-1.39673 7.15463,-3.53513 14.26809,-7.12498 21.3125,-10.875 17.50068,-9.28305 35.30509,-17.96382 53.20752,-26.44141 2.45301,-1.16359 4.90455,-2.32998 7.35449,-3.5 21.00902,-10.03275 42.13478,-19.74757 63.45606,-29.09863 3.09293,-1.35658 6.18366,-2.71801 9.27246,-4.08398 C 1005.5346,136.84613 1097.1731,101.8547 1337,60.204651 Z"
     fill="#1c3456"
     id="path7" />
  <path
     d="m 733,285.20465 c 29.37,0 58.74,0 89,0 4.29,10.23 8.58,20.46 13,31 2.38244,5.62222 4.76505,11.24404 7.15982,16.86096 6.99362,16.40506 13.93891,32.8303 20.86432,49.26425 3.92029,9.30217 7.84447,18.60205 11.84305,27.87088 0.28987,0.67252 0.57974,1.34504 0.8784,2.03794 1.31294,3.0441 2.63042,6.08603 3.95485,9.12515 0.44303,1.02384 0.88607,2.04768 1.34253,3.10254 0.57271,1.31424 0.57271,1.31424 1.15698,2.65503 C 883,429.20465 883,429.20465 883,431.20465 c 0.66,0 1.32,0 2,0 0.56461,-1.79824 0.56461,-1.79824 1.14062,-3.63281 2.18923,-6.55492 4.9153,-12.88272 7.60938,-19.24219 0.57886,-1.37298 1.15755,-2.74603 1.73608,-4.11914 4.76203,-11.28715 9.58774,-22.54707 14.42188,-33.80347 5.05485,-11.77132 10.08688,-23.55227 15.10544,-35.33911 0.84707,-1.98925 1.69449,-3.97835 2.54229,-5.96728 6.22358,-14.60158 12.33918,-29.24369 18.44431,-43.896 29.37,0 58.74,0 89,0 -5.2533,11.09027 -10.3884,21.90051 -16.3914,32.55112 -2.9188,5.19588 -5.8105,10.40648 -8.6953,15.62126 -0.5189,0.93775 -1.0379,1.8755 -1.5725,2.84167 -11.04555,19.99829 -21.74204,40.18554 -32.3408,60.42345 -0.5817,1.10965 -1.16339,2.21931 -1.76271,3.36259 C 933.43453,477.95097 911.74918,538.10557 926,626.20465 c -27.72,0 -55.44,0 -84,0 0.6123,-7.58227 1.22461,-15.16453 1.85547,-22.97656 0.62915,-10.54512 1.0473,-21.08927 1.33203,-31.64844 0.019,-0.68763 0.038,-1.37526 0.0576,-2.08373 1.32588,-50.20354 -9.35155,-88.82063 -33.18261,-132.85377 -0.34238,-0.63397 -0.68476,-1.26794 -1.03752,-1.92113 -7.74404,-14.31928 -15.83244,-28.40969 -24.21386,-42.36641 -5.30033,-8.8693 -10.13469,-17.9393 -14.81111,-27.14996 -0.3877,-0.76079 -0.7754,-1.52158 -1.17484,-2.30543 -2.80083,-5.50252 -5.57074,-11.02025 -8.33297,-16.54223 -0.86004,-1.71686 -1.72014,-3.43369 -2.58029,-5.15049 -1.7777,-3.54948 -3.5538,-7.09975 -5.32889,-10.65053 -2.27794,-4.55598 -4.56144,-9.10914 -6.84623,-13.66168 -1.76643,-3.5218 -3.52927,-7.04539 -5.29107,-10.56952 -0.8416,-1.68203 -1.6845,-3.3634 -2.52872,-5.04412 -1.16898,-2.32823 -2.33294,-4.65891 -3.4956,-6.99031 -0.34897,-0.69231 -0.69794,-1.38463 -1.05748,-2.09793 C 733,287.43299 733,287.43299 733,285.20465 Z"
     fill="#e83b3b"
     id="path8" />
  <path
     d="m 1345,571.20465 c 11.88,0 23.76,0 36,0 0.023,15.10725 0.041,30.21449 0.052,45.32175 0.01,7.0141 0.012,14.02818 0.024,21.04226 0.011,6.76267 0.017,13.52532 0.02,20.288 0,2.58651 0.01,5.17303 0.011,7.75953 0.01,3.60885 0.01,7.21765 0.01,10.8265 0,1.08109 0.01,2.16218 0.011,3.27603 0,0.97742 0,1.95483 0,2.96187 0,1.28175 0,1.28175 0,2.5894 -0.123,1.93466 -0.123,1.93466 -1.123,2.93466 -1.6994,0.0973 -3.4028,0.12372 -5.105,0.12305 -1.6698,0.003 -1.6698,0.003 -3.3733,0.006 -1.2383,-0.003 -2.4766,-0.006 -3.7524,-0.009 -1.3035,8.6e-4 -2.607,0.002 -3.9501,0.003 -3.6348,0.002 -7.2696,-0.002 -10.9045,-0.007 -3.9134,-0.004 -7.8269,-0.003 -11.7403,-0.002 -6.7859,5.2e-4 -13.5718,-0.003 -20.3576,-0.008 -9.8114,-0.008 -19.6227,-0.0107 -29.4341,-0.012 -15.9165,-0.002 -31.8331,-0.009 -47.7496,-0.0183 -15.4655,-0.009 -30.931,-0.0162 -46.3965,-0.0205 -0.9526,-2.6e-4 -1.9052,-5.2e-4 -2.8867,-7.9e-4 -4.7786,-10e-4 -9.5573,-0.003 -14.3359,-0.004 -39.6713,-0.0104 -79.3427,-0.0283 -119.014,-0.0503 0,-11.88 0,-23.76 0,-36 93.72,0 187.44,0 284,0 0,-26.73016 0,-53.46016 0,-81.00016 z"
     fill="#1b3356"
     id="path9" />
  <path
     d="m 568.89162,588.0844 c 1.29462,0.002 2.58923,0.004 3.92308,0.007 1.06824,-2.2e-4 1.06824,-2.2e-4 2.15805,-4.4e-4 2.36458,7e-4 4.72909,0.008 7.09366,0.0163 1.63525,0.002 3.2705,0.003 4.90575,0.004 4.31219,0.004 8.62435,0.0136 12.93653,0.0247 4.39697,0.0102 8.79395,0.0148 13.19092,0.0198 8.63348,0.0107 17.26693,0.0278 25.90039,0.0488 4.28976,10.50464 4.28976,10.50464 5.66797,15.35937 0.2533,0.88816 0.5066,1.77633 0.76758,2.69141 0.24814,0.89074 0.49629,1.78148 0.75195,2.69922 0.25975,0.90621 0.51949,1.81242 0.78711,2.74609 1.28113,4.53526 2.2454,8.82392 3.02539,13.50391 -16.17,0 -32.34,0 -49,0 -0.66,2.97 -1.32,5.94 -2,9 -0.52883,1.92841 -1.08081,3.85076 -1.66406,5.76342 -0.31373,1.03395 -0.62745,2.06789 -0.95068,3.13317 -0.33339,1.08471 -0.66677,2.16942 -1.01026,3.287 -0.34756,1.13672 -0.69512,2.27343 -1.05322,3.44459 -0.73109,2.38646 -1.46403,4.77235 -2.19873,7.1577 -1.12634,3.66231 -2.24211,7.32773 -3.35742,10.99341 -0.7129,2.32246 -1.42642,4.64474 -2.14063,6.9668 -0.33338,1.09888 -0.66676,2.19776 -1.01025,3.32994 -0.47059,1.51782 -0.47059,1.51782 -0.95068,3.0663 -0.27377,0.89219 -0.54753,1.78437 -0.82959,2.7036 C 583,686.20466 583,686.20466 581,688.20465 c -2.97098,0.19365 -5.84845,0.26033 -8.82034,0.24051 -0.92459,0.002 -1.84918,0.003 -2.80179,0.005 -3.11708,0.003 -6.23395,-0.008 -9.35101,-0.0186 -2.22687,-5.7e-4 -4.45374,-2.5e-4 -6.6806,8.8e-4 -6.06171,5.8e-4 -12.12333,-0.0112 -18.18502,-0.0251 -6.3288,-0.0125 -12.6576,-0.0137 -18.9864,-0.0161 -10.62779,-0.006 -21.25556,-0.018 -31.88333,-0.0359 -10.94792,-0.0183 -21.89583,-0.0325 -32.84375,-0.041 -0.67454,-5.3e-4 -1.34907,-10e-4 -2.04405,-0.002 -3.38386,-0.003 -6.76772,-0.005 -10.15158,-0.008 -28.08406,-0.0207 -56.16809,-0.0561 -84.25213,-0.10065 -1.50696,-2.80881 -3.00407,-5.62279 -4.5,-8.43749 -0.40992,-0.76377 -0.81984,-1.52754 -1.24218,-2.31446 -4.39972,-8.29946 -8.24029,-16.7108 -12.25782,-25.24804 68.97,0 137.94,0 209,0 0.99,-3.96 1.98,-7.92 3,-12 0.74274,-2.52926 1.5104,-5.05145 2.3125,-7.5625 0.20948,-0.66 0.41895,-1.32 0.63477,-2 0.44793,-1.41079 0.89733,-2.8211 1.34814,-4.23096 0.98837,-3.09524 1.96549,-6.194 2.94287,-9.29273 0.50564,-1.60232 1.01215,-3.20438 1.51954,-4.80615 1.2476,-3.94039 2.48469,-7.88351 3.69921,-11.83423 0.22881,-0.74185 0.45762,-1.48371 0.69336,-2.24804 0.43234,-1.40318 0.86214,-2.8081 1.28907,-4.21389 1.78205,-5.77817 1.78205,-5.77817 5.45216,-5.9308 z"
     fill="#1c3456"
     id="path10" />
  <path
     d="m 422,319.20465 c 7.01798,4.32267 13.02609,9.33655 19,15 0.78762,0.73477 1.57523,1.46953 2.38672,2.22656 5.34741,5.1386 9.64948,10.51294 13.61328,16.77344 0.6484,0.99258 1.2968,1.98516 1.96484,3.00781 11.25746,18.27986 16.0851,39.73057 17.03516,60.99219 1.15629,-0.63228 1.15629,-0.63228 2.33594,-1.27734 1.00289,-0.54785 2.00578,-1.09571 3.03906,-1.66016 0.99773,-0.54527 1.99547,-1.09055 3.02344,-1.65234 1.52226,-0.82514 3.05285,-1.6358 4.60156,-2.41016 -2.47435,8.87343 -5.64269,17.48382 -8.8125,26.125 -0.51392,1.40876 -1.02759,2.81762 -1.54102,4.22656 -2.78936,7.643 -5.61935,15.26994 -8.48767,22.88365 -1.5706,4.17476 -3.10295,8.36164 -4.61584,12.55776 -4.30187,11.7856 -8.29344,22.58035 -16.54297,32.20703 -0.46165,0.54398 -0.92329,1.08797 -1.39893,1.64844 -6.14163,7.1649 -12.6764,14.12633 -20.60107,19.35156 -0.66,0 -1.32,0 -2,0 0.33846,0.62455 0.67692,1.2491 1.02563,1.89258 1.53361,2.85828 3.03525,5.73222 4.53687,8.60742 0.53303,0.98227 1.06605,1.96453 1.61523,2.97656 3.17799,6.15095 4.6402,9.76303 2.82227,16.52344 -0.77582,2.36054 -1.62729,4.69795 -2.5625,7 -0.45504,1.13437 -0.91008,2.26875 -1.37891,3.4375 -0.34933,0.84562 -0.69867,1.69125 -1.05859,2.5625 -0.66,0 -1.32,0 -2,0 -0.47196,-0.91886 -0.94392,-1.83772 -1.43018,-2.78442 -8.06808,-15.70597 -16.13817,-31.41093 -24.25732,-47.09058 -0.80752,-1.56198 -0.80752,-1.56198 -1.63135,-3.15552 -0.5174,-0.99797 -1.03479,-1.99595 -1.56787,-3.02417 -0.74709,-1.44584 -0.74709,-1.44584 -1.50928,-2.9209 -1.16584,-2.19825 -2.35568,-4.36453 -3.58691,-6.52539 -0.32886,-0.58516 -0.65771,-1.17032 -0.99654,-1.77322 -0.92725,-1.64436 -1.8677,-3.28126 -2.80888,-4.91769 C 389,497.20465 389,497.20465 389.17529,494.95563 c 1.29028,-2.73946 3.37102,-4.05827 5.76221,-5.87598 18.07428,-14.36135 29.87023,-32.09517 37.375,-53.8125 0.23042,-0.65388 0.46084,-1.30775 0.69824,-1.98145 4.44062,-13.66094 5.50589,-27.57164 5.43531,-41.83691 -0.009,-2.61083 0.0204,-5.21946 0.052,-7.83008 0.0866,-20.68585 -4.66152,-40.15358 -14.51757,-58.39843 -0.97188,-1.99796 -1.52619,-3.84681 -1.98047,-6.01563 z"
     fill="#1c3555"
     id="path11" />
  <path
     d="m 232,348.20465 c 9.44625,-0.0619 18.8925,-0.12375 28.625,-0.1875 4.42914,-0.041 4.42914,-0.041 8.94775,-0.0828 2.3846,-0.009 4.76921,-0.0164 7.15381,-0.0227 1.20229,-0.0154 2.40459,-0.0307 3.64331,-0.0465 11.92162,-0.004 23.65766,1.38473 33.63013,8.33948 0.6123,0.40734 1.22461,0.81469 1.85547,1.23438 8.33584,6.25648 12.78244,16.27549 14.71094,26.27734 2.00705,16.14681 -0.0318,32.04198 -10.25391,45.23828 -7.84659,8.53066 -19.04657,12.31356 -30.3125,13.25 -4.49007,0.1325 -8.97706,0.11663 -13.46875,0.0977 -1.13212,-10e-4 -2.26424,-0.002 -3.43066,-0.003 -4.20021,-0.005 -8.4004,-0.0191 -12.60059,-0.0321 -9.405,-0.0206 -18.81,-0.0412 -28.5,-0.0625 0,-31.02 0,-62.04 0,-94 z m 63,63 c 0,0.66 0,1.32 0,2 1.32,-0.66 2.64,-1.32 4,-2 -1.32,0 -2.64,0 -4,0 z"
     fill="#fdf678"
     id="path12" />
  <path
     d="m 813,716.20465 c -0.33377,2.90379 -0.59441,4.56885 -2.62695,6.72949 -0.71092,0.51724 -1.42184,1.03448 -2.1543,1.56739 -0.81598,0.59619 -1.63195,1.19238 -2.47266,1.80664 -5.02607,3.47106 -10.11478,6.83322 -15.24609,10.14648 -1.16606,0.75667 -2.33191,1.51368 -3.49756,2.271 -2.29724,1.49163 -4.59593,2.98098 -6.896,4.46826 -2.58358,1.67231 -5.16306,3.35051 -7.73925,5.03418 -30.1643,19.6848 -60.99742,38.28688 -92.36719,55.97656 -1.05784,0.59909 -2.11567,1.19818 -3.20557,1.81543 -26.6494,15.09148 -53.71631,29.35359 -80.99493,43.2666 -1.64963,0.84152 -3.29857,1.68436 -4.94745,2.52734 -15.42777,7.87126 -31.09366,15.20905 -46.85205,22.39063 -0.6993,0.31924 -1.39859,0.63849 -2.11908,0.96741 -38.37895,17.51425 -77.22263,33.63867 -116.88092,48.03259 -1.16665,0.42412 -1.16665,0.42412 -2.35687,0.85681 C 339.84675,954.12385 253.25852,978.36319 143,985.20465 c -1.23073,0.0351 -1.23073,0.0351 -2.48633,0.0708 C 95.09081,986.35912 37.06845,982.80477 0,953.20465 c 0.29014,-3.48171 0.72756,-4.74229 3.3125,-7.1875 4.53069,-3.05558 7.10125,-4.31672 12.6875,-3.8125 2.37257,1.25147 4.47638,2.51359 6.6875,4 20.46959,12.92479 44.59642,19.20255 68.3125,23 0.92845,0.15098 1.85689,0.30196 2.81348,0.45752 35.766,5.49836 73.35805,3.8144 109.18652,-0.45752 0.70739,-0.0825 1.41479,-0.165 2.14362,-0.25 94.18988,-11.01419 186.56337,-40.35234 331.52826,-101.22412 3.2607,-1.49497 6.52851,-2.97352 9.79687,-4.45166 16.90837,-7.71363 33.54569,-15.97565 50.17324,-24.2725 1.82587,-0.91069 3.65238,-1.82009 5.47901,-2.72924 14.62235,-7.28627 29.09272,-14.78106 43.38378,-22.69801 3.63939,-2.00472 7.29706,-3.97513 10.95439,-5.94689 11.57793,-6.24265 22.93933,-12.83216 34.27179,-19.50766 3.45742,-2.03056 6.92288,-4.04684 10.39013,-6.06054 15.47961,-8.99982 30.7636,-18.25606 45.87891,-27.85938 0.98323,-0.62165 1.96646,-1.2433 2.97949,-1.88379 10.08305,-6.37667 20.11727,-12.81528 30.02051,-19.46777 1.01488,-0.68094 1.01488,-0.68094 2.05026,-1.37563 3.31884,-2.2283 6.63253,-4.46371 9.93851,-6.71104 1.21457,-0.81893 2.42925,-1.6377 3.64404,-2.4563 1.06106,-0.72034 2.12212,-1.44069 3.21534,-2.18286 9.66618,-5.8963 9.66618,-5.8963 14.15185,-3.92261 z"
     fill="#a8dadc"
     id="path13" />
  <path
     d="m 602,381.20465 c 2.71184,2.71184 3.36941,5.81289 4.46094,9.39453 0.23184,0.7432 0.46368,1.4864 0.70254,2.25212 0.74304,2.38684 1.47737,4.77626 2.21152,7.16585 0.48641,1.56723 0.97338,3.13429 1.46094,4.70117 1.39608,4.49297 2.7816,8.98915 4.16406,13.48633 0.35804,1.16386 0.71607,2.32773 1.08496,3.52686 0.6471,2.10388 1.29408,4.2078 1.94092,6.31176 1.81494,5.89016 3.64532,11.77552 5.47412,17.66138 2.53178,8.14836 5.05737,16.29849 7.5625,24.45508 0.87433,2.83975 1.75685,5.67684 2.64062,8.51367 0.516,1.67697 1.03163,3.35405 1.54688,5.03125 0.40219,1.28004 0.40219,1.28004 0.8125,2.58594 0.25266,0.82758 0.50531,1.65515 0.76562,2.50781 0.22591,0.72896 0.45182,1.45793 0.68457,2.20898 C 638,493.20465 638,493.20465 638,498.20465 c -23.76,0 -47.52,0 -72,0 1.84274,-7.37095 3.69972,-14.60061 5.96094,-21.83203 0.27244,-0.87968 0.54489,-1.75936 0.82559,-2.6657 0.57156,-1.84311 1.14468,-3.68575 1.71933,-5.5279 0.86376,-2.76961 1.72233,-5.54079 2.58008,-8.31226 2.47697,-7.98318 4.9812,-15.95247 7.65234,-23.87305 1.85041,-5.49769 3.53537,-11.00978 5.07422,-16.60156 2.39062,-8.51322 4.91044,-16.9827 7.5,-25.4375 0.34974,-1.1496 0.69948,-2.2992 1.05981,-3.48364 0.32702,-1.06243 0.65404,-2.12486 0.99097,-3.21948 0.29173,-0.95037 0.58346,-1.90073 0.88403,-2.87989 C 601,382.20465 601,382.20465 602,381.20465 Z"
     fill="#fef678"
     id="path14" />
  <path
     d="m 1360,133.20465 c -0.2969,1.85938 -0.2969,1.85938 -1,4 -3.2037,2.21792 -5.7448,3.68619 -9.5,4.625 -3.1814,-0.79536 -4.8053,-2.60335 -7.1797,-4.77734 -18.7021,-14.89239 -46.0795,-19.25766 -69.3203,-19.84766 -1.2032,-0.0307 -1.2032,-0.0307 -2.4307,-0.062 -68.2831,-1.47593 -136.1304,16.2458 -200.5183,37.39075 -3.0956,1.01315 -6.1967,2.00882 -9.2971,3.0072 -59.8033,19.41656 -118.08088,45.02804 -174.14843,73.34766 -3.23476,1.63282 -6.47864,3.24659 -9.72641,4.85339 -2.5866,1.28 -5.17169,2.56302 -7.7565,3.84662 -1.32819,0.65918 -2.6568,1.31751 -3.98584,1.97497 -7.9419,3.93294 -15.69721,8.05884 -23.32422,12.57892 -6.25964,3.6752 -11.41604,5.52876 -18.8125,4.0625 4.67963,-4.20171 10.06511,-6.7933 15.625,-9.625 1.88833,-0.97076 3.77634,-1.94214 5.66406,-2.91406 1.03947,-0.53359 2.07894,-1.06719 3.1499,-1.61695 3.38896,-1.74792 6.75934,-3.53016 10.12977,-5.31349 11.11614,-5.87868 22.31077,-11.59104 33.55627,-17.218 0.95111,-0.47605 1.90221,-0.95211 2.88214,-1.44259 16.85724,-8.42265 33.85389,-16.44704 51.10126,-24.03641 1.88199,-0.82926 3.76204,-1.6628 5.6416,-2.49756 68.6278,-30.44889 139.9301,-55.88774 213.25,-72.33594 0.659,-0.14804 1.318,-0.29608 1.997,-0.44861 58.464,-13.05864 143.6269,-29.593636 194.003,12.44861 z"
     fill="#a8dadd"
     id="path15" />
  <path
     d="m 259,375.20465 c 5.65125,-0.0825 11.3025,-0.165 17.125,-0.25 1.77262,-0.0364 3.54524,-0.0728 5.37158,-0.11035 1.4204,-0.0117 2.84081,-0.0219 4.26123,-0.0303 0.72502,-0.0205 1.45004,-0.0409 2.19702,-0.062 5.18332,-0.004 8.04003,1.21451 12.04517,4.45264 4.40993,4.86613 4.20656,10.05399 4.25,16.375 0.0206,0.7425 0.0412,1.485 0.0625,2.25 0.0345,4.88207 -0.69558,8.10598 -3.3125,12.375 -1,1 -1,1 -3.5625,1.0625 -0.80438,-0.0206 -1.60875,-0.0412 -2.4375,-0.0625 0,0.99 0,1.98 0,3 -3.06614,1.53307 -6.27081,1.12142 -9.63281,1.09766 -0.99955,-10e-4 -0.99955,-10e-4 -2.01929,-0.003 -2.49098,-0.005 -4.98194,-0.0192 -7.4729,-0.0321 -8.35312,-0.0309 -8.35312,-0.0309 -16.875,-0.0625 0,-13.2 0,-26.4 0,-40 z"
     fill="#1c3555"
     id="path16" />
  <path
     d="m 1394.6875,4.9546509 c 5.1472,5.008115 6.9366,10.4154471 7.625,17.4375001 -0.5543,6.762795 -2.5999,12.713437 -7.75,17.3125 -5.9239,4.424159 -11.2355,5.383709 -18.5625,4.5 -7.0097,-2.06458 -11.3017,-6.782195 -15.1445,-12.789063 -1.1914,-3.07899 -1.1574,-5.792976 -1.168,-9.085937 -0.017,-1.193672 -0.034,-2.387344 -0.051,-3.617187 0.6091,-5.881571 3.4135,-10.2094657 7.3633,-14.5078131 9.0025,-6.3017599 18.7326,-5.08112762 27.6875,0.75 z"
     fill="#a8dadd"
     id="path17" />
  <path
     d="m 854,293.20465 c 6.93,0 13.86,0 21,0 1.74181,4.01599 3.48343,8.03207 5.22461,12.04834 0.58941,1.35942 1.17893,2.7188 1.76855,4.07813 0.28328,0.65307 0.56655,1.30614 0.8584,1.979 0.2839,0.65394 0.56779,1.30787 0.86029,1.98163 0.57402,1.3261 1.1455,2.6533 1.71448,3.98157 1.40815,3.28193 2.84847,6.53864 4.37738,9.76629 3.64905,7.8097 5.31526,12.25658 2.34033,20.55176 -1.00035,2.57303 -2.08487,5.09097 -3.20654,7.61328 -0.37705,0.87012 -0.7541,1.74023 -1.14258,2.63672 -0.92251,2.12529 -1.85422,4.24599 -2.79492,6.36328 -0.66,0 -1.32,0 -2,0 -5.9643,-14.1066 -11.92196,-28.21598 -17.87299,-42.32819 -1.00212,-2.37574 -2.00504,-4.75115 -3.00836,-7.1264 -1.43972,-3.40915 -2.87377,-6.82066 -4.30615,-10.23291 -0.40267,-0.95197 -0.80534,-1.90394 -1.22021,-2.88476 -0.35401,-0.84627 -0.70802,-1.69254 -1.07276,-2.56446 -0.29801,-0.70858 -0.59603,-1.41716 -0.90307,-2.14721 C 854,295.20465 854,295.20465 854,293.20465 Z"
     fill="#1c3454"
     id="path18" />
  <path
     d="m 1328,8.2046509 c 3.8543,1.7895063 5.4977,3.2633431 7.875,6.7500001 1.5937,4.60397 2.0958,8.629952 0.3984,13.210937 -2.0715,3.991585 -4.0493,6.511192 -8.2734,8.039063 -4.6259,0.702857 -8.9715,1.080902 -13.1992,-1.171875 -3.3682,-2.739727 -5.9894,-5.466794 -6.8008,-9.828125 0.029,-5.26301 0.5626,-9.826047 4,-14 4.5176,-4.094116 10.249,-3.7516005 16,-3.0000001 z"
     fill="#a9dadc"
     id="path19" />
  <path
     d="m 128,834.20465 c 2.73155,1.04442 5.17757,2.10737 7.6875,3.625 4.5075,1.87104 8.49246,1.99316 13.3125,1.375 3.38509,-1.44 3.38509,-1.44 6,-3 0.66,0.33 1.32,0.66 2,1 -0.42152,0.62906 -0.84305,1.25813 -1.27734,1.90625 -4.71705,7.36969 -6.65869,12.32782 -4.78516,21.09375 0.34097,1.33677 0.69041,2.67156 1.0625,4 -0.70125,-0.36094 -1.4025,-0.72187 -2.125,-1.09375 -5.9486,-2.90964 -10.24575,-4.80513 -16.875,-3.90625 -3.30101,1.39925 -3.30101,1.39925 -6,3 -0.66,0 -1.32,0 -2,0 1.02941,-3.2466 2.12201,-6.24871 3.625,-9.3125 2.42476,-6.50277 2.01094,-12.26239 -0.625,-18.6875 z"
     fill="#a8dadc"
     id="path20" />
  <path
     d="m 137,780.20465 c 0.62648,0.42152 1.25297,0.84305 1.89844,1.27734 0.81726,0.54786 1.63453,1.09571 2.47656,1.66016 0.81211,0.54527 1.62422,1.09055 2.46094,1.65234 4.84603,3.1578 9.60767,2.83623 15.16406,1.91016 0.66,-0.165 1.32,-0.33 2,-0.5 0,0.66 0,1.32 0,2 -0.66,0 -1.32,0 -2,0 -0.26813,0.55688 -0.53625,1.11375 -0.8125,1.6875 -1.1875,2.3125 -1.1875,2.3125 -2.75,4.625 -2.77771,5.1931 -2.67679,10.04183 -1.4375,15.6875 -2.51573,-1.1611 -4.56215,-2.41224 -6.8125,-4.0625 -4.15455,-2.52531 -7.56254,-3.40344 -12.41016,-2.54297 -1.94127,0.4759 -3.86196,1.03422 -5.77734,1.60547 0.61488,-0.87012 0.61488,-0.87012 1.24219,-1.75781 5.49398,-7.96497 7.1005,-13.60878 6.75781,-23.24219 z"
     fill="#a8dadc"
     id="path21" />
  <path
     d="m 1285,18.204651 c 3.2625,1.898182 5.3874,3.292848 6.6953,6.9375 0.6223,3.49564 0.5119,5.571714 -0.8828,8.875 -3.168,3.823467 -4.6061,5.031831 -9.6875,5.6875 -3.3813,-0.151686 -4.4521,-0.690304 -7.5625,-2.5 -2.768,-3.240621 -3.5156,-4.924869 -3.7344,-9.074219 0.3445,-3.859479 2.316,-6.006529 4.8594,-8.738281 3.4368,-1.764842 6.5918,-1.930215 10.3125,-1.1875 z"
     fill="#a8dadd"
     id="path22" />
  <path
     d="m 206,804.20465 c 0.66,0 1.32,0 2,0 -0.52594,1.70156 -0.52594,1.70156 -1.0625,3.4375 -1.16166,4.67153 -1.09919,8.88807 0.0625,13.5625 1.42675,2.38028 1.42675,2.38028 3,4 0,0.66 0,1.32 0,2 -0.825,-0.165 -1.65,-0.33 -2.5,-0.5 -8.52621,-1.21803 -12.59759,-0.64009 -19.5,4.5 0.11859,-0.90621 0.23719,-1.81242 0.35937,-2.74609 0.83359,-7.87741 0.85428,-13.41803 -3.35937,-20.25391 1.2375,0.2475 1.2375,0.2475 2.5,0.5 7.34014,1.06476 7.34014,1.06476 14.375,-0.875 2.1842,-1.59609 2.1842,-1.59609 4.125,-3.625 z"
     fill="#a8dbdd"
     id="path23" />
</svg>
