<svg xmlns="http://www.w3.org/2000/svg" xmlns:xlink="http://www.w3.org/1999/xlink" width="41.783mm" height="44.221mm" viewBox="4037.6 3027.2 164.5 174.1"><title></title><style type="text/css">
*[layerid="1"] {stroke:#000000;fill:#000000;}
*[layerid="2"] {stroke:#000000;fill:#000000;}
*[layerid="3"] {stroke:#000000;fill:#000000;}
*[layerid="4"] {stroke:#000000;fill:#000000;}
*[layerid="5"] {stroke:#000000;fill:#000000;}
*[layerid="6"] {stroke:#000000;fill:#000000;}
*[layerid="7"] {stroke:#000000;fill:#000000;}
*[layerid="8"] {stroke:#000000;fill:#000000;}
*[layerid="9"] {stroke:#000000;fill:#000000;}
*[layerid="10"] {stroke:#000000;fill:#000000;}
*[layerid="11"] {stroke:#000000;fill:#000000;}
*[layerid="12"] {stroke:#000000;fill:#000000;}
*[layerid="13"] {stroke:#000000;fill:#000000;}
*[layerid="14"] {stroke:#000000;fill:#000000;}
*[layerid="15"] {stroke:#000000;fill:#000000;}
*[layerid="19"] {stroke:#000000;fill:#000000;}
*[layerid="21"] {stroke:#000000;fill:#000000;}
*[layerid="22"] {stroke:#000000;fill:#000000;}
*[layerid="23"] {stroke:#000000;fill:#000000;}
*[layerid="24"] {stroke:#000000;fill:#000000;}
*[layerid="25"] {stroke:#000000;fill:#000000;}
*[layerid="26"] {stroke:#000000;fill:#000000;}
*[layerid="27"] {stroke:#000000;fill:#000000;}
*[layerid="28"] {stroke:#000000;fill:#000000;}
*[layerid="29"] {stroke:#000000;fill:#000000;}
*[layerid="30"] {stroke:#000000;fill:#000000;}
*[layerid="31"] {stroke:#000000;fill:#000000;}
*[layerid="32"] {stroke:#000000;fill:#000000;}
*[layerid="33"] {stroke:#000000;fill:#000000;}
*[layerid="34"] {stroke:#000000;fill:#000000;}
*[layerid="35"] {stroke:#000000;fill:#000000;}
*[layerid="36"] {stroke:#000000;fill:#000000;}
*[layerid="37"] {stroke:#000000;fill:#000000;}
*[layerid="38"] {stroke:#000000;fill:#000000;}
*[layerid="39"] {stroke:#000000;fill:#000000;}
*[layerid="40"] {stroke:#000000;fill:#000000;}
*[layerid="41"] {stroke:#000000;fill:#000000;}
*[layerid="42"] {stroke:#000000;fill:#000000;}
*[layerid="43"] {stroke:#000000;fill:#000000;}
*[layerid="44"] {stroke:#000000;fill:#000000;}
*[layerid="45"] {stroke:#000000;fill:#000000;}
*[layerid="46"] {stroke:#000000;fill:#000000;}
*[layerid="47"] {stroke:#000000;fill:#000000;}
*[layerid="48"] {stroke:#000000;fill:#000000;}
*[layerid="49"] {stroke:#000000;fill:#000000;}
*[layerid="50"] {stroke:#000000;fill:#000000;}
*[layerid="51"] {stroke:#000000;fill:#000000;}
*[layerid="52"] {stroke:#000000;fill:#000000;}
*[layerid="99"] {stroke:#000000;fill:#000000;}
*[layerid="100"] {stroke:#000000;fill:#000000;}
*[layerid="101"] {stroke:#000000;fill:#000000;}
*[layerid="Hole"] {stroke:#000000;fill:#000000;}
*[layerid="DRCError"] {stroke:#000000;fill:#000000;}
*[fill="none"] {fill: none;}
*[stroke="none"] {stroke: none;}
path, polyline, polygon, line {stroke-linecap:round;}
g[c_partid="part_pad"][layerid="1"] ellipse:not([c_etype="pad_outer"]) {fill:#000000;}
g[c_partid="part_pad"][layerid="1"] polygon:not([c_etype="pad_outer"]) {fill:#000000;}
g[c_partid="part_pad"][layerid="1"] polyline:not([c_etype="pad_outer"]) {stroke:#000000;}
g[c_partid="part_pad"][layerid="2"] ellipse:not([c_etype="pad_outer"]) {fill:#000000;}
g[c_partid="part_pad"][layerid="2"] polygon:not([c_etype="pad_outer"]) {fill:#000000;}
g[c_partid="part_pad"][layerid="2"] polyline:not([c_etype="pad_outer"]) {stroke:#000000;}
g[c_partid="part_pad"][layerid="11"] ellipse:not([c_etype="pad_outer"]) {fill:#000000;}
g[c_partid="part_pad"][layerid="11"] polygon:not([c_etype="pad_outer"]) {fill:#000000;}
g[c_partid="part_pad"][layerid="11"] polyline:not([c_etype="pad_outer"]) {stroke:#000000;}
g[c_partid="part_pad"][layerid="11"] circle {fill:#FFFFFF;}
g[c_partid="part_pad"][layerid="11"] > polyline:nth-of-type(2) {stroke:#FFFFFF;}
g[c_partid="part_pad"][layerid="11"][c_shape="ELLIPSE"]  polyline:nth-last-of-type(1) {stroke:#FFFFFF;}
g[c_partid="part_pad"][layerid="11"][c_shape="RECT"]  polyline:nth-last-of-type(1) {stroke:#FFFFFF;}
g[c_partid="part_pad"][layerid="11"][c_shape="POLYGON"]  polyline:nth-last-of-type(1) {stroke:#FFFFFF;}
g[c_partid="part_via"] > * + circle, #gCurParts g[c_partid="part_via"] > * + circle {fill:#FFFFFF;}
g[c_partid="part_pad"] > polygon[c_etype="pad_outer"], #gCurParts g[c_partid="part_pad"] > polygon[c_etype="pad_outer"] {stroke-linejoin: round;stroke-miterlimit: 100;}
g[c_partid="part_hole"] > circle {fill: #FFFFFF;}path, polyline, polygon {stroke-linejoin:round;}
rect, circle, ellipse, polyline, line, polygon, path {shape-rendering:crispEdges;}
</style>
<rect x="4037.6" y="3027.2" width="164.5" height="174.1" fill="#FFFFFF" stroke="none"/><polyline points="4181.5001 3109 4185.9581 3113.458 4185.9581 3120.898 4183.6911 3123.165 4166.1061 3123.165 4163.5001 3125.771 4163.5001 3131.229 4142.7391 3151.99 4125.4631 3151.99 4104.4531 3173" stroke-width="1"  stroke-linecap="round" fill="none" layerid="1" net="Q1_2" id="gge1125" locked="0" /><polyline points="4100.9921 3173 4104.4531 3173" stroke-width="1"  stroke-linecap="round" fill="none" layerid="1" net="Q1_2" id="gge1122" locked="0" /><polyline points="4168.5001 3128.5 4128.6441 3168.356 4125.0081 3168.356" stroke-width="1"  stroke-linecap="round" fill="none" layerid="1" net="LED1_2" id="gge1119" locked="0" /><polyline points="4125.0081 3173 4125.0081 3168.356" stroke-width="1"  stroke-linecap="round" fill="none" layerid="1" net="LED1_2" id="gge1116" locked="0" /><polyline points="4147.0001 3056.5 4173.3601 3056.5 4177.0001 3060.14" stroke-width="1"  stroke-linecap="round" fill="none" layerid="1" net="P1_2" id="gge1113" locked="0" /><polyline points="4147.0001 3106.5 4169.0001 3106.5 4181.5001 3119" stroke-width="1"  stroke-linecap="round" fill="none" layerid="1" net="Q1_3" id="gge1110" locked="0" /><polyline points="4158.5001 3128.5 4168.0001 3119 4181.5001 3119" stroke-width="1"  stroke-linecap="round" fill="none" layerid="1" net="Q1_3" id="gge1107" locked="0" /><polyline points="4062.5001 3061 4057.9141 3065.586 4057.9141 3082.865 4060.4901 3085.441 4069.1881 3085.441 4072.7831 3081.846 4146.3021 3081.846 4147.0001 3081.148" stroke-width="1"  stroke-linecap="round" fill="none" layerid="1" net="Q1_1" id="gge1104" locked="0" /><polyline points="4147.0001 3076.5 4147.0001 3078.824" stroke-width="1"  stroke-linecap="round" fill="none" layerid="1" net="Q1_1" id="gge1101" locked="0" /><polyline points="4147.0001 3078.824 4147.0001 3081.148" stroke-width="1"  stroke-linecap="round" fill="none" layerid="1" net="Q1_1" id="gge1098" locked="0" /><polyline points="4147.0001 3078.824 4148.8241 3078.824 4168.5001 3098.5" stroke-width="1"  stroke-linecap="round" fill="none" layerid="1" net="Q1_1" id="gge1095" locked="0" /><polyline points="4168.5001 3098.5 4181.0001 3098.5 4181.5001 3099" stroke-width="1"  stroke-linecap="round" fill="none" layerid="1" net="Q1_1" id="gge1092" locked="0" /><polyline points="4062.5001 3081 4062.5001 3078.75 4080.1021 3061.148 4084.0001 3061.148" stroke-width="1"  stroke-linecap="round" fill="none" layerid="1" net="U1_1" id="gge1089" locked="0" /><polyline points="4084.0001 3056.5 4084.0001 3061.148" stroke-width="1"  stroke-linecap="round" fill="none" layerid="1" net="U1_1" id="gge1086" locked="0" /><polyline points="4062.5001 3071 4062.5001 3068.4 4079.0531 3051.847 4132.3471 3051.847 4142.3521 3061.852 4147.0001 3061.852" stroke-width="1"  stroke-linecap="round" fill="none" layerid="1" net="P1_1" id="gge1083" locked="0" /><polyline points="4147.0001 3066.5 4147.0001 3064.176" stroke-width="1"  stroke-linecap="round" fill="none" layerid="1" net="P1_1" id="gge1080" locked="0" /><polyline points="4147.0001 3064.176 4147.0001 3061.852" stroke-width="1"  stroke-linecap="round" fill="none" layerid="1" net="P1_1" id="gge1077" locked="0" /><polyline points="4147.0001 3064.176 4162.6841 3079.86 4177.0001 3079.86" stroke-width="1"  stroke-linecap="round" fill="none" layerid="1" net="P1_1" id="gge1074" locked="0" /><polyline points="4177.0001 3079.86 4185.6081 3088.468 4185.6081 3100.712 4182.6421 3103.678 4163.6781 3103.678 4158.5001 3098.5" stroke-width="1"  stroke-linecap="round" fill="none" layerid="1" net="P1_1" id="gge1071" locked="0" /><g c_partid="part_pad" c_etype="pinpart" c_origin="4100.992,3173" layerid="1" number="1" net="Q1_2" plated ="Y"  id="gge57" locked="0" c_rotation="90" c_width="4.72" c_height="4.72" title="Q1_2" c_shape="RECT" pasteexpansion="0" solderexpansion="0.2"><polygon  c_etype="pad_shell" points="4098.6321 3175.36 4098.6321 3170.64 4103.3521 3170.64 4103.3521 3175.36" layerid="1" stroke-width="0" /><circle c_etype="pad_hole" cx="4100.9921" cy="3173" r="0" layerid="1" stroke-width="0"/></g><g c_partid="part_pad" c_etype="pinpart" c_origin="4125.008,3173" layerid="1" number="2" net="LED1_2" plated ="Y"  id="gge72" locked="0" c_rotation="0" c_width="4.7244" c_height="7.0866" title="LED1_2" c_shape="RECT" pasteexpansion="0" solderexpansion="0.2"><polygon  c_etype="pad_shell" points="4122.6458 3169.4567 4127.3702 3169.4567 4127.3702 3176.5433 4122.6458 3176.5433" layerid="1" stroke-width="0" /><circle c_etype="pad_hole" cx="4125.008" cy="3172.9999" r="0" layerid="1" stroke-width="0"/></g><g c_partid="part_pad" c_etype="pinpart" c_origin="4084,3056.5" layerid="1" number="1" net="U1_1" plated ="Y"  id="gge591" locked="0" c_rotation="0" c_width="8.276" c_height="7.094" title="U1_1" c_shape="RECT" pasteexpansion="0.0000" solderexpansion="0.2000"><polygon  c_etype="pad_shell" points="4079.862 3052.953 4088.138 3052.953 4088.138 3060.047 4079.862 3060.047" layerid="1" stroke-width="0" /><circle c_etype="pad_hole" cx="4084" cy="3056.5" r="0" layerid="1" stroke-width="0"/></g><g c_partid="part_pad" c_etype="pinpart" c_origin="4084,3066.5" layerid="1" number="2" net="U1_2" plated ="Y"  id="gge606" locked="0" c_rotation="0" c_width="8.276" c_height="7.094" title="U1_2" c_shape="RECT" pasteexpansion="0.0000" solderexpansion="0.2000"><polygon  c_etype="pad_shell" points="4079.862 3062.953 4088.138 3062.953 4088.138 3070.047 4079.862 3070.047" layerid="1" stroke-width="0" /><circle c_etype="pad_hole" cx="4084" cy="3066.5" r="0" layerid="1" stroke-width="0"/></g><g c_partid="part_pad" c_etype="pinpart" c_origin="4084,3076.5" layerid="1" number="3" net="U1_3" plated ="Y"  id="gge621" locked="0" c_rotation="0" c_width="8.276" c_height="7.094" title="U1_3" c_shape="RECT" pasteexpansion="0.0000" solderexpansion="0.2000"><polygon  c_etype="pad_shell" points="4079.862 3072.953 4088.138 3072.953 4088.138 3080.047 4079.862 3080.047" layerid="1" stroke-width="0" /><circle c_etype="pad_hole" cx="4084" cy="3076.5" r="0" layerid="1" stroke-width="0"/></g><g c_partid="part_pad" c_etype="pinpart" c_origin="4084,3086.5" layerid="1" number="4" net="U1_4" plated ="Y"  id="gge636" locked="0" c_rotation="0" c_width="8.276" c_height="7.0944" title="U1_4" c_shape="RECT" pasteexpansion="0.0000" solderexpansion="0.2000"><polygon  c_etype="pad_shell" points="4079.862 3082.9528 4088.138 3082.9528 4088.138 3090.0472 4079.862 3090.0472" layerid="1" stroke-width="0" /><circle c_etype="pad_hole" cx="4084" cy="3086.5" r="0" layerid="1" stroke-width="0"/></g><g c_partid="part_pad" c_etype="pinpart" c_origin="4084,3096.5" layerid="1" number="5" net="U1_5" plated ="Y"  id="gge651" locked="0" c_rotation="0" c_width="8.276" c_height="7.0944" title="U1_5" c_shape="RECT" pasteexpansion="0.0000" solderexpansion="0.2000"><polygon  c_etype="pad_shell" points="4079.862 3092.9528 4088.138 3092.9528 4088.138 3100.0472 4079.862 3100.0472" layerid="1" stroke-width="0" /><circle c_etype="pad_hole" cx="4084" cy="3096.5" r="0" layerid="1" stroke-width="0"/></g><g c_partid="part_pad" c_etype="pinpart" c_origin="4084,3106.5" layerid="1" number="6" net="U1_6" plated ="Y"  id="gge666" locked="0" c_rotation="0" c_width="8.276" c_height="7.0944" title="U1_6" c_shape="RECT" pasteexpansion="0.0000" solderexpansion="0.2000"><polygon  c_etype="pad_shell" points="4079.862 3102.9528 4088.138 3102.9528 4088.138 3110.0472 4079.862 3110.0472" layerid="1" stroke-width="0" /><circle c_etype="pad_hole" cx="4084" cy="3106.5" r="0" layerid="1" stroke-width="0"/></g><g c_partid="part_pad" c_etype="pinpart" c_origin="4084,3116.5" layerid="1" number="7" net="U1_7" plated ="Y"  id="gge681" locked="0" c_rotation="0" c_width="8.276" c_height="7.0944" title="U1_7" c_shape="RECT" pasteexpansion="0.0000" solderexpansion="0.2000"><polygon  c_etype="pad_shell" points="4079.862 3112.9528 4088.138 3112.9528 4088.138 3120.0472 4079.862 3120.0472" layerid="1" stroke-width="0" /><circle c_etype="pad_hole" cx="4084" cy="3116.5" r="0" layerid="1" stroke-width="0"/></g><g c_partid="part_pad" c_etype="pinpart" c_origin="4084,3126.5" layerid="1" number="8" net="U1_8" plated ="Y"  id="gge696" locked="0" c_rotation="0" c_width="8.276" c_height="7.0944" title="U1_8" c_shape="RECT" pasteexpansion="0.0000" solderexpansion="0.2000"><polygon  c_etype="pad_shell" points="4079.862 3122.9528 4088.138 3122.9528 4088.138 3130.0472 4079.862 3130.0472" layerid="1" stroke-width="0" /><circle c_etype="pad_hole" cx="4084" cy="3126.5" r="0" layerid="1" stroke-width="0"/></g><g c_partid="part_pad" c_etype="pinpart" c_origin="4147,3126.5" layerid="1" number="9" net="U1_9" plated ="Y"  id="gge711" locked="0" c_rotation="0" c_width="8.276" c_height="7.0944" title="U1_9" c_shape="RECT" pasteexpansion="0.0000" solderexpansion="0.2000"><polygon  c_etype="pad_shell" points="4142.862 3122.9528 4151.138 3122.9528 4151.138 3130.0472 4142.862 3130.0472" layerid="1" stroke-width="0" /><circle c_etype="pad_hole" cx="4147" cy="3126.5" r="0" layerid="1" stroke-width="0"/></g><g c_partid="part_pad" c_etype="pinpart" c_origin="4147,3116.5" layerid="1" number="10" net="U1_10" plated ="Y"  id="gge726" locked="0" c_rotation="0" c_width="8.276" c_height="7.0944" title="U1_10" c_shape="RECT" pasteexpansion="0.0000" solderexpansion="0.2000"><polygon  c_etype="pad_shell" points="4142.862 3112.9528 4151.138 3112.9528 4151.138 3120.0472 4142.862 3120.0472" layerid="1" stroke-width="0" /><circle c_etype="pad_hole" cx="4147" cy="3116.5" r="0" layerid="1" stroke-width="0"/></g><g c_partid="part_pad" c_etype="pinpart" c_origin="4147,3106.5" layerid="1" number="11" net="Q1_3" plated ="Y"  id="gge741" locked="0" c_rotation="0" c_width="8.276" c_height="7.0944" title="Q1_3" c_shape="RECT" pasteexpansion="0.0000" solderexpansion="0.2000"><polygon  c_etype="pad_shell" points="4142.862 3102.9528 4151.138 3102.9528 4151.138 3110.0472 4142.862 3110.0472" layerid="1" stroke-width="0" /><circle c_etype="pad_hole" cx="4147" cy="3106.5" r="0" layerid="1" stroke-width="0"/></g><g c_partid="part_pad" c_etype="pinpart" c_origin="4147,3096.5" layerid="1" number="12" net="U1_12" plated ="Y"  id="gge756" locked="0" c_rotation="0" c_width="8.276" c_height="7.0944" title="U1_12" c_shape="RECT" pasteexpansion="0.0000" solderexpansion="0.2000"><polygon  c_etype="pad_shell" points="4142.862 3092.9528 4151.138 3092.9528 4151.138 3100.0472 4142.862 3100.0472" layerid="1" stroke-width="0" /><circle c_etype="pad_hole" cx="4147" cy="3096.5" r="0" layerid="1" stroke-width="0"/></g><g c_partid="part_pad" c_etype="pinpart" c_origin="4147,3086.5" layerid="1" number="13" net="U1_13" plated ="Y"  id="gge771" locked="0" c_rotation="0" c_width="8.276" c_height="7.0944" title="U1_13" c_shape="RECT" pasteexpansion="0.0000" solderexpansion="0.2000"><polygon  c_etype="pad_shell" points="4142.862 3082.9528 4151.138 3082.9528 4151.138 3090.0472 4142.862 3090.0472" layerid="1" stroke-width="0" /><circle c_etype="pad_hole" cx="4147" cy="3086.5" r="0" layerid="1" stroke-width="0"/></g><g c_partid="part_pad" c_etype="pinpart" c_origin="4147,3076.5" layerid="1" number="14" net="Q1_1" plated ="Y"  id="gge786" locked="0" c_rotation="0" c_width="8.276" c_height="7.094" title="Q1_1" c_shape="RECT" pasteexpansion="0.0000" solderexpansion="0.2000"><polygon  c_etype="pad_shell" points="4142.862 3072.953 4151.138 3072.953 4151.138 3080.047 4142.862 3080.047" layerid="1" stroke-width="0" /><circle c_etype="pad_hole" cx="4147" cy="3076.5" r="0" layerid="1" stroke-width="0"/></g><g c_partid="part_pad" c_etype="pinpart" c_origin="4147,3066.5" layerid="1" number="15" net="P1_1" plated ="Y"  id="gge801" locked="0" c_rotation="0" c_width="8.276" c_height="7.094" title="P1_1" c_shape="RECT" pasteexpansion="0.0000" solderexpansion="0.2000"><polygon  c_etype="pad_shell" points="4142.862 3062.953 4151.138 3062.953 4151.138 3070.047 4142.862 3070.047" layerid="1" stroke-width="0" /><circle c_etype="pad_hole" cx="4147" cy="3066.5" r="0" layerid="1" stroke-width="0"/></g><g c_partid="part_pad" c_etype="pinpart" c_origin="4147,3056.5" layerid="1" number="16" net="P1_2" plated ="Y"  id="gge816" locked="0" c_rotation="0" c_width="8.276" c_height="7.094" title="P1_2" c_shape="RECT" pasteexpansion="0.0000" solderexpansion="0.2000"><polygon  c_etype="pad_shell" points="4142.862 3052.953 4151.138 3052.953 4151.138 3060.047 4142.862 3060.047" layerid="1" stroke-width="0" /><circle c_etype="pad_hole" cx="4147" cy="3056.5" r="0" layerid="1" stroke-width="0"/></g><g c_partid="part_pad" c_etype="pinpart" c_origin="4177,3079.86" layerid="11" number="1" net="P1_1" plated ="Y"  id="gge156" locked="0" c_rotation="90" c_width="7.874" c_height="7.874" title="P1_1" c_shape="ELLIPSE" pasteexpansion="0" solderexpansion="0.2"><ellipse c_etype="pad_shell" cx="4177" cy="3079.86" rx="3.937" ry="3.937" layerid="11" stroke-width="0"/><circle c_etype="pad_hole" cx="4177" cy="3079.86" r="2.5591" layerid="11" stroke-width="0"/></g><g c_partid="part_pad" c_etype="pinpart" c_origin="4177,3060.14" layerid="11" number="2" net="P1_2" plated ="Y"  id="gge171" locked="0" c_rotation="90" c_width="7.874" c_height="7.874" title="P1_2" c_shape="ELLIPSE" pasteexpansion="0" solderexpansion="0.2"><ellipse c_etype="pad_shell" cx="4177" cy="3060.14" rx="3.937" ry="3.937" layerid="11" stroke-width="0"/><circle c_etype="pad_hole" cx="4177" cy="3060.14" r="2.5591" layerid="11" stroke-width="0"/></g><g c_partid="part_pad" c_etype="pinpart" c_origin="4181.5,3119" layerid="11" number="3" net="Q1_3" plated ="Y"  id="gge222" locked="0" c_rotation="270" c_width="5.9055" c_height="5.9055" title="Q1_3" c_shape="ELLIPSE" pasteexpansion="0" solderexpansion="0.4016"><ellipse c_etype="pad_shell" cx="4181.5" cy="3119" rx="2.95275" ry="2.95275" layerid="11" stroke-width="0"/><circle c_etype="pad_hole" cx="4181.5" cy="3119" r="1.7717" layerid="11" stroke-width="0"/></g><g c_partid="part_pad" c_etype="pinpart" c_origin="4181.5,3109" layerid="11" number="2" net="Q1_2" plated ="Y"  id="gge237" locked="0" c_rotation="270" c_width="5.9055" c_height="5.9055" title="Q1_2" c_shape="ELLIPSE" pasteexpansion="0" solderexpansion="0.4"><ellipse c_etype="pad_shell" cx="4181.5" cy="3109" rx="2.95275" ry="2.95275" layerid="11" stroke-width="0"/><circle c_etype="pad_hole" cx="4181.5" cy="3109" r="1.7717" layerid="11" stroke-width="0"/></g><g c_partid="part_pad" c_etype="pinpart" c_origin="4181.5,3099" layerid="11" number="1" net="Q1_1" plated ="Y"  id="gge252" locked="0" c_rotation="270" c_width="5.9055" c_height="5.9055" title="Q1_1" c_shape="ELLIPSE" pasteexpansion="0" solderexpansion="0.4"><ellipse c_etype="pad_shell" cx="4181.5" cy="3099" rx="2.95275" ry="2.95275" layerid="11" stroke-width="0"/><circle c_etype="pad_hole" cx="4181.5" cy="3099" r="1.7717" layerid="11" stroke-width="0"/></g><g c_partid="part_pad" c_etype="pinpart" c_origin="4168.5,3128.5" layerid="11" number="1" net="LED1_2" plated ="Y"  id="gge327" locked="0" c_rotation="90" c_width="7.4" c_height="7.4" title="LED1_2" c_shape="ELLIPSE" pasteexpansion="0" solderexpansion="0.2"><ellipse c_etype="pad_shell" cx="4168.5" cy="3128.5" rx="3.7" ry="3.7" layerid="11" stroke-width="0"/><circle c_etype="pad_hole" cx="4168.5" cy="3128.5" r="1.77" layerid="11" stroke-width="0"/></g><g c_partid="part_pad" c_etype="pinpart" c_origin="4168.5,3098.5" layerid="11" number="2" net="Q1_1" plated ="Y"  id="gge342" locked="0" c_rotation="90" c_width="7.4" c_height="7.4" title="Q1_1" c_shape="ELLIPSE" pasteexpansion="0" solderexpansion="0.2"><ellipse c_etype="pad_shell" cx="4168.5" cy="3098.5" rx="3.7" ry="3.7" layerid="11" stroke-width="0"/><circle c_etype="pad_hole" cx="4168.5" cy="3098.5" r="1.77" layerid="11" stroke-width="0"/></g><g c_partid="part_pad" c_etype="pinpart" c_origin="4158.5,3128.5" layerid="11" number="1" net="Q1_3" plated ="Y"  id="gge417" locked="0" c_rotation="90" c_width="7.4" c_height="7.4" title="Q1_3" c_shape="ELLIPSE" pasteexpansion="0" solderexpansion="0.2"><ellipse c_etype="pad_shell" cx="4158.5" cy="3128.5" rx="3.7" ry="3.7" layerid="11" stroke-width="0"/><circle c_etype="pad_hole" cx="4158.5" cy="3128.5" r="1.77" layerid="11" stroke-width="0"/></g><g c_partid="part_pad" c_etype="pinpart" c_origin="4158.5,3098.5" layerid="11" number="2" net="P1_1" plated ="Y"  id="gge432" locked="0" c_rotation="90" c_width="7.4" c_height="7.4" title="P1_1" c_shape="ELLIPSE" pasteexpansion="0" solderexpansion="0.2"><ellipse c_etype="pad_shell" cx="4158.5" cy="3098.5" rx="3.7" ry="3.7" layerid="11" stroke-width="0"/><circle c_etype="pad_hole" cx="4158.5" cy="3098.5" r="1.77" layerid="11" stroke-width="0"/></g><g c_partid="part_pad" c_etype="pinpart" c_origin="4062.5,3061" layerid="11" number="1" net="Q1_1" plated ="Y"  id="gge891" locked="0" c_rotation="270" c_width="6.4961" c_height="6.4961" title="Q1_1" c_shape="ELLIPSE" pasteexpansion="0" solderexpansion="0.1969"><ellipse c_etype="pad_shell" cx="4062.5" cy="3061" rx="3.24805" ry="3.24805" layerid="11" stroke-width="0"/><circle c_etype="pad_hole" cx="4062.5" cy="3061" r="2.1654" layerid="11" stroke-width="0"/></g><g c_partid="part_pad" c_etype="pinpart" c_origin="4062.5,3071" layerid="11" number="2" net="P1_1" plated ="Y"  id="gge906" locked="0" c_rotation="270" c_width="6.4961" c_height="6.4961" title="P1_1" c_shape="ELLIPSE" pasteexpansion="0" solderexpansion="0.1969"><ellipse c_etype="pad_shell" cx="4062.5" cy="3071" rx="3.24805" ry="3.24805" layerid="11" stroke-width="0"/><circle c_etype="pad_hole" cx="4062.5" cy="3071" r="2.1654" layerid="11" stroke-width="0"/></g><g c_partid="part_pad" c_etype="pinpart" c_origin="4062.5,3081" layerid="11" number="3" net="U1_1" plated ="Y"  id="gge921" locked="0" c_rotation="270" c_width="6.4961" c_height="6.4961" title="U1_1" c_shape="ELLIPSE" pasteexpansion="0" solderexpansion="0.1969"><ellipse c_etype="pad_shell" cx="4062.5" cy="3081" rx="3.24805" ry="3.24805" layerid="11" stroke-width="0"/><circle c_etype="pad_hole" cx="4062.5" cy="3081" r="2.1654" layerid="11" stroke-width="0"/></g><polyline points="4121.6614 3165.441 4121.6614 3165.4213 4121.6614 3180.5787 4104.3386 3180.5787 4104.3386 3165.4213 4121.6023 3165.4213" stroke-width="0.5984"  stroke-linecap="round" fill="none" layerid="3" net="" id="gge48" locked="0" /><polyline points="4185.732 3089.685 4185.732 3050.315" stroke-width="1"  stroke-linecap="round" fill="none" layerid="3" net="" id="gge129" locked="0" /><polyline points="4161.542 3089.706 4160.8583 3091.26 4164.7953 3091.26 4164.02 3089.706" stroke-width="1"  stroke-linecap="round" fill="none" layerid="3" net="" id="gge132" locked="0" /><polyline points="4158.8898 3089.685 4158.8898 3050.315" stroke-width="1"  stroke-linecap="round" fill="none" layerid="3" net="" id="gge135" locked="0" /><polyline points="4158.8898 3089.685 4188.811 3089.685" stroke-width="1"  stroke-linecap="round" fill="none" layerid="3" net="" id="gge138" locked="0" /><polyline points="4158.8898 3050.315 4188.811 3050.315" stroke-width="1"  stroke-linecap="round" fill="none" layerid="3" net="" id="gge141" locked="0" /><polyline points="4188.811 3089.685 4188.811 3050.315" stroke-width="1"  stroke-linecap="round" fill="none" layerid="3" net="" id="gge144" locked="0" /><polyline points="4167.548 3089.685 4167.548 3050.315" stroke-width="1"  stroke-linecap="round" fill="none" layerid="3" net="" id="gge147" locked="0" /><polyline points="4176.5 3099 4176.5 3121.5" stroke-width="1"  stroke-linecap="round" fill="none" layerid="3" net="" id="gge204" locked="0" /><polyline points="4179 3094 4176.5 3096.5 4176.5 3099" stroke-width="1"  stroke-linecap="round" fill="none" layerid="3" net="" id="gge207" locked="0" /><polyline points="4179 3124 4176.5 3121.5" stroke-width="1"  stroke-linecap="round" fill="none" layerid="3" net="" id="gge210" locked="0" /><polyline points="4179 3124 4186.5 3124" stroke-width="1"  stroke-linecap="round" fill="none" layerid="3" net="" id="gge213" locked="0" /><polyline points="4186.5 3094 4179 3094" stroke-width="1"  stroke-linecap="round" fill="none" layerid="3" net="" id="gge216" locked="0" /><polyline points="4186.5 3094 4186.5 3124" stroke-width="1"  stroke-linecap="round" fill="none" layerid="3" net="" id="gge219" locked="0" /><polyline points="4168.5 3123.5 4168.5 3124.5" stroke-width="1"  stroke-linecap="round" fill="none" layerid="3" net="" id="gge285" locked="0" /><polyline points="4168.5 3103.5 4168.5 3102.5" stroke-width="1"  stroke-linecap="round" fill="none" layerid="3" net="" id="gge288" locked="0" /><polyline points="4168.5 3123.5 4165.5 3123.5" stroke-width="1"  stroke-linecap="round" fill="none" layerid="3" net="" id="gge291" locked="0" /><polyline points="4171.5 3123.5 4168.5 3123.5" stroke-width="1"  stroke-linecap="round" fill="none" layerid="3" net="" id="gge294" locked="0" /><polyline points="4171.5 3103.5 4171.5 3123.5" stroke-width="1"  stroke-linecap="round" fill="none" layerid="3" net="" id="gge297" locked="0" /><polyline points="4168.5 3103.5 4171.5 3103.5" stroke-width="1"  stroke-linecap="round" fill="none" layerid="3" net="" id="gge300" locked="0" /><polyline points="4165.5 3103.5 4168.5 3103.5" stroke-width="1"  stroke-linecap="round" fill="none" layerid="3" net="" id="gge303" locked="0" /><polyline points="4165.5 3123.5 4165.5 3103.5" stroke-width="1"  stroke-linecap="round" fill="none" layerid="3" net="" id="gge306" locked="0" /><polyline points="4158.5 3123.5 4158.5 3124.5" stroke-width="1"  stroke-linecap="round" fill="none" layerid="3" net="" id="gge375" locked="0" /><polyline points="4158.5 3103.5 4158.5 3102.5" stroke-width="1"  stroke-linecap="round" fill="none" layerid="3" net="" id="gge378" locked="0" /><polyline points="4158.5 3123.5 4155.5 3123.5" stroke-width="1"  stroke-linecap="round" fill="none" layerid="3" net="" id="gge381" locked="0" /><polyline points="4161.5 3123.5 4158.5 3123.5" stroke-width="1"  stroke-linecap="round" fill="none" layerid="3" net="" id="gge384" locked="0" /><polyline points="4161.5 3103.5 4161.5 3123.5" stroke-width="1"  stroke-linecap="round" fill="none" layerid="3" net="" id="gge387" locked="0" /><polyline points="4158.5 3103.5 4161.5 3103.5" stroke-width="1"  stroke-linecap="round" fill="none" layerid="3" net="" id="gge390" locked="0" /><polyline points="4155.5 3103.5 4158.5 3103.5" stroke-width="1"  stroke-linecap="round" fill="none" layerid="3" net="" id="gge393" locked="0" /><polyline points="4155.5 3123.5 4155.5 3103.5" stroke-width="1"  stroke-linecap="round" fill="none" layerid="3" net="" id="gge396" locked="0" /><polyline points="4098.8211 3073.2283 4096.5002 3073.2283" stroke-width="1"  stroke-linecap="round" fill="none" layerid="3" net="" id="gge531" locked="0" /><polyline points="4096.5002 3072.7283 4096.5002 3043.7283 4132.5002 3043.7283 4132.5002 3073.2283 4098.1002 3073.2283" stroke-width="1"  stroke-linecap="round" fill="none" layerid="3" net="" id="gge534" locked="0" /><polyline points="4151 3052.043 4151 3050.2283 4080 3050.2283" stroke-width="1"  stroke-linecap="round" fill="none" layerid="3" net="" id="gge537" locked="0" /><polyline points="4151 3062.043 4151 3060.957" stroke-width="1"  stroke-linecap="round" fill="none" layerid="3" net="" id="gge540" locked="0" /><polyline points="4151 3072.043 4151 3070.957" stroke-width="1"  stroke-linecap="round" fill="none" layerid="3" net="" id="gge543" locked="0" /><polyline points="4151 3082.0428 4151 3080.957" stroke-width="1"  stroke-linecap="round" fill="none" layerid="3" net="" id="gge546" locked="0" /><polyline points="4151 3092.0428 4151 3090.9572" stroke-width="1"  stroke-linecap="round" fill="none" layerid="3" net="" id="gge549" locked="0" /><polyline points="4151 3102.0428 4151 3100.9572" stroke-width="1"  stroke-linecap="round" fill="none" layerid="3" net="" id="gge552" locked="0" /><polyline points="4151 3112.0428 4151 3110.9572" stroke-width="1"  stroke-linecap="round" fill="none" layerid="3" net="" id="gge555" locked="0" /><polyline points="4151 3122.0428 4151 3120.9572" stroke-width="1"  stroke-linecap="round" fill="none" layerid="3" net="" id="gge558" locked="0" /><polyline points="4079.968 3130.9572 4079.968 3139.2283 4151 3139.2283 4151 3130.9572" stroke-width="1"  stroke-linecap="round" fill="none" layerid="3" net="" id="gge561" locked="0" /><polyline points="4079.968 3120.9572 4079.968 3122.0428" stroke-width="1"  stroke-linecap="round" fill="none" layerid="3" net="" id="gge564" locked="0" /><polyline points="4079.968 3110.9572 4079.968 3112.0428" stroke-width="1"  stroke-linecap="round" fill="none" layerid="3" net="" id="gge567" locked="0" /><polyline points="4079.968 3100.9572 4079.968 3102.0428" stroke-width="1"  stroke-linecap="round" fill="none" layerid="3" net="" id="gge570" locked="0" /><polyline points="4079.968 3090.9572 4079.968 3092.0428" stroke-width="1"  stroke-linecap="round" fill="none" layerid="3" net="" id="gge573" locked="0" /><polyline points="4079.968 3080.957 4079.968 3082.0428" stroke-width="1"  stroke-linecap="round" fill="none" layerid="3" net="" id="gge576" locked="0" /><polyline points="4079.968 3070.957 4079.968 3072.043" stroke-width="1"  stroke-linecap="round" fill="none" layerid="3" net="" id="gge579" locked="0" /><polyline points="4079.968 3060.957 4079.968 3062.043" stroke-width="1"  stroke-linecap="round" fill="none" layerid="3" net="" id="gge582" locked="0" /><polyline points="4079.968 3050.345 4079.968 3052.043" stroke-width="1"  stroke-linecap="round" fill="none" layerid="3" net="" id="gge585" locked="0" /><polyline points="4101.5 3128.7283 4128.5 3128.7283 4128.5 3137.2283 4101.5 3137.2283 4101.5 3128.7283" stroke-width="1"  stroke-linecap="round" fill="none" layerid="3" net="" id="gge588" locked="0" /><polyline points="4071.9488 3051.315 4049.1141 3051.315 4049.1141 3090.6851 4071.9488 3090.6851 4071.9488 3051.315" stroke-width="1"  stroke-linecap="round" fill="none" layerid="3" net="" id="gge870" locked="0" /><polyline points="4071.9488 3079.5921 4071.9488 3079.6614 4068.7992 3079.6614 4068.7992 3083.6421 4071.9488 3083.6421" stroke-width="1"  stroke-linecap="round" fill="none" layerid="3" net="" id="gge873" locked="0" /><polyline points="4071.9488 3057.9921 4071.9488 3058.0079 4068.7992 3058.0079 4068.7992 3062.1921 4071.9488 3062.1921" stroke-width="1"  stroke-linecap="round" fill="none" layerid="3" net="" id="gge876" locked="0" /><g c_partid="part_pcbtext" c_etype="" c_origin="4112.98,3157.02" c_rotation="0" c_mirror="0" id="gge9" locked="0" layerid="3" c_shapetype="group" display="none"><path c_fontsize="4.5" c_fontfamily="" c_text="BPW34S-Z" d="M 4112.98 3152.48 L 4112.98 3156.77 M 4112.98 3152.48 L 4114.82 3152.48 L 4115.43 3152.68 L 4115.64 3152.89 L 4115.84 3153.3 L 4115.84 3153.71 L 4115.64 3154.12 L 4115.43 3154.32 L 4114.82 3154.52 M 4112.98 3154.52 L 4114.82 3154.52 L 4115.43 3154.73 L 4115.64 3154.93 L 4115.84 3155.34 L 4115.84 3155.96 L 4115.64 3156.37 L 4115.43 3156.57 L 4114.82 3156.77 L 4112.98 3156.77 M 4117.19 3152.48 L 4117.19 3156.77 M 4117.19 3152.48 L 4119.03 3152.48 L 4119.65 3152.68 L 4119.85 3152.89 L 4120.06 3153.3 L 4120.06 3153.91 L 4119.85 3154.32 L 4119.65 3154.52 L 4119.03 3154.73 L 4117.19 3154.73 M 4121.41 3152.48 L 4122.43 3156.77 M 4123.45 3152.48 L 4122.43 3156.77 M 4123.45 3152.48 L 4124.48 3156.77 M 4125.5 3152.48 L 4124.48 3156.77 M 4127.26 3152.48 L 4129.51 3152.48 L 4128.28 3154.12 L 4128.89 3154.12 L 4129.3 3154.32 L 4129.51 3154.52 L 4129.71 3155.14 L 4129.71 3155.55 L 4129.51 3156.16 L 4129.1 3156.57 L 4128.48 3156.77 L 4127.87 3156.77 L 4127.26 3156.57 L 4127.05 3156.37 L 4126.85 3155.96 M 4133.11 3152.48 L 4131.06 3155.34 L 4134.13 3155.34 M 4133.11 3152.48 L 4133.11 3156.77 M 4138.34 3153.09 L 4137.93 3152.68 L 4137.32 3152.48 L 4136.5 3152.48 L 4135.89 3152.68 L 4135.48 3153.09 L 4135.48 3153.5 L 4135.68 3153.91 L 4135.89 3154.12 L 4136.3 3154.32 L 4137.53 3154.73 L 4137.93 3154.93 L 4138.14 3155.14 L 4138.34 3155.55 L 4138.34 3156.16 L 4137.93 3156.57 L 4137.32 3156.77 L 4136.5 3156.77 L 4135.89 3156.57 L 4135.48 3156.16 M 4139.69 3154.93 L 4143.38 3154.93 M 4147.59 3152.48 L 4144.73 3156.77 M 4144.73 3152.48 L 4147.59 3152.48 M 4144.73 3156.77 L 4147.59 3156.77" fill="none"  stroke-width="0.6" c_note="note_name" /></g><g c_partid="part_pcbtext" c_etype="" c_origin="4112.98,3164.02" c_rotation="0" c_mirror="0" id="gge15" locked="0" layerid="3" c_shapetype="group" ><path c_fontsize="4.5" c_fontfamily="" c_text="LED1" d="M 4112.98 3159.48 L 4112.98 3163.77 M 4112.98 3163.77 L 4115.43 3163.77 M 4116.78 3159.48 L 4116.78 3163.77 M 4116.78 3159.48 L 4119.44 3159.48 M 4116.78 3161.52 L 4118.42 3161.52 M 4116.78 3163.77 L 4119.44 3163.77 M 4120.79 3159.48 L 4120.79 3163.77 M 4120.79 3159.48 L 4122.23 3159.48 L 4122.84 3159.68 L 4123.25 3160.09 L 4123.45 3160.5 L 4123.66 3161.12 L 4123.66 3162.14 L 4123.45 3162.75 L 4123.25 3163.16 L 4122.84 3163.57 L 4122.23 3163.77 L 4120.79 3163.77 M 4125.01 3160.3 L 4125.42 3160.09 L 4126.03 3159.48 L 4126.03 3163.77" fill="none"  stroke-width="0.6" c_note="note_pre" /></g><g c_partid="part_pcbtext" c_etype="" c_origin="4108.677,3174.071" c_rotation="90" c_mirror="0" id="gge87" locked="0" layerid="3" c_shapetype="group" ><path c_fontsize="3.1496" c_fontfamily="" c_text="A" d="M 4105.5 3172.9221 L 4108.51 3174.0721 M 4105.5 3172.9221 L 4108.51 3171.7821 M 4107.5 3173.6421 L 4107.5 3172.2121" fill="none"  stroke-width="0.6"  /></g><g c_partid="part_pcbtext" c_etype="" c_origin="4120.724,3174.086" c_rotation="90" c_mirror="0" id="gge93" locked="0" layerid="3" c_shapetype="group" ><path c_fontsize="3.1496" c_fontfamily="" c_text="C" d="M 4118.2612 3171.9358 L 4117.9712 3172.0858 L 4117.6912 3172.3658 L 4117.5412 3172.6558 L 4117.5412 3173.2258 L 4117.6912 3173.5158 L 4117.9712 3173.7958 L 4118.2612 3173.9458 L 4118.6912 3174.0858 L 4119.4112 3174.0858 L 4119.8312 3173.9458 L 4120.1212 3173.7958 L 4120.4112 3173.5158 L 4120.5512 3173.2258 L 4120.5512 3172.6558 L 4120.4112 3172.3658 L 4120.1212 3172.0858 L 4119.8312 3171.9358" fill="none"  stroke-width="0.6"  /></g><g c_partid="part_pcbtext" c_etype="" c_origin="4150.06,3070.94" c_rotation="90" c_mirror="0" id="gge105" locked="0" layerid="3" c_shapetype="group" display="none"><path c_fontsize="4.5" c_fontfamily="" c_text="5V" d="M 4145.52 3068.49 L 4145.52 3070.53 L 4147.36 3070.74 L 4147.16 3070.53 L 4146.95 3069.92 L 4146.95 3069.3 L 4147.16 3068.69 L 4147.56 3068.28 L 4148.18 3068.08 L 4148.59 3068.08 L 4149.2 3068.28 L 4149.61 3068.69 L 4149.81 3069.3 L 4149.81 3069.92 L 4149.61 3070.53 L 4149.41 3070.74 L 4149 3070.94 M 4145.52 3066.73 L 4149.81 3065.09 M 4145.52 3063.45 L 4149.81 3065.09" fill="none"  stroke-width="0.6" c_note="note_name" /></g><g c_partid="part_pcbtext" c_etype="" c_origin="4157.06,3070.94" c_rotation="90" c_mirror="0" id="gge111" locked="0" layerid="3" c_shapetype="group" ><path c_fontsize="4.5" c_fontfamily="" c_text="P1" d="M 4152.52 3070.94 L 4156.81 3070.94 M 4152.52 3070.94 L 4152.52 3069.1 L 4152.72 3068.49 L 4152.93 3068.28 L 4153.34 3068.08 L 4153.95 3068.08 L 4154.36 3068.28 L 4154.56 3068.49 L 4154.77 3069.1 L 4154.77 3070.94 M 4153.34 3066.73 L 4153.13 3066.32 L 4152.52 3065.7 L 4156.81 3065.7" fill="none"  stroke-width="0.6" c_note="note_pre" /></g><g c_partid="part_pcbtext" c_etype="" c_origin="4194.5,3109" c_rotation="270" c_mirror="0" id="gge192" locked="0" layerid="3" c_shapetype="group" display="none"><path c_fontsize="4.5" c_fontfamily="" c_text="ZTX652" d="M 4199.04 3111.86 L 4194.75 3109 M 4199.04 3109 L 4199.04 3111.86 M 4194.75 3109 L 4194.75 3111.86 M 4199.04 3114.65 L 4194.75 3114.65 M 4199.04 3113.21 L 4199.04 3116.08 M 4199.04 3117.43 L 4194.75 3120.29 M 4199.04 3120.29 L 4194.75 3117.43 M 4198.43 3124.1 L 4198.84 3123.89 L 4199.04 3123.28 L 4199.04 3122.87 L 4198.84 3122.25 L 4198.22 3121.85 L 4197.2 3121.64 L 4196.18 3121.64 L 4195.36 3121.85 L 4194.95 3122.25 L 4194.75 3122.87 L 4194.75 3123.07 L 4194.95 3123.69 L 4195.36 3124.1 L 4195.97 3124.3 L 4196.18 3124.3 L 4196.79 3124.1 L 4197.2 3123.69 L 4197.4 3123.07 L 4197.4 3122.87 L 4197.2 3122.25 L 4196.79 3121.85 L 4196.18 3121.64 M 4199.04 3128.1 L 4199.04 3126.06 L 4197.2 3125.85 L 4197.4 3126.06 L 4197.61 3126.67 L 4197.61 3127.29 L 4197.4 3127.9 L 4197 3128.31 L 4196.38 3128.51 L 4195.97 3128.51 L 4195.36 3128.31 L 4194.95 3127.9 L 4194.75 3127.29 L 4194.75 3126.67 L 4194.95 3126.06 L 4195.15 3125.85 L 4195.56 3125.65 M 4198.02 3130.07 L 4198.22 3130.07 L 4198.63 3130.27 L 4198.84 3130.48 L 4199.04 3130.89 L 4199.04 3131.7 L 4198.84 3132.11 L 4198.63 3132.32 L 4198.22 3132.52 L 4197.81 3132.52 L 4197.4 3132.32 L 4196.79 3131.91 L 4194.75 3129.86 L 4194.75 3132.73" fill="none"  stroke-width="0.6" c_note="note_name" /></g><g c_partid="part_pcbtext" c_etype="" c_origin="4187.5,3109" c_rotation="270" c_mirror="0" id="gge198" locked="0" layerid="3" c_shapetype="group" ><path c_fontsize="4.5" c_fontfamily="" c_text="Q1" d="M 4192.04 3110.23 L 4191.84 3109.82 L 4191.43 3109.41 L 4191.02 3109.2 L 4190.4 3109 L 4189.38 3109 L 4188.77 3109.2 L 4188.36 3109.41 L 4187.95 3109.82 L 4187.75 3110.23 L 4187.75 3111.05 L 4187.95 3111.45 L 4188.36 3111.86 L 4188.77 3112.07 L 4189.38 3112.27 L 4190.4 3112.27 L 4191.02 3112.07 L 4191.43 3111.86 L 4191.84 3111.45 L 4192.04 3111.05 L 4192.04 3110.23 M 4188.56 3110.84 L 4187.34 3112.07 M 4191.22 3113.62 L 4191.43 3114.03 L 4192.04 3114.65 L 4187.75 3114.65" fill="none"  stroke-width="0.6" c_note="note_pre" /></g><g c_partid="part_pcbtext" c_etype="" c_origin="4156.5,3113.5" c_rotation="90" c_mirror="0" id="gge273" locked="0" layerid="3" c_shapetype="group" display="none"><path c_fontsize="4.5" c_fontfamily="" c_text="10k" d="M 4152.78 3113.5 L 4152.57 3113.09 L 4151.96 3112.48 L 4156.25 3112.48 M 4151.96 3109.9 L 4152.16 3110.51 L 4152.78 3110.92 L 4153.8 3111.13 L 4154.41 3111.13 L 4155.44 3110.92 L 4156.05 3110.51 L 4156.25 3109.9 L 4156.25 3109.49 L 4156.05 3108.88 L 4155.44 3108.47 L 4154.41 3108.26 L 4153.8 3108.26 L 4152.78 3108.47 L 4152.16 3108.88 L 4151.96 3109.49 L 4151.96 3109.9 M 4151.96 3106.91 L 4156.25 3106.91 M 4153.39 3104.87 L 4155.44 3106.91 M 4154.62 3106.1 L 4156.25 3104.66" fill="none"  stroke-width="0.6" c_note="note_name" /></g><g c_partid="part_pcbtext" c_etype="" c_origin="4163.5,3113.5" c_rotation="90" c_mirror="0" id="gge279" locked="0" layerid="3" c_shapetype="group" ><path c_fontsize="4.5" c_fontfamily="" c_text="R1" d="M 4158.96 3113.5 L 4163.25 3113.5 M 4158.96 3113.5 L 4158.96 3111.66 L 4159.16 3111.05 L 4159.37 3110.84 L 4159.78 3110.64 L 4160.19 3110.64 L 4160.6 3110.84 L 4160.8 3111.05 L 4161 3111.66 L 4161 3113.5 M 4161 3112.07 L 4163.25 3110.64 M 4159.78 3109.29 L 4159.57 3108.88 L 4158.96 3108.26 L 4163.25 3108.26" fill="none"  stroke-width="0.6" c_note="note_pre" /></g><g c_partid="part_pcbtext" c_etype="" c_origin="4146.5,3113.5" c_rotation="90" c_mirror="0" id="gge363" locked="0" layerid="3" c_shapetype="group" display="none"><path c_fontsize="4.5" c_fontfamily="" c_text="1k" d="M 4142.78 3113.5 L 4142.57 3113.09 L 4141.96 3112.48 L 4146.25 3112.48 M 4141.96 3111.13 L 4146.25 3111.13 M 4143.39 3109.08 L 4145.44 3111.13 M 4144.62 3110.31 L 4146.25 3108.88" fill="none"  stroke-width="0.6" c_note="note_name" /></g><g c_partid="part_pcbtext" c_etype="" c_origin="4153.5,3113.5" c_rotation="90" c_mirror="0" id="gge369" locked="0" layerid="3" c_shapetype="group" ><path c_fontsize="4.5" c_fontfamily="" c_text="R2" d="M 4148.96 3113.5 L 4153.25 3113.5 M 4148.96 3113.5 L 4148.96 3111.66 L 4149.16 3111.05 L 4149.37 3110.84 L 4149.78 3110.64 L 4150.19 3110.64 L 4150.6 3110.84 L 4150.8 3111.05 L 4151 3111.66 L 4151 3113.5 M 4151 3112.07 L 4153.25 3110.64 M 4149.98 3109.08 L 4149.78 3109.08 L 4149.37 3108.88 L 4149.16 3108.67 L 4148.96 3108.26 L 4148.96 3107.45 L 4149.16 3107.04 L 4149.37 3106.83 L 4149.78 3106.63 L 4150.19 3106.63 L 4150.6 3106.83 L 4151.21 3107.24 L 4153.25 3109.29 L 4153.25 3106.42" fill="none"  stroke-width="0.6" c_note="note_pre" /></g><g c_partid="part_pcbtext" c_etype="" c_origin="4115.5,3034.728" c_rotation="0" c_mirror="0" id="gge453" locked="0" layerid="3" c_shapetype="group" display="none"><path c_fontsize="4.5" c_fontfamily="" c_text="ESP32C3-SUPERMINI" d="M 4115.5 3030.1883 L 4115.5 3034.4783 M 4115.5 3030.1883 L 4118.16 3030.1883 M 4115.5 3032.2283 L 4117.14 3032.2283 M 4115.5 3034.4783 L 4118.16 3034.4783 M 4122.37 3030.7983 L 4121.96 3030.3883 L 4121.35 3030.1883 L 4120.53 3030.1883 L 4119.92 3030.3883 L 4119.51 3030.7983 L 4119.51 3031.2083 L 4119.71 3031.6183 L 4119.92 3031.8283 L 4120.33 3032.0283 L 4121.55 3032.4383 L 4121.96 3032.6383 L 4122.17 3032.8483 L 4122.37 3033.2583 L 4122.37 3033.8683 L 4121.96 3034.2783 L 4121.35 3034.4783 L 4120.53 3034.4783 L 4119.92 3034.2783 L 4119.51 3033.8683 M 4123.72 3030.1883 L 4123.72 3034.4783 M 4123.72 3030.1883 L 4125.56 3030.1883 L 4126.18 3030.3883 L 4126.38 3030.5983 L 4126.59 3031.0083 L 4126.59 3031.6183 L 4126.38 3032.0283 L 4126.18 3032.2283 L 4125.56 3032.4383 L 4123.72 3032.4383 M 4128.35 3030.1883 L 4130.6 3030.1883 L 4129.37 3031.8283 L 4129.98 3031.8283 L 4130.39 3032.0283 L 4130.6 3032.2283 L 4130.8 3032.8483 L 4130.8 3033.2583 L 4130.6 3033.8683 L 4130.19 3034.2783 L 4129.57 3034.4783 L 4128.96 3034.4783 L 4128.35 3034.2783 L 4128.14 3034.0783 L 4127.94 3033.6683 M 4132.35 3031.2083 L 4132.35 3031.0083 L 4132.56 3030.5983 L 4132.76 3030.3883 L 4133.17 3030.1883 L 4133.99 3030.1883 L 4134.4 3030.3883 L 4134.6 3030.5983 L 4134.81 3031.0083 L 4134.81 3031.4183 L 4134.6 3031.8283 L 4134.2 3032.4383 L 4132.15 3034.4783 L 4135.01 3034.4783 M 4139.43 3031.2083 L 4139.23 3030.7983 L 4138.82 3030.3883 L 4138.41 3030.1883 L 4137.59 3030.1883 L 4137.18 3030.3883 L 4136.77 3030.7983 L 4136.57 3031.2083 L 4136.36 3031.8283 L 4136.36 3032.8483 L 4136.57 3033.4583 L 4136.77 3033.8683 L 4137.18 3034.2783 L 4137.59 3034.4783 L 4138.41 3034.4783 L 4138.82 3034.2783 L 4139.23 3033.8683 L 4139.43 3033.4583 M 4141.19 3030.1883 L 4143.44 3030.1883 L 4142.21 3031.8283 L 4142.83 3031.8283 L 4143.24 3032.0283 L 4143.44 3032.2283 L 4143.65 3032.8483 L 4143.65 3033.2583 L 4143.44 3033.8683 L 4143.03 3034.2783 L 4142.42 3034.4783 L 4141.8 3034.4783 L 4141.19 3034.2783 L 4140.99 3034.0783 L 4140.78 3033.6683 M 4145 3032.6383 L 4148.68 3032.6383 M 4152.89 3030.7983 L 4152.48 3030.3883 L 4151.87 3030.1883 L 4151.05 3030.1883 L 4150.44 3030.3883 L 4150.03 3030.7983 L 4150.03 3031.2083 L 4150.23 3031.6183 L 4150.44 3031.8283 L 4150.85 3032.0283 L 4152.07 3032.4383 L 4152.48 3032.6383 L 4152.69 3032.8483 L 4152.89 3033.2583 L 4152.89 3033.8683 L 4152.48 3034.2783 L 4151.87 3034.4783 L 4151.05 3034.4783 L 4150.44 3034.2783 L 4150.03 3033.8683 M 4154.24 3030.1883 L 4154.24 3033.2583 L 4154.45 3033.8683 L 4154.85 3034.2783 L 4155.47 3034.4783 L 4155.88 3034.4783 L 4156.49 3034.2783 L 4156.9 3033.8683 L 4157.1 3033.2583 L 4157.1 3030.1883 M 4158.45 3030.1883 L 4158.45 3034.4783 M 4158.45 3030.1883 L 4160.3 3030.1883 L 4160.91 3030.3883 L 4161.11 3030.5983 L 4161.32 3031.0083 L 4161.32 3031.6183 L 4161.11 3032.0283 L 4160.91 3032.2283 L 4160.3 3032.4383 L 4158.45 3032.4383 M 4162.67 3030.1883 L 4162.67 3034.4783 M 4162.67 3030.1883 L 4165.33 3030.1883 M 4162.67 3032.2283 L 4164.3 3032.2283 M 4162.67 3034.4783 L 4165.33 3034.4783 M 4166.68 3030.1883 L 4166.68 3034.4783 M 4166.68 3030.1883 L 4168.52 3030.1883 L 4169.13 3030.3883 L 4169.34 3030.5983 L 4169.54 3031.0083 L 4169.54 3031.4183 L 4169.34 3031.8283 L 4169.13 3032.0283 L 4168.52 3032.2283 L 4166.68 3032.2283 M 4168.11 3032.2283 L 4169.54 3034.4783 M 4170.89 3030.1883 L 4170.89 3034.4783 M 4170.89 3030.1883 L 4172.53 3034.4783 M 4174.16 3030.1883 L 4172.53 3034.4783 M 4174.16 3030.1883 L 4174.16 3034.4783 M 4175.51 3030.1883 L 4175.51 3034.4783 M 4176.86 3030.1883 L 4176.86 3034.4783 M 4176.86 3030.1883 L 4179.73 3034.4783 M 4179.73 3030.1883 L 4179.73 3034.4783 M 4181.08 3030.1883 L 4181.08 3034.4783" fill="none"  stroke-width="0.6" c_note="note_name" /></g><g c_partid="part_pcbtext" c_etype="" c_origin="4115.5,3041.728" c_rotation="0" c_mirror="0" id="gge459" locked="0" layerid="3" c_shapetype="group" ><path c_fontsize="4.5" c_fontfamily="" c_text="U1" d="M 4115.5 3037.1883 L 4115.5 3040.2583 L 4115.7 3040.8683 L 4116.11 3041.2783 L 4116.73 3041.4783 L 4117.14 3041.4783 L 4117.75 3041.2783 L 4118.16 3040.8683 L 4118.36 3040.2583 L 4118.36 3037.1883 M 4119.71 3038.0083 L 4120.12 3037.7983 L 4120.74 3037.1883 L 4120.74 3041.4783" fill="none"  stroke-width="0.6" c_note="note_pre" /></g><g c_partid="part_pcbtext" c_etype="pinpart" c_origin="4135.5,3059.228" c_rotation="0" c_mirror="0" id="gge831" locked="0" layerid="3" c_shapetype="group" ><path c_fontsize="3.937" c_fontfamily="" c_text="5V" d="M 4137.65 3055.2583 L 4135.86 3055.2583 L 4135.68 3056.8683 L 4135.86 3056.6883 L 4136.39 3056.5083 L 4136.93 3056.5083 L 4137.47 3056.6883 L 4137.83 3057.0483 L 4138.01 3057.5783 L 4138.01 3057.9383 L 4137.83 3058.4783 L 4137.47 3058.8383 L 4136.93 3059.0183 L 4136.39 3059.0183 L 4135.86 3058.8383 L 4135.68 3058.6583 L 4135.5 3058.2983 M 4139.19 3055.2583 L 4140.62 3059.0183 M 4142.05 3055.2583 L 4140.62 3059.0183" fill="none"  stroke-width="0.8"  /></g><g c_partid="part_pcbtext" c_etype="" c_origin="4079.949,3070" c_rotation="270" c_mirror="0" id="gge843" locked="0" layerid="3" c_shapetype="group" display="none"><path c_fontsize="4.5" c_fontfamily="" c_text="VIBRATION MOTOR" d="M 4084.4888 3070 L 4080.1988 3071.64 M 4084.4888 3073.27 L 4080.1988 3071.64 M 4084.4888 3074.62 L 4080.1988 3074.62 M 4084.4888 3075.97 L 4080.1988 3075.97 M 4084.4888 3075.97 L 4084.4888 3077.81 L 4084.2888 3078.43 L 4084.0788 3078.63 L 4083.6688 3078.84 L 4083.2588 3078.84 L 4082.8488 3078.63 L 4082.6488 3078.43 L 4082.4488 3077.81 M 4082.4488 3075.97 L 4082.4488 3077.81 L 4082.2388 3078.43 L 4082.0388 3078.63 L 4081.6288 3078.84 L 4081.0088 3078.84 L 4080.5988 3078.63 L 4080.3988 3078.43 L 4080.1988 3077.81 L 4080.1988 3075.97 M 4084.4888 3080.19 L 4080.1988 3080.19 M 4084.4888 3080.19 L 4084.4888 3082.03 L 4084.2888 3082.64 L 4084.0788 3082.85 L 4083.6688 3083.05 L 4083.2588 3083.05 L 4082.8488 3082.85 L 4082.6488 3082.64 L 4082.4488 3082.03 L 4082.4488 3080.19 M 4082.4488 3081.62 L 4080.1988 3083.05 M 4084.4888 3086.04 L 4080.1988 3084.4 M 4084.4888 3086.04 L 4080.1988 3087.67 M 4081.6288 3085.01 L 4081.6288 3087.06 M 4084.4888 3090.45 L 4080.1988 3090.45 M 4084.4888 3089.02 L 4084.4888 3091.89 M 4084.4888 3093.24 L 4080.1988 3093.24 M 4084.4888 3095.81 L 4084.2888 3095.4 L 4083.8788 3095 L 4083.4688 3094.79 L 4082.8488 3094.59 L 4081.8288 3094.59 L 4081.2188 3094.79 L 4080.8088 3095 L 4080.3988 3095.4 L 4080.1988 3095.81 L 4080.1988 3096.63 L 4080.3988 3097.04 L 4080.8088 3097.45 L 4081.2188 3097.65 L 4081.8288 3097.86 L 4082.8488 3097.86 L 4083.4688 3097.65 L 4083.8788 3097.45 L 4084.2888 3097.04 L 4084.4888 3096.63 L 4084.4888 3095.81 M 4084.4888 3099.21 L 4080.1988 3099.21 M 4084.4888 3099.21 L 4080.1988 3102.07 M 4084.4888 3102.07 L 4080.1988 3102.07 M 4084.4888 3106.57 L 4080.1988 3106.57 M 4084.4888 3106.57 L 4080.1988 3108.21 M 4084.4888 3109.85 L 4080.1988 3108.21 M 4084.4888 3109.85 L 4080.1988 3109.85 M 4084.4888 3112.42 L 4084.2888 3112.01 L 4083.8788 3111.6 L 4083.4688 3111.4 L 4082.8488 3111.2 L 4081.8288 3111.2 L 4081.2188 3111.4 L 4080.8088 3111.6 L 4080.3988 3112.01 L 4080.1988 3112.42 L 4080.1988 3113.24 L 4080.3988 3113.65 L 4080.8088 3114.06 L 4081.2188 3114.26 L 4081.8288 3114.47 L 4082.8488 3114.47 L 4083.4688 3114.26 L 4083.8788 3114.06 L 4084.2888 3113.65 L 4084.4888 3113.24 L 4084.4888 3112.42 M 4084.4888 3117.25 L 4080.1988 3117.25 M 4084.4888 3115.82 L 4084.4888 3118.68 M 4084.4888 3121.26 L 4084.2888 3120.85 L 4083.8788 3120.44 L 4083.4688 3120.24 L 4082.8488 3120.03 L 4081.8288 3120.03 L 4081.2188 3120.24 L 4080.8088 3120.44 L 4080.3988 3120.85 L 4080.1988 3121.26 L 4080.1988 3122.08 L 4080.3988 3122.49 L 4080.8088 3122.9 L 4081.2188 3123.1 L 4081.8288 3123.3 L 4082.8488 3123.3 L 4083.4688 3123.1 L 4083.8788 3122.9 L 4084.2888 3122.49 L 4084.4888 3122.08 L 4084.4888 3121.26 M 4084.4888 3124.65 L 4080.1988 3124.65 M 4084.4888 3124.65 L 4084.4888 3126.5 L 4084.2888 3127.11 L 4084.0788 3127.31 L 4083.6688 3127.52 L 4083.2588 3127.52 L 4082.8488 3127.31 L 4082.6488 3127.11 L 4082.4488 3126.5 L 4082.4488 3124.65 M 4082.4488 3126.09 L 4080.1988 3127.52" fill="none"  stroke-width="0.6" c_note="note_name" /></g><g c_partid="part_pcbtext" c_etype="" c_origin="4072.949,3070" c_rotation="270" c_mirror="0" id="gge849" locked="0" layerid="3" c_shapetype="group" ><path c_fontsize="4.5" c_fontfamily="" c_text="V1" d="M 4077.4888 3070 L 4073.1988 3071.64 M 4077.4888 3073.27 L 4073.1988 3071.64 M 4076.6688 3074.62 L 4076.8788 3075.03 L 4077.4888 3075.65 L 4073.1988 3075.65" fill="none"  stroke-width="0.6" c_note="note_pre" /></g><polyline points="4047.559 3049.54 4189.291 3049.54 4189.291 3191.272 4047.559 3191.272 4047.559 3049.54" stroke-width="1"  stroke-linecap="round" fill="none" layerid="10" net="" id="gge975" locked="0" /></svg>